<svg width="240" height="22" viewBox="0 0 240 22" fill="none" xmlns="http://www.w3.org/2000/svg"><path fill-rule="evenodd" clip-rule="evenodd" d="M16.144 15.583V7.905c0-2.178-1.144-3.212-3.064-3.212-1.596 0-2.977.968-3.58 1.936-.389-1.21-1.36-1.936-2.891-1.936-1.597 0-2.978 1.012-3.409 1.65V4.957H.46v10.626H3.2v-7.15C3.61 7.84 4.408 7.18 5.357 7.18c1.122 0 1.554.704 1.554 1.694v6.71h2.76V8.411c.39-.572 1.187-1.232 2.158-1.232 1.122 0 1.553.704 1.553 1.694v6.71h2.762zm7.529.264c-3.43 0-5.501-2.552-5.501-5.588 0-3.014 2.07-5.566 5.5-5.566 3.453 0 5.523 2.552 5.523 5.566 0 3.036-2.07 5.588-5.522 5.588zm0-2.486c1.704 0 2.675-1.43 2.675-3.102 0-1.65-.97-3.08-2.675-3.08-1.704 0-2.654 1.43-2.654 3.08 0 1.672.95 3.102 2.654 3.102zm17.323 2.222V8.081c0-2.068-1.1-3.388-3.387-3.388-1.704 0-2.977.836-3.646 1.65V4.957h-2.74v10.626h2.74v-7.15c.453-.638 1.294-1.254 2.373-1.254 1.165 0 1.92.506 1.92 1.98v6.424h2.74zm7.55.264c-3.43 0-5.5-2.552-5.5-5.588 0-3.014 2.07-5.566 5.5-5.566 3.452 0 5.523 2.552 5.523 5.566 0 3.036-2.07 5.588-5.523 5.588zm0-2.486c1.705 0 2.675-1.43 2.675-3.102 0-1.65-.97-3.08-2.674-3.08-1.705 0-2.654 1.43-2.654 3.08 0 1.672.95 3.102 2.654 3.102zm10.29-1.188c.454.682 1.468 1.188 2.352 1.188 1.597 0 2.654-1.232 2.654-3.08S62.785 7.18 61.188 7.18c-.884 0-1.898.528-2.351 1.232v3.762zm0 3.41h-2.739V.91h2.74v5.412c.82-1.078 1.984-1.628 3.214-1.628 2.654 0 4.617 2.112 4.617 5.588 0 3.542-1.985 5.566-4.617 5.566-1.251 0-2.394-.572-3.214-1.628v1.364zm18.899 0h-2.74v-1.1c-.712.858-1.942 1.364-3.3 1.364-1.662 0-3.625-1.144-3.625-3.52 0-2.486 1.963-3.432 3.624-3.432 1.381 0 2.61.462 3.301 1.298v-1.43c0-1.078-.906-1.782-2.287-1.782-1.121 0-2.157.418-3.041 1.254l-1.036-1.87c1.273-1.144 2.912-1.672 4.552-1.672 2.373 0 4.552.968 4.552 4.026v6.864zm-4.94-1.628c.884 0 1.747-.308 2.2-.924v-1.32c-.453-.616-1.316-.924-2.2-.924-1.08 0-1.964.572-1.964 1.606 0 .99.885 1.562 1.964 1.562zm17.43 1.628V8.081c0-2.068-1.1-3.388-3.386-3.388-1.705 0-2.977.836-3.646 1.65V4.957h-2.74v10.626h2.74v-7.15c.453-.638 1.294-1.254 2.373-1.254 1.165 0 1.92.506 1.92 1.98v6.424h2.74zm12.901 0l-4.25-5.808 4.121-4.818h-3.366l-3.947 4.73V.91h-2.74v14.674h2.74v-2.728l1.25-1.364 2.762 4.092h3.43z" fill="#000"/><path fill-rule="evenodd" clip-rule="evenodd" d="M231.701 2.917h2.244v7.28h.127l2.919-3.497 2.07-.006-3.202 3.823 3.857 4.78h-2.585l-3.153-4.45h-.033v4.45h-2.244V2.917zm-106.699.553v6.79c0 2.312.672 3.576 2.553 3.576 1.801 0 2.521-1.533 2.521-3.443V3.47h2.121v7.346c0 2.986-1.918 4.678-4.708 4.678-3.195 0-4.856-1.574-4.856-4.797V3.47h2.369zm12.153 4.374c.76-.81 1.817-1.198 2.877-1.198 1.967 0 3.008 1.078 3.008 3.205v5.439h-2.232v-5.183c0-1.183-.52-1.96-1.683-1.96-1.093 0-1.951.726-1.951 2.112v5.03h-2.235V6.847h2.216v.998zm8.512 7.446h2.235V6.846h-2.235v8.444zm-.22-10.975c0-.641.537-1.301 1.296-1.301.773 0 1.376.642 1.376 1.3 0 .726-.518 1.419-1.343 1.419-.791 0-1.329-.693-1.329-1.418zm7.401 10.975l-3.578-8.48h2.369c.724 1.943 1.476 3.77 2.18 6.117h.034c.76-2.347 1.475-4.174 2.247-6.116h2.097l-3.788 8.479h-1.561zm12.001-5.233c.087-1.287-.368-2.163-1.475-2.163-1.282 0-1.858 1.03-1.833 2.163h3.308zm-3.345 1.215c-.051 1.589 1.059 2.768 2.454 2.768.829 0 1.699-.286 2.256-.676l.638 1.183c-1.143.675-2.339.947-3.296.947-2.539 0-4.438-1.808-4.438-4.594 0-2.602 1.881-4.254 4.286-4.254 2.623 0 3.717 2.109 3.552 4.626h-5.452zm9.839-2.94h.031l.455-.658c.25-.373.755-1.028 1.445-1.028.504 0 1.044.27 1.515.758l-.843 1.554c-.369-.188-.606-.287-1.057-.287-.774 0-1.53.625-1.53 2.447v4.172h-2.243V6.846h2.227v1.486zm9.414.101c-.504-.371-1.025-.539-1.431-.539-.504 0-1.009.286-1.009.861 0 .676.809 1.065 1.75 1.754 1.197.9 1.546 1.777 1.546 2.55 0 1.186-1.296 2.435-3.142 2.435-1.161 0-2.018-.407-2.806-.963l.705-1.167c.502.408 1.224.81 1.828.81.643 0 1.212-.338 1.212-1.046 0-.794-.875-1.232-1.68-1.807-.959-.657-1.612-1.3-1.612-2.345 0-1.337 1.274-2.33 2.921-2.33.929 0 1.834.234 2.443.777l-.725 1.01zm6.369 2.365c-1.091.355-1.646.98-1.646 1.94 0 .745.471 1.252 1.013 1.252.888 0 2.049-1.116 1.883-3.597l-1.25.405zm.71 3.682c-.606.507-1.379 1.014-2.151 1.014-1.312 0-2.409-1.014-2.409-2.567 0-1.606 1.164-2.5 3.115-3.076l1.985-.59c-.117-.776-.809-1.265-1.528-1.265-.962 0-1.635.355-2.223.862l-.726-1.065c1.046-.86 2.069-1.147 3.227-1.147 1.551 0 3.452.503 3.452 3.14v3.443c0 .677.082 1.472.353 2.06h-2.37c-.173-.287-.22-.775-.22-1.231l-.505.422zm5.247.81h2.238V2.88h-2.238v12.41zm22.043-4.492c-1.095.355-1.649.98-1.649 1.94 0 .745.468 1.252 1.009 1.252.887 0 2.05-1.116 1.886-3.597l-1.246.405zm.701 3.682c-.602.507-1.377 1.014-2.151 1.014-1.309 0-2.405-1.014-2.405-2.567 0-1.606 1.161-2.5 3.115-3.076l1.986-.59c-.123-.776-.809-1.265-1.537-1.265-.955 0-1.63.355-2.217.862l-.724-1.065c1.043-.86 2.07-1.147 3.232-1.147 1.544 0 3.442.503 3.442 3.14v3.443c0 .677.084 1.472.352 2.06h-2.367c-.166-.287-.222-.775-.222-1.231l-.504.422zm7.467-6.636c.758-.81 1.819-1.198 2.877-1.198 1.967 0 3.008 1.078 3.008 3.205v5.439h-2.235v-5.183c0-1.183-.522-1.96-1.682-1.96-1.094 0-1.951.726-1.951 2.112v5.03h-2.235V6.847h2.218v.998zm-19.815 6.024h1.21c1.312 0 2.307-.691 2.307-2.006 0-1.386-1.027-1.977-2.321-1.977h-1.196v3.983zm0-5.435h.743c1.364 0 2.289-.877 2.289-1.977 0-1.045-.777-1.5-1.802-1.5h-1.231v3.477h.001zm-2.369 6.889V3.502h4.255c1.982 0 3.38.912 3.38 2.516 0 1.89-1.53 2.67-2.353 2.887v.034c1.463.069 3.092 1.08 3.092 2.887 0 2.042-1.7 3.496-4.47 3.496h-3.904z" fill="#000" fill-opacity=".75"/><path fill-rule="evenodd" clip-rule="evenodd" d="M112.359 0h.899v22h-.899V0z" fill="#000"/></svg>