<svg width="105" height="27" viewBox="0 0 105 27" fill="none" xmlns="http://www.w3.org/2000/svg"><g clip-path="url(#clip0)"><path d="M18.455 15.5l-9.3-2.023c-2.77-.603-4.509-3.251-3.882-5.916.627-2.664 3.383-4.335 6.154-3.733 2.771.603 4.51 3.252 3.883 5.916-.314 1.334-1.162 2.418-2.278 3.094l-.004.002a.126.126 0 00-.054.101c0 .058.042.107.098.12l4.137.9a.266.266 0 00.261-.092 8.416 8.416 0 001.824-5.215c0-4.607-3.744-8.372-8.466-8.64a10.53 10.53 0 00-6.439 1.773c-4.656 3.136-5.787 9.303-2.527 13.78l8.272 11.358a.199.199 0 00.313 0l8.124-11.14a.18.18 0 00-.009-.218.193.193 0 00-.107-.066z" fill="#FABC26"/><path d="M26.414 5.318c.1 0 .165.032.198.096l2.759 4.525h.132l2.345-4.462c.05-.111.149-.159.28-.159h1.686c.148 0 .23.143.165.254l-4.857 8.257c-.049.096-.148.143-.28.143H27.19c-.182 0-.198-.11-.132-.238l1.305-2.144-3.898-6.065c-.066-.111-.017-.207.099-.207h1.85zm10.465 0c.149 0 .231.08.231.222v3.396l3.717-3.49a.683.683 0 01.43-.128h2.014c.149 0 .199.127.083.238l-3.948 3.557 4.196 4.621c.115.111.05.238-.1.238h-1.981c-.182 0-.314-.047-.414-.159l-3.143-3.564-.854.763v2.738c0 .143-.082.222-.231.222h-1.453c-.15 0-.232-.08-.232-.222V5.54c0-.143.083-.222.231-.222h1.454zm12.2 4.605c1.007 0 1.585-.603 1.585-1.445 0-.826-.578-1.413-1.585-1.413h-2.396v2.858h2.396zm0-4.605c1.998 0 3.5 1.381 3.5 3.16 0 1.842-1.502 3.192-3.5 3.192h-2.396v2.08c0 .143-.082.222-.23.222h-1.454c-.149 0-.232-.08-.232-.222V5.54c0-.143.083-.222.232-.222h4.08zm12.529 0c.149 0 .232.08.232.222v8.21c0 .143-.083.222-.232.222h-1.453c-.148 0-.232-.08-.232-.222V7.049h-3.997v6.7c0 .144-.083.223-.23.223h-1.454c-.15 0-.232-.08-.232-.222V5.54c0-.143.083-.222.232-.222h7.367zm3.87 4.335c0 1.572 1.156 2.715 2.808 2.715 1.635 0 2.792-1.143 2.792-2.715 0-1.604-1.157-2.731-2.792-2.731-1.652 0-2.808 1.127-2.808 2.731zm2.808-4.462c2.593 0 4.724 1.921 4.724 4.462 0 2.557-2.13 4.446-4.724 4.446-2.61 0-4.74-1.89-4.74-4.446 0-2.54 2.13-4.462 4.74-4.462zm11.137 7.051V5.54c0-.142.082-.222.232-.222h1.42c.149 0 .231.08.231.222v6.702h2.825V5.54c0-.142.082-.222.23-.222h1.422c.148 0 .23.08.23.222v8.21c0 .143-.082.222-.23.222H74.947c-.115 0-.231-.08-.231-.222V5.54c0-.142.082-.222.231-.222h1.42c.15 0 .232.08.232.222v6.702h2.824zm15.769-6.924c.148 0 .232.08.232.222v1.302c0 .143-.084.223-.232.223h-2.874v6.685c0 .143-.083.222-.231.222h-1.454c-.148 0-.23-.08-.23-.222V7.065h-2.875c-.148 0-.232-.08-.232-.223V5.54c0-.143.084-.222.232-.222h7.664zm3.268 5.272h3.139l-1.453-3.557h-.182l-1.503 3.557zm3.8 1.667h-4.493l-.627 1.524a.281.281 0 01-.281.191h-1.635c-.165 0-.215-.08-.165-.222l3.898-8.305c.032-.08.099-.127.215-.127h1.882c.116 0 .182.048.215.127l3.716 8.273c.05.127-.032.254-.181.254h-1.569a.358.358 0 01-.347-.222l-.628-1.493z" fill="#2C2E2C"/><path d="M25.737 21.392v-3.706h2.536v.427h-2.027v3.28h-.51zm3.785-1.858c0 .926.526 1.525 1.344 1.525.807 0 1.333-.604 1.333-1.525 0-.916-.526-1.51-1.344-1.51-.91 0-1.333.719-1.333 1.51zm3.187-.026c0 1.088-.624 1.973-1.849 1.973-1.235 0-1.847-.906-1.847-1.984 0-1.155.72-1.9 1.842-1.9 1.198 0 1.854.807 1.854 1.91zm3.988 1.884h-.51v-3.28h-1.425l-.076 2.088c-.027.745-.309 1.27-.894 1.27-.109 0-.271-.036-.369-.073v-.416c.071.042.217.052.277.052.276 0 .477-.146.504-1.088l.07-2.259h2.422v3.706zm1.711-1.858c0 .926.526 1.525 1.344 1.525.807 0 1.333-.604 1.333-1.525 0-.916-.526-1.51-1.344-1.51-.91 0-1.333.719-1.333 1.51zm3.186-.026c0 1.088-.623 1.973-1.848 1.973-1.235 0-1.848-.906-1.848-1.984 0-1.155.721-1.9 1.843-1.9 1.198 0 1.853.807 1.853 1.91zm1.698 1.472h1.019c.514 0 1.018-.03 1.018-.68 0-.646-.59-.641-1.105-.641h-.932v1.322zm0-1.706h.916c.433 0 .953-.032.953-.588 0-.558-.45-.584-.905-.584h-.964v1.172zm1.149-1.588c.64 0 1.23.245 1.23.927a.832.832 0 01-.57.796c.477.104.743.448.743.937 0 .854-.726 1.046-1.463 1.046h-1.588v-3.706h1.648zm5.676 3.706h-.51V19.66h-2.036v1.733h-.51v-3.706h.51v1.546h2.037v-1.546h.51v3.706zm2.845-3.238l-.666 1.713h1.322l-.656-1.713zm1.805 3.238h-.569l-.428-1.134h-1.62l-.439 1.134h-.542l1.517-3.706h.575l1.506 3.706zm6.281 0h-.51v-3.279h-2.036v3.28h-.51v-3.707h3.056v3.706zm1.716-1.858c0 .926.526 1.525 1.344 1.525.807 0 1.333-.604 1.333-1.525 0-.916-.526-1.51-1.344-1.51-.91 0-1.333.719-1.333 1.51zm3.187-.026c0 1.088-.624 1.973-1.848 1.973-1.236 0-1.848-.906-1.848-1.984 0-1.155.72-1.9 1.842-1.9 1.198 0 1.854.807 1.854 1.91zm1.199-1.822h.51v3.28h1.712v-3.28h.509v3.28h1.712v-3.28h.51v3.706H67.15v-3.706zm9.137.427H74.99v3.28h-.51v-3.28h-1.294v-.427h3.1v.427zm1.973.041l-.667 1.713h1.322l-.656-1.713zm1.804 3.238h-.569l-.428-1.134h-1.62l-.44 1.134h-.541l1.517-3.706h.574l1.507 3.706zm4.731-2.217l1.69 2.217h-.65l-1.398-1.884-.639.583v1.301h-.51v-3.706h.51v1.838l1.956-1.838h.667l-1.626 1.489zm3.275.286h.981c.494 0 .873-.13.873-.676 0-.594-.439-.677-.943-.677h-.91v1.353zm1.08-1.775c.736 0 1.283.297 1.283 1.067 0 .838-.563 1.12-1.316 1.12H88.07v1.52h-.51v-3.707h1.588zm3.538.468l-.667 1.713h1.322l-.655-1.713zm1.804 3.238h-.569l-.428-1.134h-1.62l-.44 1.134h-.541l1.517-3.706h.575l1.506 3.706zm2.073-4.023h-.488v-.526h.488v.526zm-.504 4.023h-.51v-3.706h.51v3.706zm-.52-4.023h-.488v-.526h.488v.526zm4.986 4.023h-.509V19.66h-2.037v1.733h-.51v-3.706h.51v1.546h2.037v-1.546h.509v3.706zm1.402-3.706h.51v3.139h.01l1.892-3.139h.644v3.706h-.509v-3.15h-.011l-1.896 3.15h-.64v-3.706z" fill="#617171"/></g><defs><clipPath id="clip0"><path fill="#fff" d="M0 0h105v27H0z"/></clipPath></defs></svg>