<svg width="105" height="37" viewBox="0 0 105 37" fill="none" xmlns="http://www.w3.org/2000/svg"><g clip-path="url(#clip0)" fill-rule="evenodd" clip-rule="evenodd" fill="#ED1C24"><path d="M45.964 6.277h2.208c.805 0 1.21.392 1.21 1.278v3.138h4.327V7.555c0-.886.399-1.278 1.307-1.278h2.111v2.062h-.901l-.103.101v8.833h-2.414v-4.417h-4.327v4.417h-2.414V8.44s0-.1-.103-.1h-.901V6.276zm17.498-.197l.055.006v2.265l-.055-.012c-1.809 0-3.219 1.474-3.219 3.34 0 1.962 1.41 3.531 3.22 3.531l.054-.012v2.265l-.055.006c-3.219 0-5.833-2.55-5.833-5.79 0-3.144 2.614-5.599 5.833-5.599z"/><path d="M63.517 6.086l1.12.107c2.655.512 4.658 2.735 4.658 5.487a5.77 5.77 0 01-4.659 5.67l-1.12.113v-2.265l1.229-.261c1.186-.535 2.04-1.79 2.04-3.257 0-1.403-.854-2.58-2.04-3.08l-1.228-.249V6.086zm6.28.191h4.98v2.062h-1.561v2.259h1.561v1.961h-1.561v2.455c0 .101 0 .101.103.101h1.458v2.158h-2.765c-.805 0-1.204-.393-1.204-1.278V8.339h-1.01V6.277z"/><path d="M74.777 6.277h.048c2.215 0 3.522 1.176 3.522 2.948 0 1.076-.502 1.765-1.005 2.258.908.393 1.507 1.373 1.507 2.45 0 2.062-1.61 3.34-3.92 3.34h-.152v-2.158h.248c.805 0 1.313-.493 1.313-1.278 0-.784-.508-1.278-1.313-1.278h-.248v-1.961h.048c.708 0 1.108-.494 1.108-1.177 0-.69-.4-1.082-1.108-1.082h-.048V6.277zm8.701 0h1.204V9.42c-.097.196-.2.487-.2.784l-.805 2.26h1.004v2.056H83.08l-.708 1.77c-.2.684-.6.982-1.404.982h-1.513v-2.158h.502c.206 0 .206 0 .303-.101l3.219-8.737zm1.204 0h1.21l3.219 8.737c.097.101.097.101.296.101h.406v2.158h-1.41c-.805 0-1.204-.298-1.41-1.082l-.702-1.67h-1.609v-2.057h1.004l-.798-2.259c0-.297-.103-.588-.206-.784V6.277zM45.964 20.41h8.749c.805 0 1.307.393 1.307 1.279v7.46c0 .094 0 .094.103.094h.805v2.164h-2.112c-.908 0-1.307-.392-1.307-1.278v-7.555s0-.1-.103-.1h-4.024v8.933h-2.414v-8.934h-1.004v-2.062zm17.299-.195l.048.006v2.264l-.048-.011c-1.816 0-3.22 1.474-3.22 3.34 0 1.961 1.404 3.53 3.22 3.53l.048-.011v2.264l-.048.006c-3.22 0-5.736-2.556-5.736-5.79 0-3.143 2.517-5.598 5.736-5.598z"/><path d="M63.311 20.22l1.156.108c2.704.51 4.628 2.734 4.628 5.486 0 2.829-1.924 5.141-4.628 5.67l-1.156.113v-2.265l1.277-.261c1.204-.535 1.996-1.79 1.996-3.257 0-1.403-.792-2.58-1.996-3.08l-1.277-.249v-2.264zm6.287.19h2.214c.805 0 1.204.393 1.204 1.279v7.46c0 .094 0 .094.103.094h2.916v-8.832h2.415v8.832h2.916c.103 0 .103 0 .103-.095v-7.46c0-.885.4-1.277 1.204-1.277h2.215v2.062h-.908c-.103 0-.103.101-.103.101v7.555c0 .886-.4 1.278-1.204 1.278H71.91c-.902 0-1.307-.392-1.307-1.278v-7.555s0-.1-.097-.1h-.907V20.41zm17.195 0h7.546c.907 0 1.21.393 1.21 1.178v1.866h-2.215v-.88c0-.1 0-.1-.103-.1h-1.403v8.933h-2.42v-8.934h-1.404c-.103 0-.103 0-.103.101v.88h-2.215v-1.866c0-.785.303-1.177 1.107-1.177zm11.872 0h1.204v3.145a1.77 1.77 0 00-.2.785l-.804 2.258h1.004v2.057H98.26l-.702 1.67c-.2.785-.605 1.082-1.41 1.082H94.64v-2.164h.502c.206 0 .206 0 .303-.095l3.219-8.737zm1.204 0h1.204l3.225 8.738c.097.095.097.095.303.095H105v2.164h-1.41c-.805 0-1.204-.297-1.41-1.082l-.702-1.67h-1.609v-2.057h1.004l-.804-2.258a1.77 1.77 0 00-.2-.785v-3.144zm-69.407-9.456c.115-.035.266.036.418.232l6.837 6.574c.4.392.4.987 0 1.278l-6.837 6.675c-.152.196-.303.243-.418.184-.115-.06-.188-.232-.188-.481V11.382c0-.243.073-.392.188-.428zM18.766 0h.484l.466.19 7.037 6.871c.302.392.2.69-.303.69h-2.916a.888.888 0 00-.902.885v5.1c0 .493-.405.886-1.01.886h-5.125a.894.894 0 01-.908-.886v-5.1a.89.89 0 00-.907-.885h-3.116c-.502 0-.605-.298-.303-.69l7.043-6.87.46-.191zM7.742 10.806c.127.06.206.232.206.481v14.325c0 .25-.08.398-.206.445-.121.048-.297 0-.502-.148L.3 19.038c-.4-.291-.4-.886 0-1.278l6.94-6.77c.205-.196.38-.244.502-.184zm8.755 11.275h5.125c.605 0 1.01.393 1.01.886v5.397c0 .588.4.98.902.98h2.717c.502 0 .702.292.302.589l-6.837 6.77a1.021 1.021 0 01-.708.297c-.248 0-.502-.1-.702-.297l-6.837-6.77c-.405-.297-.206-.588.296-.588h2.917c.508 0 .907-.393.907-.981v-5.397c0-.493.406-.886.908-.886z"/></g><defs><clipPath id="clip0"><path fill="#fff" d="M0 0h105v37H0z"/></clipPath></defs></svg>