<svg width="105" height="17" viewBox="0 0 105 17" fill="none" xmlns="http://www.w3.org/2000/svg"><path d="M19.985 14.613H17.4V5.847h9.277v8.766h-2.585v-7.05h-4.107v7.05zm10.203-3.176c0-1.779 1.126-2.096 1.855-2.096.729 0 1.855.381 1.855 2.096 0 1.08-.464 2.16-1.855 2.16-1.391-.064-1.855-1.08-1.855-2.16zm-2.253-3.176v8.64h2.385v-2.987c.795.826 2.12.89 2.385.89 2.253 0 3.645-1.398 3.645-3.367 0-2.096-1.392-3.43-3.578-3.43-.53 0-1.657.063-2.584 1.016h-.066v-.762h-2.187zm14.311 5.59c-.86.762-1.722 1.016-2.65 1.016-2.584 0-2.65-1.842-2.65-2.604V8.325h2.386v3.684c0 1.27.463 1.651 1.325 1.651 1.523 0 1.59-1.27 1.59-1.715V8.388h2.385v6.352h-2.386v-.889zm5.765-4.32h1.259c.662 0 1.259.127 1.259.635 0 .572-.928.572-1.325.572h-1.26V9.531h.067zm-2.385-1.27v6.352h4.704c1.723 0 2.915-.318 2.915-1.652 0-1.016-.596-1.46-1.921-1.651v-.064c.86-.127 1.59-.635 1.59-1.46 0-1.525-1.855-1.525-2.584-1.525h-4.704zm2.385 3.684h1.457c1.127 0 1.325.318 1.325.762 0 .254-.132.636-1.325.636h-1.457v-1.398zm10.999 0c0 1.27-1.127 1.588-1.723 1.588-.464 0-1.193-.127-1.193-.762 0-.699.861-.826 1.392-.89.927-.126.86-.063 1.59-.317v.381h-.066zm-2.717-1.651c0-.953 1.06-1.017 1.458-1.017.265 0 1.259 0 1.259.826v.19c-.067.636-.663.51-2.452.7-1.458.19-2.982.508-2.982 1.969 0 .508.265 1.842 2.783 1.842.994 0 2.054-.254 2.65-.89h.067l.199.636h2.517v-.127c-.464-.064-.464-.509-.464-1.207l.067-2.922c0-.763-.067-2.35-3.644-2.35-.862 0-3.644.063-3.71 2.286h2.252v.064zm5.367-.763v-1.27h7.62v1.27h-2.65v5.082h-2.386V9.531H61.66zm10.6 1.271h2.121c.596 0 1.855.063 1.855 1.08 0 .826-.927 1.016-1.921 1.016h-2.12v-2.096h.066zm0-3.24h5.897V5.847h-8.48v8.703h5.234c2.518 0 4.174-.826 4.174-2.605 0-2.795-3.246-2.858-4.174-2.858h-2.65V7.562zm12.656 4.383c0 1.27-1.127 1.588-1.723 1.588-.464 0-1.193-.127-1.193-.762 0-.699.862-.826 1.392-.89.928-.126.861-.063 1.59-.317v.381h-.066zm-2.783-1.651c0-.953 1.06-1.017 1.458-1.017.265 0 1.258 0 1.258.826v.19c-.066.636-.662.51-2.451.7-1.458.19-2.981.508-2.981 1.969 0 .508.264 1.842 2.782 1.842.994 0 2.054-.254 2.65-.89h.067l.199.636h2.517v-.127c-.464-.064-.464-.509-.464-1.207l.067-2.922c0-.763-.067-2.35-3.644-2.35-.862 0-3.644.063-3.71 2.286h2.252v.064zm8.547 4.32h-2.385V8.26h2.385v2.35h2.85V8.26h2.318v6.352h-2.319v-2.731H90.68v2.731zm11.197-6.353h2.651l-3.313 2.985 3.445 3.367h-2.783l-2.584-2.795v2.795h-2.385V8.261h2.385v2.54l2.584-2.54z" fill="#89AF39"/><path d="M.174 14.613h5.963V8.896H.174v5.717z" fill="#000"/><path d="M.174.067V7.18h1.59c4.108 0 6.228 2.033 6.228 5.971v1.525h7.42V.067H.175zm12.059 2.985v8.576H11.04c-.53-4.256-3.313-6.86-7.686-7.369V3.116c1.988-.064 6.89-.064 8.878-.064z" fill="#89AF39"/></svg>