<svg width="105" height="27" viewBox="0 0 105 27" fill="none" xmlns="http://www.w3.org/2000/svg">
<g clip-path="url(#clip0)">
<path d="M18.4547 15.5003L9.1559 13.4773C6.38449 12.8744 4.64597 10.2256 5.27295 7.56114C5.90031 4.89665 8.65551 3.22565 11.4269 3.82841C14.1985 4.43139 15.9368 7.08008 15.3098 9.7444C14.9956 11.0784 14.148 12.1624 13.032 12.8377C13.0319 12.8377 13.0292 12.8399 13.0281 12.8404C13.0114 12.8519 12.9978 12.867 12.9884 12.8846C12.979 12.9022 12.9741 12.9216 12.9741 12.9414C12.9741 12.9995 13.0158 13.0483 13.0722 13.0614C13.0724 13.0616 17.2085 13.9607 17.2092 13.9607C17.2573 13.9711 17.3075 13.968 17.3538 13.9517C17.4001 13.9354 17.4405 13.9067 17.4703 13.8689C17.4706 13.8682 17.4705 13.8687 17.4705 13.8687C18.61 12.4192 19.2944 10.6105 19.2944 8.65422C19.2944 4.04719 15.5504 0.282204 10.8279 0.0147934C10.7858 0.0125561 10.5299 0.00294304 10.4434 0.00175858C8.35251 -0.0297966 6.23252 0.546585 4.38899 1.78778C-0.266664 4.92166 -1.39779 11.0902 1.86164 15.5658L10.1342 26.9237C10.1521 26.9473 10.1756 26.9666 10.2027 26.9798C10.2298 26.9931 10.2598 27 10.2902 27C10.3546 27 10.4117 26.9695 10.4468 26.9228L18.5709 15.7847C18.5916 15.7552 18.6039 15.7194 18.6039 15.681C18.604 15.6391 18.5893 15.5984 18.5621 15.5656C18.535 15.5327 18.4971 15.5097 18.4547 15.5003Z" fill="#FABC26"/>
<path d="M26.4137 5.31823C26.5132 5.31823 26.5792 5.34992 26.6122 5.41352L29.3705 9.93883H29.5025L31.8481 5.4768C31.8975 5.36555 31.9968 5.31823 32.1289 5.31823H33.8136C33.9624 5.31823 34.0447 5.46118 33.9786 5.57213L29.1225 13.8294C29.0731 13.9246 28.9742 13.9724 28.8418 13.9724H27.1902C27.0084 13.9724 26.992 13.8612 27.0582 13.7341L28.3628 11.5903L24.4649 5.52464C24.3986 5.41352 24.4483 5.31823 24.5639 5.31823H26.4137Z" fill="#2C2E2C"/>
<path d="M36.8789 5.31823C37.0276 5.31823 37.1102 5.39741 37.1102 5.5404V8.93642L40.8269 5.44507C40.9259 5.36555 41.0744 5.31823 41.2561 5.31823H43.2713C43.42 5.31823 43.4697 5.44507 43.3538 5.55633L39.406 9.11333L43.6017 13.7341C43.7172 13.845 43.6515 13.9724 43.5027 13.9724H41.5206C41.3389 13.9724 41.2069 13.9246 41.1074 13.8133L37.9642 10.2489L37.1102 11.0125V13.7499C37.1102 13.8929 37.0276 13.9724 36.8789 13.9724H35.4255C35.2768 13.9724 35.1944 13.8929 35.1944 13.7499V5.5404C35.1944 5.39741 35.2768 5.31823 35.4255 5.31823H36.8789Z" fill="#2C2E2C"/>
<path d="M49.0788 9.92296C50.0863 9.92296 50.6643 9.31967 50.6643 8.47812C50.6643 7.65227 50.0863 7.06492 49.0788 7.06492H46.6834V9.92296H49.0788ZM49.0788 5.31799C51.077 5.31799 52.5799 6.69942 52.5799 8.47812C52.5799 10.32 51.077 11.6698 49.0788 11.6698H46.6834V13.7498C46.6834 13.8926 46.6008 13.9722 46.4524 13.9722H44.9986C44.85 13.9722 44.7673 13.8926 44.7673 13.7498V5.54033C44.7673 5.39734 44.85 5.31799 44.9986 5.31799H49.0788Z" fill="#2C2E2C"/>
<path d="M61.6085 5.31823C61.7569 5.31823 61.8399 5.39741 61.8399 5.5404V13.7499C61.8399 13.8929 61.7569 13.9724 61.6085 13.9724H60.1545C60.0066 13.9724 59.9235 13.8929 59.9235 13.7499V7.04888H55.9262V13.7499C55.9262 13.8929 55.8435 13.9724 55.6952 13.9724H54.2416C54.0928 13.9724 54.0101 13.8929 54.0101 13.7499V5.5404C54.0101 5.39741 54.0928 5.31823 54.2416 5.31823H61.6085Z" fill="#2C2E2C"/>
<path d="M65.478 9.6531C65.478 11.2252 66.6339 12.3682 68.2856 12.3682C69.9213 12.3682 71.0777 11.2252 71.0777 9.6531C71.0777 8.04929 69.9213 6.92194 68.2856 6.92194C66.6339 6.92194 65.478 8.04929 65.478 9.6531ZM68.2856 5.1909C70.8791 5.1909 73.0101 7.11237 73.0101 9.6531C73.0101 12.2096 70.8791 14.0994 68.2856 14.0994C65.6761 14.0994 63.5455 12.2096 63.5455 9.6531C63.5455 7.11237 65.6761 5.1909 68.2856 5.1909Z" fill="#2C2E2C"/>
<path d="M79.4233 12.2416V5.54022C79.4233 5.39758 79.5055 5.31823 79.6547 5.31823H81.075C81.2238 5.31823 81.3064 5.39758 81.3064 5.54022V12.2416H84.1309V5.54022C84.1309 5.39758 84.2131 5.31823 84.3619 5.31823H85.7826C85.9315 5.31823 86.0136 5.39758 86.0136 5.54022V13.7499C86.0136 13.8929 85.9315 13.9724 85.7826 13.9724H74.9471C74.8316 13.9724 74.7156 13.8929 74.7156 13.7499V5.54022C74.7156 5.39758 74.7978 5.31823 74.9471 5.31823H76.3673C76.5162 5.31823 76.5988 5.39758 76.5988 5.54022V12.2416H79.4233Z" fill="#2C2E2C"/>
<path d="M95.1925 5.31823C95.3404 5.31823 95.4235 5.39741 95.4235 5.5404V6.84247C95.4235 6.98546 95.3404 7.06468 95.1925 7.06468H92.3183V13.7499C92.3183 13.8929 92.2352 13.9724 92.0868 13.9724H90.6332C90.4849 13.9724 90.4022 13.8929 90.4022 13.7499V7.06468H87.528C87.3796 7.06468 87.2965 6.98546 87.2965 6.84247V5.5404C87.2965 5.39741 87.3796 5.31823 87.528 5.31823H95.1925Z" fill="#2C2E2C"/>
<path d="M98.4608 10.5901H101.599L100.146 7.03323H99.9641L98.4608 10.5901ZM102.26 12.2573H97.7669L97.1396 13.7815C97.0903 13.9087 96.9912 13.9722 96.8588 13.9722H95.2236C95.0588 13.9722 95.009 13.8926 95.0588 13.7498L98.9566 5.44518C98.9894 5.36565 99.0556 5.31799 99.1716 5.31799H101.054C101.17 5.31799 101.236 5.36565 101.269 5.44518L104.985 13.7179C105.035 13.8453 104.953 13.9722 104.804 13.9722H103.235C103.07 13.9722 102.953 13.8926 102.888 13.7498L102.26 12.2573Z" fill="#2C2E2C"/>
<path d="M25.7366 21.3921V17.6861H28.2728V18.113H26.246V21.3921H25.7366Z" fill="#617171"/>
<path d="M29.522 19.5338C29.522 20.4604 30.0475 21.0589 30.8659 21.0589C31.6734 21.0589 32.1989 20.4549 32.1989 19.5338C32.1989 18.6178 31.6733 18.0245 30.855 18.0245C29.9446 18.0245 29.522 18.7426 29.522 19.5338ZM32.7086 19.5077C32.7086 20.5959 32.0853 21.4805 30.8605 21.4805C29.6251 21.4805 29.0127 20.5748 29.0127 19.4973C29.0127 18.3421 29.7333 17.5976 30.855 17.5976C32.0526 17.5976 32.7086 18.4042 32.7086 19.5077Z" fill="#617171"/>
<path d="M36.6965 21.3921H36.1872V18.1129H34.762L34.6862 20.2C34.6591 20.9446 34.3771 21.4702 33.7921 21.4702C33.6834 21.4702 33.521 21.4337 33.4235 21.3972V20.9808C33.4941 21.0226 33.6403 21.033 33.6997 21.033C33.9761 21.033 34.1769 20.8872 34.2038 19.9449L34.2743 17.686H36.6965V21.3921Z" fill="#617171"/>
<path d="M38.4079 19.5338C38.4079 20.4604 38.9335 21.0589 39.7518 21.0589C40.5591 21.0589 41.0848 20.4549 41.0848 19.5338C41.0848 18.6178 40.5591 18.0245 39.741 18.0245C38.8306 18.0245 38.4079 18.7426 38.4079 19.5338ZM41.5941 19.5077C41.5941 20.5959 40.9712 21.4805 39.7465 21.4805C38.5108 21.4805 37.8983 20.5748 37.8983 19.4973C37.8983 18.3421 38.6192 17.5976 39.741 17.5976C40.9386 17.5976 41.5941 18.4042 41.5941 19.5077Z" fill="#617171"/>
<path d="M43.2916 20.9808H44.3106C44.8253 20.9808 45.3292 20.9498 45.3292 20.2991C45.3292 19.6537 44.7386 19.6588 44.224 19.6588H43.2916V20.9808ZM43.2916 19.2736H44.2075C44.6411 19.2736 45.1614 19.2424 45.1614 18.6856C45.1614 18.1284 44.7113 18.1025 44.2564 18.1025H43.2916V19.2736ZM44.4406 17.6861C45.0801 17.6861 45.6704 17.9309 45.6704 18.6126C45.6704 18.9768 45.4485 19.2894 45.1017 19.4089C45.5785 19.5133 45.8439 19.8565 45.8439 20.346C45.8439 21.1996 45.1179 21.3921 44.381 21.3921H42.7932V17.6861H44.4406Z" fill="#617171"/>
<path d="M50.1174 21.3921H49.6079V19.6588H47.5705V21.3921H47.061V17.6861H47.5705V19.2318H49.6079V17.6861H50.1174V21.3921Z" fill="#617171"/>
<path d="M52.9625 18.1545L52.296 19.8672H53.6185L52.9625 18.1545ZM54.7671 21.3921H54.1983L53.7701 20.2575H52.1499L51.7112 21.3921H51.1688L52.6863 17.6861H53.2606L54.7671 21.3921Z" fill="#617171"/>
<path d="M61.0484 21.3921H60.5389V18.113H58.5015V21.3921H57.992V17.6861H61.0484V21.3921Z" fill="#617171"/>
<path d="M62.7644 19.5338C62.7644 20.4604 63.2899 21.0589 64.108 21.0589C64.9155 21.0589 65.441 20.4549 65.441 19.5338C65.441 18.6178 64.9155 18.0245 64.0975 18.0245C63.1867 18.0245 62.7644 18.7426 62.7644 19.5338ZM65.9505 19.5077C65.9505 20.5959 65.3273 21.4805 64.1029 21.4805C62.8671 21.4805 62.2549 20.5748 62.2549 19.4973C62.2549 18.3421 62.9753 17.5976 64.0975 17.5976C65.2949 17.5976 65.9505 18.4042 65.9505 19.5077Z" fill="#617171"/>
<path d="M67.1497 17.6861H67.6592V20.9654H69.3716V17.6861H69.8806V20.9654H71.593V17.6861H72.1025V21.3921H67.1497V17.6861Z" fill="#617171"/>
<path d="M76.2866 18.113H74.9914V21.3921H74.4819V18.113H73.1868V17.6861H76.2866V18.113Z" fill="#617171"/>
<path d="M78.2592 18.1545L77.5931 19.8672H78.9152L78.2592 18.1545ZM80.0643 21.3921H79.495L79.0668 20.2575H77.4466L77.0079 21.3921H76.4655L77.983 17.6861H78.5573L80.0643 21.3921Z" fill="#617171"/>
<path d="M84.7953 19.1749L86.4858 21.3921H85.8357L84.4374 19.5078L83.7982 20.091V21.3921H83.2888V17.6861H83.7982V19.5236L85.7544 17.6861H86.421L84.7953 19.1749Z" fill="#617171"/>
<path d="M88.0708 19.461H89.0514C89.5449 19.461 89.9243 19.3309 89.9243 18.7845C89.9243 18.191 89.4851 18.1077 88.9811 18.1077H88.0708V19.461ZM89.1491 17.6861C89.8864 17.6861 90.4333 17.9827 90.4333 18.7531C90.4333 19.5913 89.87 19.8723 89.1167 19.8723H88.0708V21.3921H87.5613V17.6861H89.1491Z" fill="#617171"/>
<path d="M92.6876 18.1545L92.0211 19.8672H93.3432L92.6876 18.1545ZM94.4922 21.3921H93.9234L93.4952 20.2575H91.875L91.4358 21.3921H90.8939L92.4109 17.6861H92.9857L94.4922 21.3921Z" fill="#617171"/>
<path d="M96.5653 17.3686H96.0773V16.8429H96.5653V17.3686ZM96.0613 21.3921H95.5519V17.6861H96.0613V21.3921ZM95.5409 17.3686H95.0533V16.8429H95.5409V17.3686Z" fill="#617171"/>
<path d="M100.527 21.3921H100.018V19.6588H97.9805V21.3921H97.4711V17.6861H97.9805V19.2318H100.018V17.6861H100.527V21.3921Z" fill="#617171"/>
<path d="M101.929 17.6861H102.439V20.8248H102.449L104.341 17.6861H104.985V21.3921H104.476V18.2429H104.465L102.569 21.3921H101.929V17.6861Z" fill="#617171"/>
</g>
<defs>
<clipPath id="clip0">
<rect width="105" height="27" fill="white"/>
</clipPath>
</defs>
</svg>
