<svg width="105" height="17" viewBox="0 0 105 17" fill="none" xmlns="http://www.w3.org/2000/svg">
<path d="M19.9847 14.6134H17.4004V5.84741H26.6765V14.6134H24.0922V7.56241H19.9847V14.6134ZM30.1878 11.4371C30.1878 9.65841 31.3143 9.34074 32.043 9.34074C32.7718 9.34074 33.8983 9.72208 33.8983 11.4374C33.8983 12.5171 33.4344 13.5967 32.043 13.5967C30.6516 13.5334 30.1878 12.5167 30.1878 11.4371ZM27.9352 8.26108V16.9001H30.3203V13.9144C31.1154 14.7401 32.4408 14.8037 32.7054 14.8037C34.9583 14.8037 36.3498 13.4064 36.3498 11.4371C36.3498 9.34075 34.9583 8.00708 32.7721 8.00708C32.2419 8.00708 31.1154 8.07041 30.1878 9.02341H30.1217V8.26108H27.9352ZM42.2465 13.8511C41.3852 14.6134 40.524 14.8674 39.5964 14.8674C37.0124 14.8674 36.946 13.0254 36.946 12.2631V8.32475H39.3315V12.0087C39.3315 13.2794 39.7949 13.6604 40.6565 13.6604C42.1804 13.6604 42.2465 12.3901 42.2465 11.9454V8.38808H44.6319V14.7404H42.2465V13.8511ZM48.011 9.53108H49.2696C49.9323 9.53108 50.5286 9.65841 50.5286 10.1664C50.5286 10.7381 49.601 10.7381 49.2036 10.7381H47.9446V9.53141H48.011V9.53108ZM45.6256 8.26108V14.6131H50.3301C52.0525 14.6131 53.245 14.2954 53.245 12.9614C53.245 11.9451 52.6488 11.5004 51.3237 11.3097V11.2464C52.1849 11.1194 52.914 10.6111 52.914 9.78541C52.914 8.26075 51.0588 8.26075 50.3301 8.26075H45.6256V8.26108ZM48.011 11.9451H49.4685C50.595 11.9451 50.7935 12.2627 50.7935 12.7074C50.7935 12.9614 50.6611 13.3427 49.4685 13.3427H48.011V11.9451ZM59.0096 11.9454C59.0096 13.2157 57.8831 13.5334 57.2868 13.5334C56.823 13.5334 56.0943 13.4064 56.0943 12.7711C56.0943 12.0724 56.9555 11.9454 57.4857 11.8817C58.4133 11.7547 58.3469 11.8184 59.0757 11.5641V11.9454H59.0096ZM56.2928 10.2937C56.2928 9.34108 57.3529 9.27741 57.7506 9.27741C58.0156 9.27741 59.0096 9.27741 59.0096 10.1031V10.2937C58.9432 10.9291 58.3469 10.8021 56.5581 10.9924C55.1003 11.1831 53.5764 11.5007 53.5764 12.9617C53.5764 13.4697 53.8413 14.8037 56.3592 14.8037C57.3529 14.8037 58.4133 14.5497 59.0096 13.9144H59.0757L59.2745 14.5497H61.7921V14.4227C61.3283 14.3594 61.3283 13.9144 61.3283 13.2161L61.3947 10.2937C61.3947 9.53141 61.3283 7.94375 57.7506 7.94375C56.8891 7.94375 54.1066 8.00708 54.0402 10.2304H56.2928V10.2937ZM61.6596 9.53108V8.26108H69.2791V9.53108H66.6291V14.6134H64.2436V9.53141H61.6596V9.53108ZM72.2608 10.8021H74.381C74.9772 10.8021 76.2362 10.8654 76.2362 11.8821C76.2362 12.7077 75.3086 12.8984 74.3146 12.8984H72.1944V10.8021H72.2608ZM72.2608 7.56241H78.1575V5.84741H69.6768V14.5501H74.9112C77.4288 14.5501 79.0851 13.7241 79.0851 11.9454C79.0851 9.15041 75.8385 9.08708 74.9112 9.08708H72.2608V7.56241ZM84.9157 11.9454C84.9157 13.2157 83.7893 13.5334 83.193 13.5334C82.7292 13.5334 82.0004 13.4064 82.0004 12.7711C82.0004 12.0724 82.8616 11.9454 83.3918 11.8817C84.3195 11.7547 84.2531 11.8184 84.9821 11.5641V11.9454H84.9157ZM82.1329 10.2937C82.1329 9.34108 83.193 9.27741 83.5907 9.27741C83.8557 9.27741 84.8493 9.27741 84.8493 10.1031V10.2937C84.7833 10.9291 84.187 10.8021 82.3978 10.9924C80.9403 11.1831 79.4165 11.5007 79.4165 12.9617C79.4165 13.4697 79.6814 14.8037 82.1993 14.8037C83.193 14.8037 84.2531 14.5497 84.8493 13.9144H84.9157L85.1146 14.5497H87.6322V14.4227C87.1684 14.3594 87.1684 13.9144 87.1684 13.2161L87.2348 10.2937C87.2348 9.53141 87.1684 7.94375 83.5907 7.94375C82.7292 7.94375 79.9467 8.00708 79.8803 10.2304H82.1329V10.2937ZM90.68 14.6131H88.2949V8.26075H90.68V10.6111H93.5292V8.26108H95.8479V14.6131H93.5292V11.8817H90.68V14.6131ZM101.877 8.26075H104.528L101.215 11.2464L104.66 14.6131H101.877L99.2934 11.8181V14.6131H96.908V8.26075H99.2934V10.8017L101.877 8.26075Z" fill="#89AF39"/>
<path d="M0.173828 14.613H6.13658V8.896H0.173828V14.6127V14.613Z" fill="black"/>
<path d="M0.173828 0.0666504V7.18098H1.76413C5.87199 7.18098 7.99216 9.21365 7.99216 13.152V14.6767H15.4127V0.0666504H0.173828ZM12.2325 3.05198V11.6277H11.0399C10.5097 7.37165 7.72688 4.76732 3.35408 4.25898V3.11565C5.34178 3.05232 10.2448 3.05232 12.2325 3.05232V3.05198Z" fill="#89AF39"/>
</svg>
