<svg width="100" height="100" viewBox="0 0 100 100" fill="none" xmlns="http://www.w3.org/2000/svg">
<path d="M71.1875 83.184C73.0662 83.1862 74.9262 82.8098 76.6563 82.0773C76.9148 82.1866 77.1764 82.288 77.4408 82.3816C80.0962 83.3205 82.9723 83.4401 85.6964 82.725C88.4206 82.0099 90.8671 80.493 92.719 78.371C94.5708 76.249 95.7426 73.6197 96.0825 70.8238C96.4223 68.028 95.9146 65.1945 94.625 62.6906V17.9531C94.6244 17.4353 94.4185 16.9388 94.0523 16.5727C93.6862 16.2065 93.1897 16.0006 92.6719 16H5.95313C5.4353 16.0006 4.93884 16.2065 4.57269 16.5727C4.20653 16.9388 4.00057 17.4353 4 17.9531V67.1719C4.00057 67.6897 4.20653 68.1862 4.57269 68.5523C4.93884 68.9185 5.4353 69.1244 5.95313 69.125H57.125C57.1301 72.8527 58.6135 76.4262 61.2497 79.0618C63.8859 81.6974 67.4598 83.1798 71.1875 83.184ZM75.6084 55.775C73.0088 54.911 70.2132 54.827 67.5664 55.5334C64.9197 56.2398 62.5376 57.7056 60.7143 59.75H24.2164C23.8686 56.9961 22.6145 54.4361 20.6517 52.4733C18.6889 50.5105 16.1289 49.2564 13.375 48.9086V36.2164C16.1289 35.8685 18.6889 34.6145 20.6517 32.6517C22.6145 30.6889 23.8685 28.1289 24.2164 25.375H74.4086C74.7564 28.1289 76.0105 30.6889 77.9733 32.6517C79.9361 34.6145 82.4961 35.8686 85.25 36.2164V48.9086C82.494 49.2496 79.9319 50.5047 77.9732 52.4732C77.0116 53.4387 76.2129 54.5538 75.6084 55.775ZM60.25 69.1215C60.25 66.9583 60.8915 64.8436 62.0933 63.0449C63.2951 61.2463 65.0033 59.8444 67.0019 59.0166C69.0005 58.1887 71.1996 57.9721 73.3213 58.3941C75.443 58.8162 77.3918 59.8579 78.9215 61.3875C80.4511 62.9171 81.4928 64.866 81.9148 66.9877C82.3369 69.1094 82.1203 71.3085 81.2924 73.3071C80.4646 75.3056 79.0627 77.0139 77.2641 78.2157C75.4654 79.4175 73.3507 80.059 71.1875 80.059C68.2877 80.0557 65.5076 78.9023 63.4571 76.8519C61.4066 74.8014 60.2533 72.0213 60.25 69.1215ZM92.4375 72.7668C91.5742 75.2091 89.872 77.2657 87.6342 78.5705C85.3964 79.8752 82.7681 80.3433 80.2174 79.8914C81.7933 78.5736 83.0608 76.926 83.9305 75.0649C84.8002 73.2038 85.2508 71.1745 85.2506 69.1202C85.2504 67.066 84.7994 65.0368 83.9294 63.1758C83.0594 61.3148 81.7916 59.6675 80.2154 58.35C82.0984 58.0165 84.0359 58.1824 85.8348 58.8311C87.6337 59.4799 89.2311 60.5889 90.4677 62.0476C91.7043 63.5063 92.5369 65.2636 92.8825 67.1444C93.2282 69.0252 93.0747 70.9638 92.4375 72.7668ZM7.125 19.125H91.5V58.6432C89.909 57.219 88.0147 56.1757 85.9606 55.5923C83.9065 55.0089 81.7466 54.9008 79.6445 55.2762C79.8166 55.0719 79.9943 54.8723 80.1832 54.6836C81.0519 53.8106 82.0851 53.1184 83.223 52.647C84.3609 52.1757 85.5809 51.9345 86.8125 51.9375C87.2269 51.9375 87.6243 51.7729 87.9174 51.4799C88.2104 51.1868 88.375 50.7894 88.375 50.375V34.75C88.375 34.3356 88.2104 33.9382 87.9174 33.6451C87.6243 33.3521 87.2269 33.1875 86.8125 33.1875C85.5813 33.1877 84.3622 32.9453 83.2247 32.4742C82.0872 32.0031 81.0536 31.3125 80.183 30.442C79.3125 29.5714 78.6219 28.5378 78.1508 27.4003C77.6797 26.2628 77.4373 25.0437 77.4375 23.8125C77.4375 23.3981 77.2729 23.0007 76.9799 22.7076C76.6868 22.4146 76.2894 22.25 75.875 22.25H22.75C22.3356 22.25 21.9382 22.4146 21.6451 22.7076C21.3521 23.0007 21.1875 23.3981 21.1875 23.8125C21.1875 26.2989 20.1998 28.6835 18.4416 30.4416C16.6835 32.1998 14.2989 33.1875 11.8125 33.1875C11.3981 33.1875 11.0007 33.3521 10.7076 33.6451C10.4146 33.9382 10.25 34.3356 10.25 34.75V50.375C10.25 50.7894 10.4146 51.1868 10.7076 51.4799C11.0007 51.7729 11.3981 51.9375 11.8125 51.9375C13.0437 51.9373 14.2628 52.1797 15.4003 52.6508C16.5378 53.1219 17.5714 53.8125 18.442 54.683C19.3125 55.5536 20.0031 56.5872 20.4742 57.7247C20.9453 58.8622 21.1877 60.0813 21.1875 61.3125C21.1875 61.7269 21.3521 62.1243 21.6451 62.4174C21.9382 62.7104 22.3356 62.875 22.75 62.875H58.5936C58.0989 63.8686 57.7246 64.9177 57.4785 66H7.125V19.125ZM55.5625 37.7277V37.875H52.4375V37.7277C52.4366 36.9383 52.1226 36.1814 51.5644 35.6232C51.0062 35.065 50.2494 34.7509 49.46 34.75H49.165C48.4581 34.7501 47.7742 35.0018 47.2358 35.46C46.6974 35.9182 46.3396 36.553 46.2263 37.2509C46.1131 37.9487 46.2519 38.6641 46.6178 39.269C46.9837 39.8739 47.553 40.3289 48.2236 40.5525L51.3897 41.6072C52.6484 42.0264 53.7363 42.8445 54.4884 43.9374C55.2405 45.0304 55.6159 46.3387 55.5578 47.6642C55.4996 48.9896 55.011 50.26 54.166 51.2829C53.321 52.3057 52.1657 53.0253 50.875 53.3326V55.0625H47.75V53.3326C46.416 53.0127 45.2284 52.2534 44.3782 51.1768C43.528 50.1003 43.0646 48.7691 43.0625 47.3973V47.25H46.1875V47.3973C46.1884 48.1867 46.5024 48.9436 47.0606 49.5018C47.6188 50.06 48.3756 50.3741 49.165 50.375H49.46C50.1669 50.3749 50.8508 50.1232 51.3892 49.665C51.9276 49.2068 52.2854 48.572 52.3987 47.8741C52.5119 47.1763 52.3731 46.4609 52.0072 45.856C51.6413 45.2511 51.072 44.7961 50.4014 44.5725L47.2354 43.5178C45.9766 43.0986 44.8887 42.2805 44.1366 41.1876C43.3845 40.0946 43.0091 38.7863 43.0672 37.4608C43.1254 36.1354 43.614 34.865 44.459 33.8421C45.304 32.8193 46.4593 32.0997 47.75 31.7924V30.0625H50.875V31.7924C52.209 32.1123 53.3966 32.8716 54.2468 33.9482C55.097 35.0247 55.5604 36.3559 55.5625 37.7277ZM75.875 65.7686V65.9965H72.75V65.7686C72.7496 65.4147 72.6088 65.0755 72.3587 64.8253C72.1085 64.5751 71.7693 64.4344 71.4154 64.434H70.9596C70.659 64.434 70.3671 64.5355 70.1314 64.722C69.8957 64.9086 69.7298 65.1692 69.6607 65.4618C69.5916 65.7544 69.6234 66.0617 69.7507 66.334C69.8781 66.6063 70.0937 66.8276 70.3625 66.9621L73.4094 68.4855C74.2045 68.8829 74.8627 69.5089 75.2995 70.283C75.7363 71.0571 75.9319 71.9441 75.861 72.8302C75.7901 73.7162 75.4561 74.5609 74.9018 75.2557C74.3475 75.9506 73.5981 76.4639 72.75 76.7299V78.4965H69.625V76.7299C68.7196 76.4446 67.9286 75.8784 67.3667 75.1132C66.8048 74.3481 66.5012 73.4239 66.5 72.4746V72.2465H69.625V72.4746C69.6254 72.8284 69.7662 73.1676 70.0164 73.4178C70.2666 73.6679 70.6058 73.8086 70.9596 73.809H71.4154C71.716 73.8089 72.0078 73.7074 72.2435 73.5209C72.4792 73.3343 72.645 73.0736 72.7141 72.7811C72.7832 72.4885 72.7514 72.1812 72.6241 71.9089C72.4967 71.6367 72.2811 71.4153 72.0123 71.2809L68.9654 69.7574C68.1704 69.36 67.5123 68.7341 67.0755 67.9599C66.6387 67.1858 66.4432 66.2989 66.5141 65.4129C66.585 64.5269 66.919 63.6822 67.4733 62.9874C68.0276 62.2926 68.7769 61.7793 69.625 61.5133V59.7465H72.75V61.5133C73.6554 61.7986 74.4464 62.3648 75.0083 63.1299C75.5702 63.8951 75.8738 64.8193 75.875 65.7686ZM29 37.875C28.0729 37.875 27.1666 38.1499 26.3958 38.665C25.6249 39.1801 25.0241 39.9121 24.6693 40.7687C24.3145 41.6252 24.2217 42.5677 24.4026 43.477C24.5834 44.3863 25.0299 45.2215 25.6854 45.8771C26.341 46.5326 27.1762 46.9791 28.0855 47.1599C28.9948 47.3408 29.9373 47.248 30.7938 46.8932C31.6504 46.5384 32.3824 45.9376 32.8975 45.1667C33.4126 44.3959 33.6875 43.4896 33.6875 42.5625C33.6861 41.3197 33.1918 40.1283 32.313 39.2495C31.4342 38.3707 30.2428 37.8764 29 37.875ZM29 44.125C28.691 44.125 28.3889 44.0334 28.1319 43.8617C27.875 43.69 27.6747 43.446 27.5564 43.1604C27.4382 42.8749 27.4072 42.5608 27.4675 42.2577C27.5278 41.9546 27.6766 41.6762 27.8951 41.4576C28.1137 41.2391 28.3921 41.0903 28.6952 41.03C28.9983 40.9697 29.3124 41.0007 29.5979 41.1189C29.8835 41.2372 30.1275 41.4375 30.2992 41.6944C30.4709 41.9514 30.5625 42.2535 30.5625 42.5625C30.562 42.9768 30.3973 43.3739 30.1043 43.6668C29.8114 43.9598 29.4143 44.1245 29 44.125ZM69.625 37.875C68.6979 37.875 67.7916 38.1499 67.0208 38.665C66.2499 39.1801 65.6491 39.9121 65.2943 40.7687C64.9395 41.6252 64.8467 42.5677 65.0276 43.477C65.2084 44.3863 65.6549 45.2215 66.3104 45.8771C66.966 46.5326 67.8012 46.9791 68.7105 47.1599C69.6198 47.3408 70.5623 47.248 71.4188 46.8932C72.2754 46.5384 73.0074 45.9376 73.5225 45.1667C74.0376 44.3959 74.3125 43.4896 74.3125 42.5625C74.3111 41.3197 73.8168 40.1283 72.938 39.2495C72.0593 38.3707 70.8678 37.8764 69.625 37.875ZM69.625 44.125C69.316 44.125 69.0139 44.0334 68.7569 43.8617C68.5 43.69 68.2997 43.446 68.1814 43.1604C68.0632 42.8749 68.0322 42.5608 68.0925 42.2577C68.1528 41.9546 68.3016 41.6762 68.5201 41.4576C68.7387 41.2391 69.0171 41.0903 69.3202 41.03C69.6233 40.9697 69.9374 41.0007 70.2229 41.1189C70.5085 41.2372 70.7525 41.4375 70.9242 41.6944C71.0959 41.9514 71.1875 42.2535 71.1875 42.5625C71.187 42.9768 71.0223 43.3739 70.7293 43.6668C70.4364 43.9598 70.0393 44.1245 69.625 44.125ZM50.875 75.375V72.25H54V75.375H50.875ZM44.625 75.375V72.25H47.75V75.375H44.625ZM32.125 75.375V72.25H41.5V75.375H32.125Z" fill="url(#paint0_linear)"/>
<defs>
<linearGradient id="paint0_linear" x1="-5.35719" y1="75.7191" x2="47.2262" y2="-10.8403" gradientUnits="userSpaceOnUse">
<stop stop-color="#0085FF"/>
<stop offset="0.640625" stop-color="#E63B60"/>
</linearGradient>
</defs>
</svg>
