<svg width="35" height="35" viewBox="0 0 35 35" fill="none" xmlns="http://www.w3.org/2000/svg">
<path d="M19.9745 17.5L24.9253 22.449C25.2536 22.7774 25.4381 23.2227 25.4381 23.6871C25.4381 24.1515 25.2536 24.5969 24.9253 24.9253C24.5969 25.2536 24.1515 25.4381 23.6871 25.4381C23.2227 25.4381 22.7774 25.2536 22.449 24.9253L17.5 19.9745L12.551 24.9253C12.2226 25.2536 11.7773 25.4381 11.3129 25.4381C10.8485 25.4381 10.4031 25.2536 10.0747 24.9253C9.74638 24.5969 9.5619 24.1515 9.5619 23.6871C9.5619 23.4572 9.60719 23.2295 9.69519 23.0171C9.78318 22.8046 9.91216 22.6116 10.0747 22.449L15.0255 17.5L10.0747 12.551C9.74638 12.2226 9.5619 11.7773 9.5619 11.3129C9.5619 11.0829 9.60719 10.8552 9.69519 10.6428C9.78318 10.4304 9.91216 10.2373 10.0747 10.0747C10.2373 9.91216 10.4304 9.78318 10.6428 9.69519C10.8552 9.60719 11.0829 9.5619 11.3129 9.5619C11.7773 9.5619 12.2226 9.74638 12.551 10.0747L17.5 15.0255L22.449 10.0747C22.7774 9.74638 23.2227 9.5619 23.6871 9.5619C24.1515 9.5619 24.5969 9.74638 24.9253 10.0747C25.2536 10.4031 25.4381 10.8485 25.4381 11.3129C25.4381 11.7773 25.2536 12.2226 24.9253 12.551L19.9745 17.5ZM17.5 35C7.83475 35 0 27.1652 0 17.5C0 7.83475 7.83475 0 17.5 0C27.1652 0 35 7.83475 35 17.5C35 27.1652 27.1652 35 17.5 35ZM17.5 31.5C21.213 31.5 24.774 30.025 27.3995 27.3995C30.025 24.774 31.5 21.213 31.5 17.5C31.5 13.787 30.025 10.226 27.3995 7.60051C24.774 4.975 21.213 3.5 17.5 3.5C13.787 3.5 10.226 4.975 7.60051 7.60051C4.975 10.226 3.5 13.787 3.5 17.5C3.5 21.213 4.975 24.774 7.60051 27.3995C10.226 30.025 13.787 31.5 17.5 31.5Z" fill="#333333"/>
</svg>
