<svg width="105" height="37" viewBox="0 0 105 37" fill="none" xmlns="http://www.w3.org/2000/svg">
<g clip-path="url(#clip0)">
<path fill-rule="evenodd" clip-rule="evenodd" d="M45.9638 6.27661C45.9638 6.27661 45.9638 6.27661 48.1723 6.27661C48.977 6.27661 49.3824 6.6689 49.3824 7.55452C49.3824 7.55452 49.3824 7.55452 49.3824 10.6928C49.3824 10.6928 49.3824 10.6928 53.7086 10.6928C53.7086 10.6928 53.7086 10.6928 53.7086 7.55452C53.7086 6.6689 54.108 6.27661 55.0156 6.27661C55.0156 6.27661 55.0156 6.27661 57.1273 6.27661C57.1273 6.27661 57.1273 6.27661 57.1273 8.3391C57.1273 8.3391 57.1273 8.3391 56.2257 8.3391L56.1228 8.44015C56.1228 8.44015 56.1228 8.44015 56.1228 17.2726C56.1228 17.2726 56.1228 17.2726 53.7086 17.2726C53.7086 17.2726 53.7086 17.2726 53.7086 12.8564C53.7086 12.8564 53.7086 12.8564 49.3824 12.8564C49.3824 12.8564 49.3824 12.8564 49.3824 17.2726C49.3824 17.2726 49.3824 17.2726 46.9682 17.2726C46.9682 17.2726 46.9682 17.2726 46.9682 8.44015C46.9682 8.44015 46.9682 8.3391 46.8654 8.3391C46.8654 8.3391 46.8654 8.3391 45.9638 8.3391C45.9638 8.3391 45.9638 8.3391 45.9638 6.27661Z" fill="#ED1C24"/>
<path fill-rule="evenodd" clip-rule="evenodd" d="M63.4622 6.08032L63.5167 6.08626V8.35084L63.4622 8.33896C61.6531 8.33896 60.2433 9.81301 60.2433 11.6794C60.2433 13.6408 61.6531 15.21 63.4622 15.21L63.5167 15.1981V17.4626L63.4622 17.4686C60.2433 17.4686 57.6294 14.9187 57.6294 11.6794C57.6294 8.5351 60.2433 6.08032 63.4622 6.08032Z" fill="#ED1C24"/>
<path fill-rule="evenodd" clip-rule="evenodd" d="M63.5167 6.08643L64.6361 6.19342C67.2923 6.70458 69.2951 8.92755 69.2951 11.6795C69.2951 14.5088 67.2923 16.8209 64.6361 17.3499L63.5167 17.4628V15.1982L64.745 14.9367C65.9309 14.4018 66.7841 13.1476 66.7841 11.6795C66.7841 10.2768 65.9309 9.09992 64.745 8.60065L63.5167 8.35101V6.08643Z" fill="#ED1C24"/>
<path fill-rule="evenodd" clip-rule="evenodd" d="M69.7973 6.27661C69.7973 6.27661 69.7973 6.27661 73.1675 6.27661H74.777V8.3391H74.6257C74.4261 8.3391 74.0207 8.3391 73.2159 8.3391C73.2159 8.3391 73.2159 8.3391 73.2159 10.5977C73.2159 10.5977 73.2159 10.5977 73.8996 10.5977H74.777V12.5592H74.2627C74.0086 12.5592 73.6697 12.5592 73.2159 12.5592C73.2159 12.5592 73.2159 12.5592 73.2159 15.014C73.2159 15.115 73.2159 15.115 73.3188 15.115C73.3188 15.115 73.3188 15.115 74.0388 15.115H74.777V17.2726H74.5652C74.2022 17.2726 73.4701 17.2726 72.0118 17.2726C71.2071 17.2726 70.8078 16.8803 70.8078 15.9947V8.3391C70.8078 8.3391 70.8078 8.3391 69.7973 8.3391C69.7973 8.3391 69.7973 8.3391 69.7973 6.27661Z" fill="#ED1C24"/>
<path fill-rule="evenodd" clip-rule="evenodd" d="M74.777 6.27661H74.8254C77.0399 6.27661 78.3469 7.45348 78.3469 9.22473C78.3469 10.3006 77.8447 10.99 77.3424 11.4834C78.25 11.8757 78.8491 12.8564 78.8491 13.9322C78.8491 15.9947 77.2396 17.2726 74.9282 17.2726C74.9282 17.2726 74.9282 17.2726 74.8859 17.2726H74.777V15.115H75.0251C75.8298 15.115 76.338 14.6217 76.338 13.8371C76.338 13.0525 75.8298 12.5592 75.0251 12.5592C75.0251 12.5592 75.0251 12.5592 74.8012 12.5592H74.777V10.5977H74.8254C75.5333 10.5977 75.9326 10.1044 75.9326 9.42087C75.9326 8.73139 75.5333 8.3391 74.8254 8.3391C74.8254 8.3391 74.8254 8.3391 74.8012 8.3391H74.777V6.27661Z" fill="#ED1C24"/>
<path fill-rule="evenodd" clip-rule="evenodd" d="M83.4779 6.27661C83.4779 6.27661 83.4779 6.27661 84.4944 6.27661H84.6819V9.42087C84.5851 9.61702 84.4823 9.90826 84.4823 10.2054C84.4823 10.2054 84.4823 10.2054 83.6775 12.4641C83.6775 12.4641 83.6775 12.4641 84.5307 12.4641H84.6819V14.5206H84.1374C83.8288 14.5206 83.4778 14.5206 83.0785 14.5206C83.0785 14.5206 83.0785 14.5206 82.3706 16.2919C82.1709 16.9754 81.7716 17.2726 80.9668 17.2726C80.9668 17.2726 80.9668 17.2726 79.4542 17.2726C79.4542 17.2726 79.4542 17.2726 79.4542 15.115C79.4542 15.115 79.4542 15.115 79.9564 15.115C80.1621 15.115 80.1621 15.115 80.2589 15.014C80.2589 15.014 80.2589 15.014 83.4779 6.27661Z" fill="#ED1C24"/>
<path fill-rule="evenodd" clip-rule="evenodd" d="M84.6819 6.27661H85.8921C85.8921 6.27661 85.8921 6.27661 89.111 15.014C89.2078 15.115 89.2078 15.115 89.4075 15.115C89.4075 15.115 89.4075 15.115 89.8129 15.115C89.8129 15.115 89.8129 15.115 89.8129 17.2726C89.8129 17.2726 89.8129 17.2726 88.4031 17.2726C87.5984 17.2726 87.199 16.9754 86.9933 16.1908C86.9933 16.1908 86.9933 16.1908 86.2914 14.5206C86.2914 14.5206 86.2914 14.5206 84.9361 14.5206H84.6819V12.4641H85.6864C85.6864 12.4641 85.6864 12.4641 84.8877 10.2054C84.8877 9.90826 84.7848 9.61702 84.6819 9.42087V6.27661Z" fill="#ED1C24"/>
<path fill-rule="evenodd" clip-rule="evenodd" d="M45.9638 20.4109C45.9638 20.4109 45.9638 20.4109 54.713 20.4109C55.5178 20.4109 56.02 20.8032 56.02 21.6888C56.02 21.6888 56.02 21.6888 56.02 29.1482C56.02 29.2433 56.02 29.2433 56.1229 29.2433C56.1229 29.2433 56.1228 29.2433 56.9276 29.2433C56.9276 29.2433 56.9276 29.2433 56.9276 31.4069C56.9276 31.4069 56.9276 31.4069 54.8159 31.4069C53.9083 31.4069 53.509 31.0146 53.509 30.129C53.509 30.129 53.509 30.129 53.509 22.5744C53.509 22.5744 53.509 22.4734 53.4061 22.4734C53.4061 22.4734 53.4061 22.4734 49.3824 22.4734C49.3824 22.4734 49.3824 22.4734 49.3824 31.4069C49.3824 31.4069 49.3824 31.4069 46.9682 31.4069C46.9682 31.4069 46.9682 31.4069 46.9682 22.4734C46.9682 22.4734 46.9682 22.4734 45.9638 22.4734C45.9638 22.4734 45.9638 22.4734 45.9638 20.4109Z" fill="#ED1C24"/>
<path fill-rule="evenodd" clip-rule="evenodd" d="M63.2626 20.2148L63.311 20.2208V22.4854L63.2626 22.4735C61.4474 22.4735 60.0436 23.9475 60.0436 25.8139C60.0436 27.7753 61.4474 29.3445 63.2626 29.3445L63.311 29.3326V31.5972L63.2626 31.6031C60.0436 31.6031 57.5266 29.0473 57.5266 25.8139C57.5266 22.6696 60.0436 20.2148 63.2626 20.2148Z" fill="#ED1C24"/>
<path fill-rule="evenodd" clip-rule="evenodd" d="M63.311 20.2207L64.4666 20.3277C67.1713 20.8389 69.0954 23.0618 69.0954 25.8138C69.0954 28.643 67.1713 30.9552 64.4666 31.4842L63.311 31.5971V29.3325L64.5877 29.071C65.7917 28.536 66.5844 27.2819 66.5844 25.8138C66.5844 24.4111 65.7917 23.2342 64.5877 22.7349L63.311 22.4853V20.2207Z" fill="#ED1C24"/>
<path fill-rule="evenodd" clip-rule="evenodd" d="M69.5976 20.4109C69.5976 20.4109 69.5976 20.4109 71.8121 20.4109C72.6169 20.4109 73.0162 20.8032 73.0162 21.6888C73.0162 21.6888 73.0162 21.6888 73.0162 29.1482C73.0162 29.2433 73.0162 29.2433 73.1191 29.2433C73.1191 29.2433 73.1191 29.2433 76.0355 29.2433C76.0355 29.2433 76.0355 29.2433 76.0355 20.4109C76.0355 20.4109 76.0355 20.4109 78.4497 20.4109C78.4497 20.4109 78.4497 20.4109 78.4497 29.2433C78.4497 29.2433 78.4497 29.2433 81.3661 29.2433C81.469 29.2433 81.469 29.2433 81.469 29.1482C81.469 29.1482 81.469 29.1482 81.469 21.6888C81.469 20.8032 81.8683 20.4109 82.6731 20.4109C82.6731 20.4109 82.6731 20.4109 84.8876 20.4109C84.8876 20.4109 84.8876 20.4109 84.8876 22.4734C84.8876 22.4734 84.8876 22.4734 83.98 22.4734C83.8771 22.4734 83.8771 22.5744 83.8771 22.5744C83.8771 22.5744 83.8771 22.5744 83.8771 30.129C83.8771 31.0146 83.4778 31.4069 82.6731 31.4069C82.6731 31.4069 82.6731 31.4069 71.9089 31.4069C71.0074 31.4069 70.602 31.0146 70.602 30.129C70.602 30.129 70.602 30.129 70.602 22.5744C70.602 22.5744 70.602 22.4734 70.5052 22.4734C70.5052 22.4734 70.5052 22.4734 69.5976 22.4734C69.5976 22.4734 69.5976 22.4734 69.5976 20.4109Z" fill="#ED1C24"/>
<path fill-rule="evenodd" clip-rule="evenodd" d="M86.7935 20.4109C86.7935 20.4109 86.7935 20.4109 94.3387 20.4109C95.2463 20.4109 95.5488 20.8032 95.5488 21.5878C95.5488 21.5878 95.5488 21.5878 95.5488 23.4541H93.3343C93.3343 23.4541 93.3343 23.4541 93.3343 22.5744C93.3343 22.4734 93.3343 22.4734 93.2314 22.4734C93.2314 22.4734 93.2314 22.4734 91.8277 22.4734C91.8277 22.4734 91.8277 22.4734 91.8277 31.4069C91.8277 31.4069 91.8277 31.4069 89.4074 31.4069C89.4074 31.4069 89.4074 31.4069 89.4074 22.4734C89.4074 22.4734 89.4074 22.4734 88.0037 22.4734C87.9008 22.4734 87.9008 22.4734 87.9008 22.5744C87.9008 22.5744 87.9008 22.5744 87.9008 23.4541C87.9008 23.4541 87.9008 23.4541 85.6863 23.4541C85.6863 23.4541 85.6863 23.4541 85.6863 21.5878C85.6863 20.8032 85.9888 20.4109 86.7935 20.4109Z" fill="#ED1C24"/>
<path fill-rule="evenodd" clip-rule="evenodd" d="M98.6649 20.4109C98.6649 20.4109 98.6649 20.4109 99.6814 20.4109H99.869V23.5551C99.7661 23.7513 99.6693 24.0425 99.6693 24.3397C99.6693 24.3397 99.6693 24.3397 98.8646 26.5984C98.8646 26.5984 98.8646 26.5984 99.7117 26.5984H99.869V28.6549H99.3244C99.0159 28.6549 98.6649 28.6549 98.2595 28.6549C98.2595 28.6549 98.2595 28.6549 97.5576 30.3251C97.358 31.1097 96.9526 31.4069 96.1478 31.4069C96.1478 31.4069 96.1478 31.4069 94.6412 31.4069C94.6412 31.4069 94.6412 31.4069 94.6412 29.2433C94.6412 29.2433 94.6412 29.2433 95.1434 29.2433C95.3492 29.2433 95.3492 29.2433 95.446 29.1482C95.446 29.1482 95.446 29.1482 98.6649 20.4109Z" fill="#ED1C24"/>
<path fill-rule="evenodd" clip-rule="evenodd" d="M99.869 20.4109H101.073C101.073 20.4109 101.073 20.4109 104.298 29.1482C104.395 29.2433 104.395 29.2433 104.601 29.2433H105C105 29.2433 105 29.2433 105 31.4069C105 31.4069 105 31.4069 103.59 31.4069C102.785 31.4069 102.386 31.1097 102.18 30.3251C102.18 30.3251 102.18 30.3251 101.478 28.6549C101.478 28.6549 101.478 28.6549 100.123 28.6549H99.869V26.5984H100.873C100.873 26.5984 100.873 26.5984 100.069 24.3397C100.069 24.0425 99.9719 23.7513 99.869 23.5551V20.4109Z" fill="#ED1C24"/>
<path fill-rule="evenodd" clip-rule="evenodd" d="M30.462 10.9544C30.5769 10.9187 30.7282 10.9901 30.8795 11.1862C30.8795 11.1862 30.8795 11.1862 37.7167 17.76C38.1161 18.1523 38.1161 18.7467 37.7167 19.0379C37.7167 19.0379 37.7167 19.0379 30.8795 25.7128C30.7282 25.9089 30.5769 25.9565 30.462 25.897C30.347 25.8376 30.2744 25.6652 30.2744 25.4156V11.3823C30.2744 11.1386 30.347 10.9901 30.462 10.9544Z" fill="#ED1C24"/>
<path fill-rule="evenodd" clip-rule="evenodd" d="M18.7661 0H19.2501L19.716 0.190202C19.716 0.190202 19.716 0.190201 26.7529 7.0612C27.0555 7.45349 26.9526 7.75068 26.4504 7.75068C26.4504 7.75068 26.4504 7.75068 23.534 7.75068C23.0318 7.75068 22.6324 8.14297 22.6324 8.6363C22.6324 8.6363 22.6324 8.6363 22.6324 13.7361C22.6324 14.2294 22.2271 14.6217 21.622 14.6217C21.622 14.6217 21.622 14.6217 16.4971 14.6217C15.9949 14.6217 15.5895 14.2294 15.5895 13.7361C15.5895 13.7361 15.5895 13.7361 15.5895 8.6363C15.5895 8.14297 15.1901 7.75068 14.6819 7.75068H11.5658C11.0636 7.75068 10.9607 7.45349 11.2633 7.0612C11.2633 7.0612 11.2633 7.0612 18.3062 0.190202L18.7661 0Z" fill="#ED1C24"/>
<path fill-rule="evenodd" clip-rule="evenodd" d="M7.74181 10.8057C7.86887 10.8651 7.94753 11.0375 7.94753 11.2871V25.6116C7.94753 25.8613 7.86887 26.0099 7.74181 26.0574C7.6208 26.105 7.44533 26.0574 7.23961 25.9088C7.23961 25.9088 7.2396 25.9088 0.299507 19.0378C-0.0998358 18.7466 -0.0998358 18.1522 0.299507 17.7599C0.299507 17.7599 0.299508 17.7599 7.23961 10.9899C7.44533 10.7938 7.6208 10.7462 7.74181 10.8057Z" fill="#ED1C24"/>
<path fill-rule="evenodd" clip-rule="evenodd" d="M16.4971 22.0813C16.4971 22.0813 16.4971 22.0813 21.622 22.0813C22.2271 22.0813 22.6325 22.4736 22.6325 22.9669C22.6325 22.9669 22.6325 22.9669 22.6325 28.3639C22.6325 28.9523 23.0318 29.3446 23.534 29.3446H26.2508C26.753 29.3446 26.9526 29.6358 26.5533 29.933C26.5533 29.933 26.5533 29.933 19.716 36.703C19.5103 36.8991 19.2622 37.0002 19.0081 37.0002C18.76 37.0002 18.5059 36.8991 18.3062 36.703C18.3062 36.703 18.3062 36.703 11.469 29.933C11.0636 29.6358 11.2633 29.3446 11.7655 29.3446C11.7655 29.3446 11.7655 29.3446 14.6819 29.3446C15.1902 29.3446 15.5895 28.9523 15.5895 28.3639C15.5895 28.3639 15.5895 28.3639 15.5895 22.9669C15.5895 22.4736 15.9949 22.0813 16.4971 22.0813Z" fill="#ED1C24"/>
</g>
<defs>
<clipPath id="clip0">
<rect width="105" height="37" fill="white"/>
</clipPath>
</defs>
</svg>
