<svg width="240" height="22" viewBox="0 0 240 22" fill="none" xmlns="http://www.w3.org/2000/svg">
<path fill-rule="evenodd" clip-rule="evenodd" d="M16.1438 15.5834V7.90542C16.1438 5.72742 15.0004 4.69342 13.0804 4.69342C11.484 4.69342 10.1034 5.66142 9.49931 6.62942C9.11099 5.41942 8.1402 4.69342 6.60852 4.69342C5.01212 4.69342 3.63144 5.70542 3.19998 6.34342V4.95742H0.460205V15.5834H3.19998V8.43342C3.60987 7.83942 4.40807 7.17942 5.35728 7.17942C6.47908 7.17942 6.91054 7.88342 6.91054 8.87342V15.5834H9.67189V8.41142C10.0602 7.83942 10.8584 7.17942 11.8292 7.17942C12.951 7.17942 13.3825 7.88342 13.3825 8.87342V15.5834H16.1438ZM23.6728 15.8474C20.2427 15.8474 18.1717 13.2954 18.1717 10.2594C18.1717 7.24542 20.2427 4.69342 23.6728 4.69342C27.1245 4.69342 29.1955 7.24542 29.1955 10.2594C29.1955 13.2954 27.1245 15.8474 23.6728 15.8474ZM23.6728 13.3614C25.3771 13.3614 26.3478 11.9314 26.3478 10.2594C26.3478 8.60942 25.3771 7.17942 23.6728 7.17942C21.9685 7.17942 21.0193 8.60942 21.0193 10.2594C21.0193 11.9314 21.9685 13.3614 23.6728 13.3614ZM40.9959 15.5834V8.08142C40.9959 6.01342 39.8957 4.69342 37.609 4.69342C35.9047 4.69342 34.6319 5.52942 33.9631 6.34342V4.95742H31.2233V15.5834H33.9631V8.43342C34.4162 7.79542 35.2575 7.17942 36.3362 7.17942C37.5011 7.17942 38.2562 7.68542 38.2562 9.15942V15.5834H40.9959ZM48.5465 15.8474C45.1164 15.8474 43.0454 13.2954 43.0454 10.2594C43.0454 7.24542 45.1164 4.69342 48.5465 4.69342C51.9982 4.69342 54.0692 7.24542 54.0692 10.2594C54.0692 13.2954 51.9982 15.8474 48.5465 15.8474ZM48.5465 13.3614C50.2508 13.3614 51.2215 11.9314 51.2215 10.2594C51.2215 8.60942 50.2508 7.17942 48.5465 7.17942C46.8422 7.17942 45.893 8.60942 45.893 10.2594C45.893 11.9314 46.8422 13.3614 48.5465 13.3614ZM58.8368 12.1734C59.2899 12.8554 60.3038 13.3614 61.1883 13.3614C62.7847 13.3614 63.8418 12.1294 63.8418 10.2814C63.8418 8.43342 62.7847 7.17942 61.1883 7.17942C60.3038 7.17942 59.2899 7.70742 58.8368 8.41142V12.1734ZM58.8368 15.5834H56.0971V0.909424H58.8368V6.32142C59.6566 5.24342 60.8215 4.69342 62.0512 4.69342C64.7047 4.69342 66.6678 6.80542 66.6678 10.2814C66.6678 13.8234 64.6831 15.8474 62.0512 15.8474C60.8 15.8474 59.6566 15.2754 58.8368 14.2194V15.5834ZM77.7348 15.5834H74.995V14.4834C74.2831 15.3414 73.0535 15.8474 71.6944 15.8474C70.0332 15.8474 68.0701 14.7034 68.0701 12.3274C68.0701 9.84142 70.0332 8.89542 71.6944 8.89542C73.075 8.89542 74.3047 9.35742 74.995 10.1934V8.76342C74.995 7.68542 74.089 6.98142 72.7083 6.98142C71.5865 6.98142 70.551 7.39942 69.6665 8.23542L68.631 6.36542C69.9038 5.22142 71.5434 4.69342 73.1829 4.69342C75.5559 4.69342 77.7348 5.66142 77.7348 8.71942V15.5834ZM72.7946 13.9554C73.6791 13.9554 74.542 13.6474 74.995 13.0314V11.7114C74.542 11.0954 73.6791 10.7874 72.7946 10.7874C71.7159 10.7874 70.8314 11.3594 70.8314 12.3934C70.8314 13.3834 71.7159 13.9554 72.7946 13.9554ZM90.2256 15.5834V8.08142C90.2256 6.01342 89.1254 4.69342 86.8386 4.69342C85.1344 4.69342 83.8615 5.52942 83.1928 6.34342V4.95742H80.453V15.5834H83.1928V8.43342C83.6458 7.79542 84.4872 7.17942 85.5658 7.17942C86.7308 7.17942 87.4858 7.68542 87.4858 9.15942V15.5834H90.2256ZM103.126 15.5834L98.8764 9.77542L102.997 4.95742H99.6314L95.6836 9.68742V0.909424H92.9438V15.5834H95.6836V12.8554L96.9348 11.4914L99.6962 15.5834H103.126Z" fill="black"/>
<path fill-rule="evenodd" clip-rule="evenodd" d="M231.701 2.91673H233.945V10.1969H234.072L236.991 6.69982L239.061 6.69432L235.859 10.5168L239.716 15.2972H237.131L233.978 10.8477H233.945V15.2972H231.701V2.91673ZM125.002 3.4704V10.2592C125.002 12.572 125.674 13.8361 127.555 13.8361C129.356 13.8361 130.076 12.3034 130.076 10.3931V3.4704H132.197V10.8156C132.197 13.8021 130.279 15.4943 127.489 15.4943C124.294 15.4943 122.633 13.9204 122.633 10.6974V3.4704H125.002ZM137.155 7.84382C137.915 7.0344 138.972 6.64573 140.032 6.64573C141.999 6.64573 143.04 7.72373 143.04 9.85132V15.2899H140.808V10.1071C140.808 8.92365 140.288 8.14632 139.125 8.14632C138.032 8.14632 137.174 8.87323 137.174 10.2592V15.2899H134.939V6.84648H137.155V7.84382ZM145.667 15.2899H147.902V6.84648H145.667V15.2899ZM145.447 4.31465C145.447 3.6739 145.984 3.0139 146.743 3.0139C147.516 3.0139 148.119 3.65648 148.119 4.31465C148.119 5.03973 147.601 5.73273 146.776 5.73273C145.985 5.73273 145.447 5.03973 145.447 4.31465ZM152.848 15.2899L149.27 6.81073H151.639C152.363 8.75315 153.115 10.5801 153.819 12.9267H153.853C154.613 10.5801 155.328 8.75315 156.1 6.81073H158.197L154.409 15.2899H152.848ZM164.849 10.0566C164.936 8.76965 164.481 7.89423 163.374 7.89423C162.092 7.89423 161.516 8.92365 161.541 10.0566H164.849ZM161.504 11.2722C161.453 12.8607 162.563 14.0405 163.958 14.0405C164.787 14.0405 165.657 13.7536 166.214 13.364L166.852 14.5474C165.709 15.2221 164.513 15.4943 163.556 15.4943C161.017 15.4943 159.118 13.6857 159.118 10.9C159.118 8.29848 160.999 6.64573 163.404 6.64573C166.027 6.64573 167.121 8.75498 166.956 11.2722H161.504ZM171.343 8.3324H171.374L171.829 7.67423C172.079 7.30115 172.584 6.64573 173.274 6.64573C173.778 6.64573 174.318 6.91615 174.789 7.40382L173.946 8.95757C173.577 8.76965 173.34 8.67065 172.889 8.67065C172.115 8.67065 171.359 9.29582 171.359 11.1181V15.2899H169.116V6.84648H171.343V8.3324ZM180.757 8.43323C180.253 8.06198 179.732 7.89423 179.326 7.89423C178.822 7.89423 178.317 8.18023 178.317 8.75498C178.317 9.43057 179.126 9.82015 180.067 10.5095C181.264 11.4087 181.613 12.286 181.613 13.0587C181.613 14.2449 180.317 15.4943 178.471 15.4943C177.31 15.4943 176.453 15.0873 175.665 14.5309L176.37 13.364C176.872 13.7719 177.594 14.1743 178.198 14.1743C178.841 14.1743 179.41 13.8361 179.41 13.1275C179.41 12.3336 178.535 11.8955 177.73 11.3207C176.771 10.6635 176.118 10.0209 176.118 8.9759C176.118 7.6394 177.392 6.64573 179.039 6.64573C179.968 6.64573 180.873 6.8804 181.482 7.42307L180.757 8.43323ZM187.126 10.7982C186.035 11.153 185.48 11.7772 185.48 12.7388C185.48 13.4831 185.951 13.9901 186.493 13.9901C187.381 13.9901 188.542 12.8745 188.376 10.3931L187.126 10.7982ZM187.836 14.4805C187.23 14.9874 186.457 15.4943 185.685 15.4943C184.373 15.4943 183.276 14.4805 183.276 12.9267C183.276 11.3207 184.44 10.427 186.391 9.85132L188.376 9.26007C188.259 8.48457 187.567 7.99598 186.848 7.99598C185.886 7.99598 185.213 8.35073 184.625 8.85765L183.899 7.7934C184.945 6.93265 185.968 6.64573 187.126 6.64573C188.677 6.64573 190.578 7.14898 190.578 9.78623V13.2292C190.578 13.9057 190.66 14.7014 190.931 15.2899H188.561C188.388 15.0021 188.341 14.5144 188.341 14.0579L187.836 14.4805ZM193.083 15.2899H195.321V2.87915H193.083V15.2899ZM215.126 10.7982C214.031 11.153 213.477 11.7772 213.477 12.7388C213.477 13.4831 213.945 13.9901 214.486 13.9901C215.373 13.9901 216.536 12.8745 216.372 10.3931L215.126 10.7982ZM215.827 14.4805C215.225 14.9874 214.45 15.4943 213.676 15.4943C212.367 15.4943 211.271 14.4805 211.271 12.9267C211.271 11.3207 212.432 10.427 214.386 9.85132L216.372 9.26007C216.249 8.48457 215.563 7.99598 214.835 7.99598C213.88 7.99598 213.205 8.35073 212.618 8.85765L211.894 7.7934C212.937 6.93265 213.964 6.64573 215.126 6.64573C216.67 6.64573 218.568 7.14898 218.568 9.78623V13.2292C218.568 13.9057 218.652 14.7014 218.92 15.2899H216.553C216.387 15.0021 216.331 14.5144 216.331 14.0579L215.827 14.4805ZM223.294 7.84382C224.052 7.0344 225.113 6.64573 226.171 6.64573C228.138 6.64573 229.179 7.72373 229.179 9.85132V15.2899H226.944V10.1071C226.944 8.92365 226.422 8.14632 225.262 8.14632C224.168 8.14632 223.311 8.87323 223.311 10.2592V15.2899H221.076V6.84648H223.294V7.84382ZM203.479 13.8681H204.689C206.001 13.8681 206.996 13.177 206.996 11.8616C206.996 10.4756 205.969 9.88523 204.675 9.88523H203.479V13.8681ZM203.479 8.43323H204.222C205.586 8.43323 206.511 7.55598 206.511 6.45598C206.511 5.41098 205.734 4.95632 204.709 4.95632H203.478V8.43323H203.479ZM201.11 15.322V3.50248H205.365C207.347 3.50248 208.745 4.41365 208.745 6.01782C208.745 7.90798 207.215 8.68715 206.392 8.90532V8.93923C207.855 9.00798 209.484 10.0191 209.484 11.8258C209.484 13.8681 207.784 15.322 205.014 15.322H201.11Z" fill="black" fill-opacity="0.75"/>
<path fill-rule="evenodd" clip-rule="evenodd" d="M112.359 0H113.258V22H112.359V0Z" fill="black"/>
</svg>
