<svg width="100" height="100" viewBox="0 0 100 100" fill="none" xmlns="http://www.w3.org/2000/svg">
<g clip-path="url(#clip0)">
<path d="M95.9822 62.8132L90.2097 58.4839L87.2019 43.4448C87.1312 43.0905 86.9399 42.7716 86.6605 42.5425C86.3811 42.3134 86.031 42.1882 85.6697 42.1882H84.0072C86.3353 39.5918 87.8928 36.3973 88.5043 32.964C89.1158 29.5307 88.7571 25.9948 87.4685 22.7543C86.18 19.5138 84.0127 16.6971 81.2105 14.6212C78.4084 12.5453 75.0825 11.2925 71.6072 11.0038V9.10692C72.6497 8.73833 73.5284 8.01306 74.0879 7.05929C74.6473 6.10553 74.8517 4.98467 74.6647 3.89483C74.4777 2.805 73.9114 1.81635 73.066 1.10363C72.2206 0.390906 71.1504 0 70.0447 0C68.9389 0 67.8688 0.390906 67.0233 1.10363C66.1779 1.81635 65.6117 2.805 65.4247 3.89483C65.2377 4.98467 65.442 6.10553 66.0015 7.05929C66.561 8.01306 67.4397 8.73833 68.4822 9.10692V11.0038C64.3997 11.3432 60.542 13.0153 57.5031 15.7624C57.4573 15.7959 57.4133 15.8318 57.3714 15.87C57.3286 15.9096 57.288 15.9515 57.2498 15.9956C53.8473 19.1665 51.7476 23.4909 51.3603 28.1257H10.6697C10.2553 28.1257 9.85785 28.2903 9.56482 28.5833C9.2718 28.8763 9.10718 29.2738 9.10718 29.6882V48.4382H4.41968C4.00528 48.4382 3.60785 48.6028 3.31482 48.8958C3.0218 49.1888 2.85718 49.5863 2.85718 50.0007C2.85718 50.4151 3.0218 50.8125 3.31482 51.1055C3.60785 51.3986 4.00528 51.5632 4.41968 51.5632H9.10718V54.6882H5.98218C5.56778 54.6882 5.17035 54.8528 4.87732 55.1458C4.5843 55.4388 4.41968 55.8363 4.41968 56.2507C4.41968 56.6651 4.5843 57.0625 4.87732 57.3555C5.17035 57.6486 5.56778 57.8132 5.98218 57.8132H9.10718V60.9382H7.54468C7.13028 60.9382 6.73285 61.1028 6.43982 61.3958C6.1468 61.6888 5.98218 62.0863 5.98218 62.5007C5.98218 62.9151 6.1468 63.3125 6.43982 63.6055C6.73285 63.8986 7.13028 64.0632 7.54468 64.0632H9.10718V79.6882C9.10718 80.1026 9.2718 80.5 9.56482 80.793C9.85785 81.0861 10.2553 81.2507 10.6697 81.2507H15.5144C15.874 83.0157 16.8324 84.6023 18.2274 85.7418C19.6225 86.8813 21.3684 87.5037 23.1697 87.5037C24.971 87.5037 26.7169 86.8813 28.1119 85.7418C29.507 84.6023 30.4654 83.0157 30.825 81.2507H76.4519C76.8115 83.0157 77.7699 84.6023 79.1649 85.7418C80.56 86.8813 82.3059 87.5037 84.1072 87.5037C85.9085 87.5037 87.6544 86.8813 89.0494 85.7418C90.4445 84.6023 91.4029 83.0157 91.7625 81.2507H95.0447C95.4591 81.2507 95.8565 81.0861 96.1495 80.793C96.4426 80.5 96.6072 80.1026 96.6072 79.6882V64.0632C96.6072 63.8206 96.5507 63.5814 96.4422 63.3644C96.3337 63.1474 96.1762 62.9587 95.9822 62.8132ZM86.8886 57.8132H77.8572V51.5632H85.6386L86.8886 57.8132ZM70.0447 3.12567C70.3537 3.12567 70.6558 3.21731 70.9128 3.389C71.1697 3.56069 71.37 3.80472 71.4882 4.09022C71.6065 4.37573 71.6374 4.6899 71.5772 4.993C71.5169 5.29609 71.3681 5.5745 71.1495 5.79302C70.931 6.01154 70.6526 6.16036 70.3495 6.22064C70.0464 6.28093 69.7322 6.24999 69.4467 6.13173C69.1612 6.01347 68.9172 5.8132 68.7455 5.55625C68.5738 5.29929 68.4822 4.9972 68.4822 4.68817C68.4826 4.27391 68.6474 3.87675 68.9403 3.58383C69.2333 3.2909 69.6304 3.12613 70.0447 3.12567V3.12567ZM37.2322 31.2507H43.4822V45.3132H37.2322V31.2507ZM23.1697 84.3757C22.2426 84.3757 21.3363 84.1008 20.5654 83.5857C19.7946 83.0706 19.1938 82.3385 18.839 81.482C18.4842 80.6255 18.3914 79.683 18.5722 78.7737C18.7531 77.8644 19.1996 77.0292 19.8551 76.3736C20.5107 75.7181 21.3459 75.2716 22.2552 75.0907C23.1645 74.9099 24.107 75.0027 24.9635 75.3575C25.82 75.7123 26.5521 76.3131 27.0672 77.0839C27.5823 77.8548 27.8572 78.7611 27.8572 79.6882C27.8557 80.9309 27.3614 82.1224 26.4826 83.0011C25.6039 83.8799 24.4124 84.3742 23.1697 84.3757V84.3757ZM43.4822 78.1257H37.2322V64.0632H43.4822V78.1257ZM68.4822 78.1257H46.6072V62.5007C46.6072 62.0863 46.4426 61.6888 46.1495 61.3958C45.8565 61.1028 45.4591 60.9382 45.0447 60.9382H35.6697C35.2553 60.9382 34.8578 61.1028 34.5648 61.3958C34.2718 61.6888 34.1072 62.0863 34.1072 62.5007V78.1257H30.8259C30.4664 76.3606 29.5079 74.7741 28.1129 73.6346C26.7179 72.4951 24.9719 71.8726 23.1707 71.8726C21.3694 71.8726 19.6234 72.4951 18.2284 73.6346C16.8334 74.7741 15.8749 76.3606 15.5154 78.1257H12.2322V64.0632H20.0447C20.4591 64.0632 20.8565 63.8986 21.1495 63.6055C21.4426 63.3125 21.6072 62.9151 21.6072 62.5007C21.6072 62.0863 21.4426 61.6888 21.1495 61.3958C20.8565 61.1028 20.4591 60.9382 20.0447 60.9382H12.2322V57.8132H18.4822C18.8966 57.8132 19.294 57.6486 19.587 57.3555C19.8801 57.0625 20.0447 56.6651 20.0447 56.2507C20.0447 55.8363 19.8801 55.4388 19.587 55.1458C19.294 54.8528 18.8966 54.6882 18.4822 54.6882H12.2322V51.5632H16.9197C17.3341 51.5632 17.7315 51.3986 18.0245 51.1055C18.3176 50.8125 18.4822 50.4151 18.4822 50.0007C18.4822 49.5863 18.3176 49.1888 18.0245 48.8958C17.7315 48.6028 17.3341 48.4382 16.9197 48.4382H12.2322V31.2507H34.1072V46.8757C34.1072 47.2901 34.2718 47.6875 34.5648 47.9805C34.8578 48.2736 35.2553 48.4382 35.6697 48.4382H45.0447C45.4591 48.4382 45.8565 48.2736 46.1495 47.9805C46.4426 47.6875 46.6072 47.2901 46.6072 46.8757V31.2507H51.3603C51.7356 35.6659 53.6601 39.8062 56.7934 42.9395C59.9267 46.0728 64.067 47.9972 68.4822 48.3725V78.1257ZM54.4197 29.6882C54.4198 28.2011 54.633 26.7218 55.0527 25.2952L56.7601 25.9876C56.9503 26.0647 57.1537 26.1037 57.3589 26.1022C57.5641 26.1008 57.767 26.0589 57.9561 25.979C58.1451 25.8991 58.3165 25.7828 58.4606 25.6366C58.6046 25.4905 58.7185 25.3174 58.7957 25.1272C58.8728 24.9371 58.9118 24.7336 58.9103 24.5284C58.9088 24.3232 58.8669 24.1203 58.7871 23.9313C58.7072 23.7423 58.5908 23.5708 58.4447 23.4268C58.2985 23.2827 58.1255 23.1688 57.9353 23.0917L56.2304 22.4003C56.8232 21.2817 57.5492 20.239 58.3925 19.2948L59.9222 20.9626C60.0602 21.1163 60.2273 21.2412 60.4139 21.33C60.6005 21.4187 60.8028 21.4696 61.0092 21.4796C61.2155 21.4896 61.4219 21.4586 61.6162 21.3884C61.8105 21.3182 61.9889 21.2101 62.1412 21.0705C62.2934 20.9308 62.4165 20.7624 62.5032 20.5748C62.59 20.3873 62.6386 20.1845 62.6464 19.978C62.6543 19.7715 62.621 19.5656 62.5487 19.372C62.4764 19.1785 62.3664 19.0012 62.2251 18.8505L60.6929 17.18C61.6641 16.4528 62.7165 15.8412 63.8291 15.3573L64.5126 17.4977C64.6387 17.8925 64.9164 18.221 65.2847 18.411C65.653 18.6011 66.0816 18.637 66.4764 18.5109C66.8712 18.3849 67.1997 18.1072 67.3897 17.7389C67.5797 17.3706 67.6157 16.9419 67.4896 16.5472L66.806 14.404C69.9653 13.7346 73.2544 14.0606 76.2209 15.3371C79.1874 16.6137 81.6854 18.778 83.3714 21.5324C85.0573 24.2869 85.8484 27.496 85.6358 30.7185C85.4231 33.9409 84.2172 37.0183 82.1839 39.5273C80.1506 42.0363 77.3898 43.8536 74.2814 44.7293C71.1729 45.605 67.8695 45.4959 64.8255 44.4172C61.7815 43.3385 59.1466 41.3431 57.2832 38.7055C55.4197 36.0678 54.4194 32.9176 54.4197 29.6882ZM84.1072 84.3757C83.1801 84.3757 82.2738 84.1008 81.5029 83.5857C80.7321 83.0706 80.1313 82.3385 79.7765 81.482C79.4217 80.6255 79.3289 79.683 79.5097 78.7737C79.6906 77.8644 80.1371 77.0292 80.7926 76.3736C81.4482 75.7181 82.2834 75.2716 83.1927 75.0907C84.102 74.9099 85.0445 75.0027 85.901 75.3575C86.7575 75.7123 87.4896 76.3131 88.0047 77.0839C88.5198 77.8548 88.7947 78.7611 88.7947 79.6882C88.7932 80.9309 88.2989 82.1224 87.4201 83.0011C86.5414 83.8799 85.3499 84.3742 84.1072 84.3757ZM93.4822 78.1257H91.7634C91.4039 76.3606 90.4454 74.7741 89.0504 73.6346C87.6554 72.4951 85.9094 71.8726 84.1082 71.8726C82.3069 71.8726 80.5609 72.4951 79.1659 73.6346C77.7709 74.7741 76.8124 76.3606 76.4529 78.1257H71.6072V48.3725C74.794 48.1093 77.8594 47.0304 80.5085 45.2395C80.658 45.2872 84.3886 45.3132 84.3886 45.3132L85.0136 48.4382H76.2947C75.8803 48.4382 75.4828 48.6028 75.1898 48.8958C74.8968 49.1888 74.7322 49.5863 74.7322 50.0007V59.3757C74.7322 59.7901 74.8968 60.1875 75.1898 60.4805C75.4828 60.7736 75.8803 60.9382 76.2947 60.9382H88.2738L93.4822 64.8444V78.1257ZM80.7283 33.614C80.4944 33.6142 80.2635 33.5619 80.0525 33.461C79.8416 33.36 79.656 33.213 79.5094 33.0308C79.3628 32.8486 79.259 32.6358 79.2056 32.4081C79.1522 32.1805 79.1506 31.9437 79.2009 31.7153C79.6279 29.772 79.4269 27.7432 78.6268 25.9215C77.8267 24.0997 76.4689 22.579 74.749 21.5786C74.5698 21.4764 74.4126 21.3398 74.2864 21.1765C74.1603 21.0133 74.0677 20.8267 74.0141 20.6275C73.9605 20.4283 73.9468 20.2204 73.9739 20.0159C74.001 19.8114 74.0684 19.6143 74.172 19.4359C74.2757 19.2576 74.4137 19.1015 74.578 18.9768C74.7423 18.852 74.9297 18.761 75.1293 18.7091C75.329 18.6571 75.5369 18.6452 75.7412 18.674C75.9455 18.7029 76.142 18.7719 76.3195 18.877C78.6117 20.2102 80.4213 22.2368 81.4875 24.6647C82.5536 27.0926 82.8212 29.7964 82.2517 32.3862C82.1755 32.7337 81.983 33.0448 81.7059 33.2681C81.4289 33.4913 81.084 33.6133 80.7283 33.614V33.614ZM79.9021 37.937C79.7704 38.0944 79.609 38.2242 79.4271 38.3192C79.2452 38.4142 79.0464 38.4724 78.842 38.4906C78.6376 38.5087 78.4316 38.4864 78.2358 38.4249C78.04 38.3635 77.8583 38.264 77.7009 38.1323L69.0423 30.8862C68.867 30.7396 68.726 30.5564 68.6293 30.3494C68.5325 30.1424 68.4823 29.9167 68.4822 29.6882V20.3132C68.4822 19.8988 68.6468 19.5013 68.9398 19.2083C69.2328 18.9153 69.6303 18.7507 70.0447 18.7507C70.4591 18.7507 70.8565 18.9153 71.1495 19.2083C71.4426 19.5013 71.6072 19.8988 71.6072 20.3132V28.9583L79.706 35.7356C80.0236 36.0015 80.2227 36.3827 80.2594 36.7953C80.2961 37.2079 80.1674 37.6182 79.9017 37.936L79.9021 37.937ZM82.5447 65.6257C82.5447 66.0401 82.3801 66.4375 82.087 66.7305C81.794 67.0236 81.3966 67.1882 80.9822 67.1882H76.2947C75.8803 67.1882 75.4828 67.0236 75.1898 66.7305C74.8968 66.4375 74.7322 66.0401 74.7322 65.6257C74.7322 65.2113 74.8968 64.8138 75.1898 64.5208C75.4828 64.2278 75.8803 64.0632 76.2947 64.0632H80.9822C81.3966 64.0632 81.794 64.2278 82.087 64.5208C82.3801 64.8138 82.5447 65.2113 82.5447 65.6257Z" fill="url(#paint0_linear)"/>
</g>
<defs>
<linearGradient id="paint0_linear" x1="-6.65885" y1="77.7791" x2="68.1418" y2="-18.3669" gradientUnits="userSpaceOnUse">
<stop stop-color="#0085FF"/>
<stop offset="0.640625" stop-color="#E63B60"/>
</linearGradient>
<clipPath id="clip0">
<rect width="100" height="100" fill="white"/>
</clipPath>
</defs>
</svg>
