<svg width="100" height="100" viewBox="0 0 100 100" fill="none" xmlns="http://www.w3.org/2000/svg">
<path d="M40.625 62.5H28.125C27.7106 62.5 27.3131 62.6646 27.0201 62.9576C26.7271 63.2507 26.5625 63.6481 26.5625 64.0625V73.4375C26.5625 73.8519 26.7271 74.2493 27.0201 74.5424C27.3131 74.8354 27.7106 75 28.125 75H40.625C41.0394 75 41.4368 74.8354 41.7298 74.5424C42.0228 74.2493 42.1875 73.8519 42.1875 73.4375V64.0625C42.1875 63.6481 42.0228 63.2507 41.7298 62.9576C41.4368 62.6646 41.0394 62.5 40.625 62.5ZM39.0625 71.875H29.6875V65.625H39.0625V71.875ZM79.0593 18.966C78.8511 18.0692 78.4374 17.233 77.8508 16.5233C77.2643 15.8136 76.521 15.2498 75.6795 14.8764L73.7045 14.0039L66.3769 5.04863C65.8858 4.44633 65.2666 3.96113 64.5644 3.62836C63.8621 3.29559 63.0945 3.12363 62.3173 3.125C61.1421 3.12108 59.9893 3.44654 58.9896 4.06448C57.9899 4.68241 57.1834 5.5681 56.6615 6.62109C55.7412 8.4666 54.3786 10.0557 52.6951 11.2469C51.0116 12.438 49.0596 13.1941 47.013 13.4479L41.9935 14.0752C41.7164 14.1098 41.4537 14.2181 41.2326 14.3887C41.0115 14.5593 40.8402 14.786 40.7365 15.0453L31.6308 37.8094L27.7513 39.1027C26.0393 39.6715 24.55 40.7654 23.4951 42.2289C22.4401 43.6924 21.8733 45.4512 21.875 47.2553V51.3705L20.3591 57.4336C20.3574 57.4408 20.3125 78.148 20.3125 78.148C19.4536 78.245 18.6605 78.6545 18.0842 79.2986C17.5078 79.9427 17.1887 80.7763 17.1875 81.6406V84.9695C16.7069 85.2905 16.313 85.7249 16.0404 86.2344C15.7679 86.7439 15.6252 87.3128 15.625 87.8906V92.1875C15.625 92.6019 15.7896 92.9993 16.0826 93.2924C16.3756 93.5854 16.7731 93.75 17.1875 93.75H51.5625C51.9769 93.75 52.3743 93.5854 52.6673 93.2924C52.9603 92.9993 53.125 92.6019 53.125 92.1875V87.8906C53.1247 87.3128 52.982 86.7439 52.7095 86.2344C52.437 85.7249 52.043 85.2905 51.5625 84.9695V81.6406C51.5612 80.7763 51.2421 79.9427 50.6658 79.2986C50.0894 78.6545 49.2963 78.245 48.4375 78.148C48.4375 78.148 48.4041 57.4941 48.3949 57.4557C48.3931 57.4484 48.3925 57.4408 48.3908 57.4336L46.8283 51.1836C46.8136 51.1264 46.7957 51.07 46.7746 51.0148L77.1591 24.7736C77.9753 24.0708 78.5837 23.1583 78.9186 22.1346C79.2536 21.111 79.3022 20.0153 79.0593 18.966ZM62.1289 21.4219L61.0722 16.1385L66.7308 10.4799C66.7408 10.4699 66.749 10.4592 66.7587 10.449L70.3525 14.8424L62.1289 21.4219ZM25 47.2553C24.9989 46.1072 25.3596 44.988 26.0309 44.0567C26.7022 43.1253 27.6499 42.4292 28.7394 42.0672L33.3066 40.5447C33.5221 40.473 33.7193 40.3551 33.8846 40.1993C34.0499 40.0436 34.1792 39.8536 34.2636 39.6428L35.7505 35.9252C35.8125 35.933 35.875 35.9371 35.9375 35.9375H39.0625C39.4769 35.9375 39.8743 35.7729 40.1673 35.4799C40.4603 35.1868 40.625 34.7894 40.625 34.375C40.625 33.9606 40.4603 33.5632 40.1673 33.2701C39.8743 32.9771 39.4769 32.8125 39.0625 32.8125H36.9953L38.2453 29.6875H42.1875C42.6019 29.6875 42.9993 29.5229 43.2923 29.2299C43.5853 28.9368 43.75 28.5394 43.75 28.125C43.75 27.7106 43.5853 27.3132 43.2923 27.0201C42.9993 26.7271 42.6019 26.5625 42.1875 26.5625H39.4953L40.7453 23.4375H45.3125C45.7269 23.4375 46.1243 23.2729 46.4173 22.9799C46.7103 22.6868 46.875 22.2894 46.875 21.875C46.875 21.4606 46.7103 21.0632 46.4173 20.7701C46.1243 20.4771 45.7269 20.3125 45.3125 20.3125H41.9953L43.2959 17.0611L47.4003 16.548C49.9576 16.2312 52.3968 15.2865 54.5004 13.7982C56.604 12.3099 58.3067 10.3242 59.4566 8.01816C59.7206 7.48558 60.1285 7.03762 60.6342 6.72509C61.1398 6.41257 61.7229 6.24798 62.3173 6.25C62.6314 6.24946 62.9416 6.31895 63.2254 6.45342C63.5092 6.5879 63.7595 6.78396 63.958 7.02734L64.7959 8.05176C64.6959 8.11389 64.6033 8.18715 64.5199 8.27012L58.2699 14.5201C58.088 14.702 57.9538 14.926 57.8792 15.1722C57.8047 15.4184 57.7921 15.6792 57.8425 15.9314L59.3802 23.6197L55.2734 26.9049C55.1283 27.0209 55.0051 27.1618 54.9095 27.3211L50.3587 34.9066L32.2461 50H25V47.2553ZM44.0925 53.125L44.8738 56.25H23.8761L24.6574 53.125H44.0925ZM23.4375 59.375H45.3125V78.125H23.4375V59.375ZM20.3125 81.6406C20.3125 81.537 20.3536 81.4377 20.4269 81.3644C20.5001 81.2912 20.5995 81.25 20.7031 81.25H48.0468C48.1504 81.25 48.2498 81.2912 48.323 81.3644C48.3963 81.4377 48.4375 81.537 48.4375 81.6406V84.375H20.3125V81.6406ZM50 90.625H18.75V87.8906C18.75 87.787 18.7911 87.6877 18.8644 87.6144C18.9376 87.5412 19.037 87.5 19.1406 87.5H49.6093C49.7129 87.5 49.8123 87.5412 49.8855 87.6144C49.9588 87.6877 50 87.787 50 87.8906V90.625ZM75.1171 22.4086L43.1685 50H37.1289L52.5634 37.1379C52.6981 37.0257 52.8129 36.8917 52.9031 36.7414L57.4461 29.1697L72.691 16.9727L74.4181 17.7344C74.8495 17.9248 75.2257 18.2213 75.5117 18.5962C75.7977 18.9711 75.9843 19.4123 76.054 19.8787C76.1237 20.345 76.0743 20.8215 75.9105 21.2636C75.7466 21.7058 75.4736 22.0993 75.1168 22.4076L75.1171 22.4086ZM85.9375 35.7629H73.4375C73.0231 35.7629 72.6256 35.5983 72.3326 35.3052C72.0396 35.0122 71.875 34.6148 71.875 34.2004C71.875 33.786 72.0396 33.3886 72.3326 33.0955C72.6256 32.8025 73.0231 32.6379 73.4375 32.6379H85.9375C86.3519 32.6379 86.7493 32.8025 87.0423 33.0955C87.3353 33.3886 87.5 33.786 87.5 34.2004C87.5 34.6148 87.3353 35.0122 87.0423 35.3052C86.7493 35.5983 86.3519 35.7629 85.9375 35.7629ZM86.25 46.875C86.25 47.2894 86.0853 47.6868 85.7923 47.9799C85.4993 48.2729 85.1019 48.4375 84.6875 48.4375H72.1875C71.7731 48.4375 71.3756 48.2729 71.0826 47.9799C70.7896 47.6868 70.625 47.2894 70.625 46.875C70.625 46.4606 70.7896 46.0632 71.0826 45.7701C71.3756 45.4771 71.7731 45.3125 72.1875 45.3125H84.6875C85.1019 45.3125 85.4993 45.4771 85.7923 45.7701C86.0853 46.0632 86.25 46.4606 86.25 46.875ZM86.25 40.625C86.25 41.0394 86.0853 41.4368 85.7923 41.7299C85.4993 42.0229 85.1019 42.1875 84.6875 42.1875H67.5C67.0856 42.1875 66.6881 42.0229 66.3951 41.7299C66.1021 41.4368 65.9375 41.0394 65.9375 40.625C65.9375 40.2106 66.1021 39.8132 66.3951 39.5201C66.6881 39.2271 67.0856 39.0625 67.5 39.0625H84.6875C85.1019 39.0625 85.4993 39.2271 85.7923 39.5201C86.0853 39.8132 86.25 40.2106 86.25 40.625ZM23.9533 18.75C23.9533 19.1644 23.7887 19.5618 23.4956 19.8549C23.2026 20.1479 22.8052 20.3125 22.3908 20.3125C21.9764 20.3125 21.579 20.1479 21.2859 19.8549C20.9929 19.5618 20.8283 19.1644 20.8283 18.75V15.625C20.8283 15.2106 20.9929 14.8132 21.2859 14.5201C21.579 14.2271 21.9764 14.0625 22.3908 14.0625C22.8052 14.0625 23.2026 14.2271 23.4956 14.5201C23.7887 14.8132 23.9533 15.2106 23.9533 15.625V18.75ZM16.4062 18.1781L19.1125 19.7406C19.2916 19.8425 19.4488 19.9787 19.5751 20.1416C19.7013 20.3045 19.7941 20.4907 19.8481 20.6895C19.9021 20.8884 19.9162 21.096 19.8896 21.3003C19.8631 21.5047 19.7964 21.7017 19.6933 21.8802C19.5903 22.0587 19.453 22.215 19.2893 22.3401C19.1256 22.4653 18.9388 22.5569 18.7396 22.6095C18.5403 22.6622 18.3327 22.6749 18.1285 22.647C17.9243 22.6191 17.7277 22.5511 17.55 22.4469L14.8437 20.8844C14.6646 20.7825 14.5074 20.6463 14.3811 20.4834C14.2549 20.3205 14.1621 20.1343 14.1081 19.9355C14.0541 19.7366 14.04 19.529 14.0665 19.3247C14.0931 19.1203 14.1598 18.9233 14.2628 18.7448C14.3659 18.5663 14.5032 18.41 14.6669 18.2849C14.8306 18.1597 15.0174 18.0681 15.2166 18.0155C15.4158 17.9628 15.6235 17.9501 15.8277 17.978C16.0318 18.0059 16.2284 18.0739 16.4062 18.1781ZM14.8437 25.9906L17.55 24.4281C17.7277 24.3239 17.9243 24.2559 18.1285 24.228C18.3327 24.2001 18.5403 24.2128 18.7396 24.2655C18.9388 24.3181 19.1256 24.4097 19.2893 24.5349C19.453 24.66 19.5903 24.8163 19.6933 24.9948C19.7964 25.1733 19.8631 25.3703 19.8896 25.5747C19.9162 25.779 19.9021 25.9866 19.8481 26.1855C19.7941 26.3843 19.7013 26.5705 19.5751 26.7334C19.4488 26.8963 19.2916 27.0325 19.1125 27.1344L16.4062 28.6969C16.2284 28.8011 16.0318 28.8691 15.8277 28.897C15.6235 28.9249 15.4158 28.9122 15.2166 28.8595C15.0174 28.8069 14.8306 28.7153 14.6669 28.5901C14.5032 28.465 14.3659 28.3087 14.2628 28.1302C14.1598 27.9517 14.0931 27.7547 14.0665 27.5503C14.04 27.346 14.0541 27.1384 14.1081 26.9395C14.1621 26.7407 14.2549 26.5545 14.3811 26.3916C14.5074 26.2287 14.6646 26.0925 14.8437 25.9906ZM23.9533 28.125V31.25C23.9533 31.6644 23.7887 32.0618 23.4956 32.3549C23.2026 32.6479 22.8052 32.8125 22.3908 32.8125C21.9764 32.8125 21.579 32.6479 21.2859 32.3549C20.9929 32.0618 20.8283 31.6644 20.8283 31.25V28.125C20.8283 27.7106 20.9929 27.3132 21.2859 27.0201C21.579 26.7271 21.9764 26.5625 22.3908 26.5625C22.8052 26.5625 23.2026 26.7271 23.4956 27.0201C23.7887 27.3132 23.9533 27.7106 23.9533 28.125ZM30.5097 28.125C30.3025 28.4839 29.9612 28.7457 29.561 28.853C29.1607 28.9602 28.7342 28.9041 28.3753 28.6969L25.6691 27.1344C25.49 27.0325 25.3327 26.8963 25.2065 26.7334C25.0802 26.5705 24.9874 26.3843 24.9335 26.1855C24.8795 25.9866 24.8653 25.779 24.8919 25.5747C24.9185 25.3703 24.9852 25.1733 25.0882 24.9948C25.1913 24.8163 25.3286 24.66 25.4923 24.5349C25.6559 24.4097 25.8428 24.3181 26.042 24.2655C26.2412 24.2128 26.4489 24.2001 26.653 24.228C26.8572 24.2559 27.0538 24.3239 27.2316 24.4281L29.9378 25.9906C30.2967 26.1978 30.5586 26.5391 30.6658 26.9394C30.7731 27.3396 30.7169 27.7661 30.5097 28.125ZM29.9378 20.8844L27.2316 22.4469C26.8729 22.6508 26.4481 22.7046 26.0499 22.5965C25.6517 22.4884 25.3125 22.2272 25.1062 21.8698C24.8999 21.5125 24.8433 21.0881 24.9487 20.6892C25.0542 20.2903 25.3132 19.9493 25.6691 19.7406L28.3753 18.1781C28.5531 18.0739 28.7497 18.0059 28.9539 17.978C29.1581 17.9501 29.3657 17.9628 29.565 18.0155C29.7642 18.0681 29.951 18.1597 30.1147 18.2849C30.2784 18.41 30.4157 18.5663 30.5187 18.7448C30.6218 18.9233 30.6885 19.1203 30.715 19.3247C30.7416 19.529 30.7275 19.7366 30.6735 19.9355C30.6195 20.1343 30.5267 20.3205 30.4005 20.4834C30.2742 20.6463 30.117 20.7825 29.9378 20.8844ZM83.6498 4.0625V1.5625C83.6498 1.1481 83.8144 0.750671 84.1074 0.457646C84.4004 0.16462 84.7979 0 85.2123 0C85.6267 0 86.0241 0.16462 86.3171 0.457646C86.6101 0.750671 86.7748 1.1481 86.7748 1.5625V4.0625C86.7748 4.4769 86.6101 4.87433 86.3171 5.16735C86.0241 5.46038 85.6267 5.625 85.2123 5.625C84.7979 5.625 84.4004 5.46038 84.1074 5.16735C83.8144 4.87433 83.6498 4.4769 83.6498 4.0625ZM83.3177 6.71875C83.1105 7.07761 82.7693 7.33947 82.369 7.44672C81.9687 7.55396 81.5422 7.49782 81.1834 7.29062L79.0183 6.04063C78.8392 5.93878 78.682 5.8025 78.5557 5.63965C78.4295 5.47679 78.3367 5.29057 78.2827 5.09171C78.2287 4.89284 78.2146 4.68526 78.2411 4.48092C78.2677 4.27658 78.3344 4.0795 78.4374 3.90105C78.5405 3.7226 78.6778 3.56628 78.8415 3.44112C79.0052 3.31595 79.192 3.22439 79.3912 3.17172C79.5904 3.11905 79.7981 3.10631 80.0023 3.13422C80.2064 3.16214 80.4031 3.23016 80.5808 3.33437L82.7459 4.58437C83.1047 4.79158 83.3666 5.13286 83.4738 5.53313C83.5811 5.9334 83.5249 6.35988 83.3177 6.71875ZM83.3177 8.90625C83.5249 9.26512 83.5811 9.6916 83.4738 10.0919C83.3666 10.4921 83.1047 10.8334 82.7459 11.0406L80.5808 12.2906C80.2221 12.4946 79.7973 12.5483 79.3992 12.4402C79.001 12.3321 78.6617 12.0709 78.4554 11.7136C78.2491 11.3563 78.1925 10.9318 78.298 10.5329C78.4034 10.134 78.6624 9.79305 79.0183 9.58437L81.1834 8.33438C81.5422 8.12718 81.9687 8.07104 82.369 8.17828C82.7693 8.28553 83.1105 8.54739 83.3177 8.90625ZM83.6498 11.5625C83.6498 11.1481 83.8144 10.7507 84.1074 10.4576C84.4004 10.1646 84.7979 10 85.2123 10C85.6267 10 86.0241 10.1646 86.3171 10.4576C86.6101 10.7507 86.7748 11.1481 86.7748 11.5625V14.0625C86.7748 14.4769 86.6101 14.8743 86.3171 15.1674C86.0241 15.4604 85.6267 15.625 85.2123 15.625C84.7979 15.625 84.4004 15.4604 84.1074 15.1674C83.8144 14.8743 83.6498 14.4769 83.6498 14.0625V11.5625ZM87.6787 11.0406C87.4995 10.9388 87.3423 10.8025 87.2161 10.6396C87.0898 10.4768 86.997 10.2906 86.943 10.0917C86.889 9.89284 86.8749 9.68526 86.9015 9.48092C86.928 9.27658 86.9948 9.0795 87.0978 8.90105C87.2008 8.7226 87.3381 8.56628 87.5018 8.44112C87.6655 8.31595 87.8523 8.22439 88.0516 8.17172C88.2508 8.11905 88.4584 8.10631 88.6626 8.13422C88.8668 8.16214 89.0634 8.23016 89.2412 8.33438L91.4062 9.58437C91.5853 9.68622 91.7426 9.8225 91.8688 9.98535C91.9951 10.1482 92.0879 10.3344 92.1418 10.5333C92.1958 10.7322 92.21 10.9397 92.1834 11.1441C92.1568 11.3484 92.0901 11.5455 91.9871 11.7239C91.8841 11.9024 91.7467 12.0587 91.583 12.1839C91.4194 12.3091 91.2325 12.4006 91.0333 12.4533C90.8341 12.5059 90.6264 12.5187 90.4223 12.4908C90.2181 12.4629 90.0215 12.3948 89.8437 12.2906L87.6787 11.0406ZM91.4062 6.04063L89.2412 7.29062C88.8825 7.49456 88.4577 7.54834 88.0595 7.44023C87.6613 7.33213 87.322 7.07091 87.1157 6.71358C86.9094 6.35626 86.8528 5.93184 86.9583 5.53294C87.0638 5.13404 87.3227 4.79305 87.6787 4.58437L89.8437 3.33437C90.0215 3.23016 90.2181 3.16214 90.4223 3.13422C90.6264 3.10631 90.8341 3.11905 91.0333 3.17172C91.2325 3.22439 91.4194 3.31595 91.583 3.44112C91.7467 3.56628 91.8841 3.7226 91.9871 3.90105C92.0901 4.0795 92.1568 4.27658 92.1834 4.48092C92.21 4.68526 92.1958 4.89284 92.1418 5.09171C92.0879 5.29057 91.9951 5.47679 91.8688 5.63965C91.7426 5.8025 91.5853 5.93878 91.4062 6.04063ZM61.7748 50.9375C61.7748 51.3519 61.6101 51.7493 61.3171 52.0424C61.0241 52.3354 60.6267 52.5 60.2123 52.5C59.7979 52.5 59.4004 52.3354 59.1074 52.0424C58.8144 51.7493 58.6498 51.3519 58.6498 50.9375V48.4375C58.6498 48.0231 58.8144 47.6257 59.1074 47.3326C59.4004 47.0396 59.7979 46.875 60.2123 46.875C60.6267 46.875 61.0241 47.0396 61.3171 47.3326C61.6101 47.6257 61.7748 48.0231 61.7748 48.4375V50.9375ZM58.3177 53.5938C58.1105 53.9526 57.7693 54.2145 57.369 54.3217C56.9687 54.429 56.5422 54.3728 56.1834 54.1656L54.0183 52.9156C53.6624 52.707 53.4034 52.366 53.298 51.9671C53.1925 51.5682 53.2491 51.1437 53.4554 50.7864C53.6617 50.4291 54.001 50.1679 54.3992 50.0598C54.7973 49.9517 55.2221 50.0054 55.5808 50.2094L57.7459 51.4594C58.1047 51.6666 58.3666 52.0079 58.4738 52.4081C58.5811 52.8084 58.5249 53.2349 58.3177 53.5938ZM58.3177 55.7812C58.5249 56.1401 58.5811 56.5666 58.4738 56.9669C58.3666 57.3671 58.1047 57.7084 57.7459 57.9156L55.5808 59.1656C55.4031 59.2698 55.2064 59.3379 55.0023 59.3658C54.7981 59.3937 54.5904 59.381 54.3912 59.3283C54.192 59.2756 54.0052 59.1841 53.8415 59.0589C53.6778 58.9337 53.5405 58.7774 53.4374 58.5989C53.3344 58.4205 53.2677 58.2234 53.2411 58.0191C53.2146 57.8147 53.2287 57.6072 53.2827 57.4083C53.3367 57.2094 53.4295 57.0232 53.5557 56.8604C53.682 56.6975 53.8392 56.5612 54.0183 56.4594L56.1834 55.2094C56.5422 55.0022 56.9687 54.946 57.369 55.0533C57.7693 55.1605 58.1105 55.4224 58.3177 55.7812ZM61.7748 58.4375V60.9375C61.7748 61.3519 61.6101 61.7493 61.3171 62.0424C61.0241 62.3354 60.6267 62.5 60.2123 62.5C59.7979 62.5 59.4004 62.3354 59.1074 62.0424C58.8144 61.7493 58.6498 61.3519 58.6498 60.9375V58.4375C58.6498 58.0231 58.8144 57.6257 59.1074 57.3326C59.4004 57.0396 59.7979 56.875 60.2123 56.875C60.6267 56.875 61.0241 57.0396 61.3171 57.3326C61.6101 57.6257 61.7748 58.0231 61.7748 58.4375ZM66.9781 58.5938C66.7709 58.9526 66.4296 59.2145 66.0293 59.3217C65.6291 59.429 65.2026 59.3728 64.8437 59.1656L62.6787 57.9156C62.3227 57.707 62.0638 57.366 61.9583 56.9671C61.8528 56.5682 61.9094 56.1437 62.1157 55.7864C62.322 55.4291 62.6613 55.1679 63.0595 55.0598C63.4577 54.9517 63.8825 55.0054 64.2412 55.2094L66.4062 56.4594C66.7651 56.6666 67.0269 57.0079 67.1342 57.4081C67.2414 57.8084 67.1853 58.2349 66.9781 58.5938ZM66.4062 52.9156L64.2412 54.1656C64.0634 54.2698 63.8668 54.3379 63.6626 54.3658C63.4584 54.3937 63.2508 54.381 63.0516 54.3283C62.8523 54.2756 62.6655 54.1841 62.5018 54.0589C62.3381 53.9337 62.2008 53.7774 62.0978 53.599C61.9948 53.4205 61.928 53.2234 61.9015 53.0191C61.8749 52.8147 61.889 52.6072 61.943 52.4083C61.997 52.2094 62.0898 52.0232 62.2161 51.8604C62.3423 51.6975 62.4995 51.5612 62.6787 51.4594L64.8437 50.2094C65.2024 50.0054 65.6272 49.9517 66.0254 50.0598C66.4236 50.1679 66.7628 50.4291 66.9691 50.7864C67.1754 51.1437 67.232 51.5682 67.1266 51.9671C67.0211 52.366 66.7622 52.707 66.4062 52.9156Z" fill="url(#paint0_linear)"/>
<defs>
<linearGradient id="paint0_linear" x1="6.12164" y1="83.3313" x2="88.8004" y2="0.652542" gradientUnits="userSpaceOnUse">
<stop stop-color="#0085FF"/>
<stop offset="0.640625" stop-color="#E63B60"/>
</linearGradient>
</defs>
</svg>
