<svg width="100" height="100" viewBox="0 0 100 100" fill="none" xmlns="http://www.w3.org/2000/svg">
<g clip-path="url(#clip0)">
<path d="M95.3741 25.0006H85.4294C91.4843 20.1361 92.444 11.2907 87.5729 5.24389C84.8995 1.92525 80.8634 -0.00331603 76.5986 4.37013e-06H62.88C57.3017 0.00195754 52.2505 3.29208 50 8.38928C47.7495 3.29208 42.6983 0.00195754 37.12 4.37013e-06H23.4014C15.6302 -0.00605047 9.32578 6.28044 9.31972 14.041C9.3164 18.3001 11.2475 22.3308 14.5706 25.0006H4.62584C3.76178 25.0006 3.06122 25.7003 3.06122 26.5632V42.1886C3.06122 43.0515 3.76178 43.7511 4.62584 43.7511H7.7551V92.1898C7.7551 93.0528 8.45566 93.7524 9.31972 93.7524H90.6803C91.5443 93.7524 92.2449 93.0528 92.2449 92.1898V43.7511H95.3741C96.2382 43.7511 96.9388 43.0515 96.9388 42.1886V26.5632C96.9388 25.7003 96.2382 25.0006 95.3741 25.0006ZM73.8245 3.25477C73.9513 3.23602 74.0765 3.21102 74.2032 3.1954C74.5994 3.15008 74.998 3.12665 75.397 3.12508H76.5986C82.6445 3.13192 87.5442 8.02501 87.551 14.0629C87.5442 20.1007 82.6445 24.9938 76.5986 25.0006H72.9233C78.9722 20.1327 79.9242 11.2895 75.0498 5.24877C74.4983 4.56516 73.8838 3.93487 73.2143 3.36571C73.4162 3.32353 73.6196 3.28602 73.8245 3.25477ZM69.7643 4.75481C74.9266 7.87501 76.5787 14.5838 73.4541 19.7392C71.4702 23.0131 67.9136 25.0096 64.0816 25.0006H58.6508L65.363 9.67837C66.2858 7.62266 67.8234 5.90269 69.7643 4.75481ZM58.6884 28.1257H69.3732L76.7629 42.887L81.8902 53.1264H76.5986C76.1062 53.1264 75.6424 53.358 75.3469 53.7514L72.2365 57.8921L64.7967 41.5479L58.6884 28.1257ZM60.9414 40.626H57.8231V33.7759L60.9414 40.626ZM30.2356 4.75481C32.1766 5.90269 33.7142 7.62266 34.6369 9.67837L41.3492 25.0006H35.9184C29.8842 25.0147 24.9812 20.1409 24.9672 14.1148C24.9582 10.2882 26.9574 6.73631 30.2356 4.75481ZM41.3116 28.1257L35.2096 41.5417L27.7635 57.8921L24.6531 53.7514C24.3575 53.358 23.8938 53.1264 23.4014 53.1264H18.1098L23.2449 42.887L30.6268 28.1257H41.3116ZM12.449 14.0629C12.4558 8.02501 17.3554 3.13192 23.4014 3.12508H24.603C25.002 3.12665 25.4006 3.15008 25.7968 3.1954C25.9235 3.21102 26.0487 3.23602 26.1754 3.25477C26.3804 3.28602 26.5838 3.32353 26.7856 3.36571C20.87 8.39416 20.1561 17.2598 25.1911 23.1676C25.7608 23.8362 26.3921 24.4498 27.0767 25.0006H23.4014C17.3554 24.9938 12.4558 20.1007 12.449 14.0629ZM6.19047 40.626V28.1257H27.1283L20.8698 40.626H6.19047ZM42.1769 90.6273H10.8843V43.7511H19.3052L14.1779 53.9904C13.7916 54.7623 14.1051 55.7008 14.8781 56.0866C15.0955 56.195 15.3351 56.2514 15.5782 56.2514H22.619L26.8435 61.8766C27.139 62.2699 27.6028 62.5016 28.0952 62.5016C28.1518 62.5016 28.2081 62.4985 28.2642 62.4922C28.8122 62.4315 29.2877 62.0871 29.5159 61.5859L37.6394 43.7511H42.1769V90.6273ZM42.1769 40.626H39.0586L42.1769 33.7759V40.626ZM37.5033 8.42678C36.5923 6.35622 35.192 4.53703 33.4228 3.12508H37.12C41.4712 3.12508 45.4098 5.69741 47.1539 9.67837L48.2914 12.2769L43.7415 22.6646L37.5033 8.42678ZM54.6939 90.6273H45.3061V28.1257H54.6939V90.6273ZM46.1338 25.0006L52.846 9.67837C54.5902 5.69741 58.5288 3.12508 62.88 3.12508H66.585C64.8158 4.53703 63.4155 6.35622 62.5045 8.42678L55.2352 25.0006H46.1338ZM89.1156 90.6273H57.8231V43.7511H62.3605L70.4809 61.5859C70.7092 62.0871 71.1846 62.4315 71.7326 62.4922C71.7897 62.4987 71.8472 62.5018 71.9047 62.5016C72.3972 62.5016 72.8609 62.2699 73.1565 61.8766L77.3809 56.2514H84.4218C85.2858 56.2561 85.9903 55.5604 85.995 54.6975C85.9964 54.4522 85.9398 54.21 85.8299 53.9904L80.6948 43.7511H89.1156V90.6273ZM93.8095 40.626H79.1302L72.8717 28.1257H93.8095V40.626Z" fill="url(#paint0_linear)"/>
</g>
<defs>
<linearGradient id="paint0_linear" x1="-6.46775" y1="83.3334" x2="74.8414" y2="-14.3454" gradientUnits="userSpaceOnUse">
<stop stop-color="#0085FF"/>
<stop offset="0.640625" stop-color="#E63B60"/>
</linearGradient>
<clipPath id="clip0">
<rect width="100" height="100" fill="white"/>
</clipPath>
</defs>
</svg>
