<svg width="16" height="37" viewBox="0 0 16 37" fill="none" xmlns="http://www.w3.org/2000/svg">
<path d="M0.793592 18.79C0.792656 19.3849 0.959577 19.9613 1.26538 20.4194L11.5216 35.6944C11.8698 36.2143 12.3702 36.5413 12.9126 36.6034C13.455 36.6654 13.995 36.4575 14.4139 36.0254C14.8328 35.5933 15.0962 34.9723 15.1463 34.2991C15.1963 33.6259 15.0288 32.9557 14.6806 32.4358L5.49096 18.79L14.3524 5.14429C14.5228 4.88388 14.65 4.58425 14.7268 4.26261C14.8036 3.94097 14.8284 3.60367 14.7998 3.27009C14.7712 2.93651 14.6898 2.61323 14.5602 2.31884C14.4306 2.02444 14.2554 1.76474 14.0447 1.55465C13.8338 1.3215 13.5863 1.14492 13.3179 1.03598C13.0494 0.927037 12.7657 0.888075 12.4846 0.921535C12.2034 0.954996 11.9309 1.06016 11.684 1.23043C11.4371 1.40071 11.2212 1.63242 11.0499 1.91107L1.14231 17.1861C0.884842 17.6573 0.762063 18.222 0.793592 18.79Z" fill="white"/>
</svg>
