<svg width="100" height="100" viewBox="0 0 100 100" fill="none" xmlns="http://www.w3.org/2000/svg">
<g clip-path="url(#clip0)">
<path d="M95.9096 22.0647L50.5057 0.145605C50.1031 -0.0485352 49.6344 -0.0485352 49.232 0.145605L3.82793 22.0647C3.32168 22.3091 3 22.8218 3 23.3839V76.6161C3 77.1782 3.32168 77.6909 3.82793 77.9353L49.2318 99.8544C49.433 99.9515 49.651 100 49.8688 100C50.0865 100 50.3043 99.9515 50.5057 99.8544L95.9096 77.9353C96.4158 77.6909 96.7375 77.1782 96.7375 76.6161V23.3841C96.7375 22.8216 96.4156 22.3093 95.9096 22.0647ZM49.8688 3.0915L91.9033 23.3839L79.7184 29.2663C79.6412 29.2075 79.5598 29.1532 79.4703 29.1101L37.7213 8.95576L49.8688 3.0915ZM34.4131 10.612L76.3865 30.8749L67.7898 35.0251L25.8338 14.7704L34.4131 10.612ZM77.3686 33.6538V48.9948L69.3387 52.8714V37.5304L77.3686 33.6538ZM93.8078 75.697L51.3336 96.2013V46.2224L61.465 41.3313C62.1936 40.9796 62.499 40.104 62.1473 39.3753C61.7955 38.647 60.9199 38.3411 60.1912 38.6931L49.8688 43.6765L45.807 41.7155C45.0783 41.3634 44.2027 41.6692 43.851 42.3978C43.4992 43.1263 43.8047 44.0021 44.5332 44.3538L48.4039 46.2224V96.2013L5.92969 75.6966V25.7177L38.2734 41.3319C38.4787 41.4312 38.6957 41.478 38.9092 41.478C39.4537 41.478 39.9768 41.173 40.2293 40.6497C40.5811 39.9212 40.2756 39.0454 39.5471 38.6936L7.83418 23.3839L22.3859 16.3589L66.3887 37.6017C66.3951 37.6106 66.4023 37.6186 66.409 37.6274V55.2054C66.409 55.7095 66.6682 56.178 67.0951 56.4462C67.3322 56.595 67.6027 56.6702 67.874 56.6702C68.0912 56.6702 68.309 56.622 68.5107 56.5245L79.4703 51.2337C79.9766 50.9894 80.2982 50.4769 80.2982 49.9146V32.2397L93.8078 25.7179V75.697Z" fill="#32456E"/>
<path d="M95.9096 22.0647L50.5057 0.145605C50.1031 -0.0485352 49.6344 -0.0485352 49.232 0.145605L3.82793 22.0647C3.32168 22.3091 3 22.8218 3 23.3839V76.6161C3 77.1782 3.32168 77.6909 3.82793 77.9353L49.2318 99.8544C49.433 99.9515 49.651 100 49.8688 100C50.0865 100 50.3043 99.9515 50.5057 99.8544L95.9096 77.9353C96.4158 77.6909 96.7375 77.1782 96.7375 76.6161V23.3841C96.7375 22.8216 96.4156 22.3093 95.9096 22.0647ZM49.8688 3.0915L91.9033 23.3839L79.7184 29.2663C79.6412 29.2075 79.5598 29.1532 79.4703 29.1101L37.7213 8.95576L49.8688 3.0915ZM34.4131 10.612L76.3865 30.8749L67.7898 35.0251L25.8338 14.7704L34.4131 10.612ZM77.3686 33.6538V48.9948L69.3387 52.8714V37.5304L77.3686 33.6538ZM93.8078 75.697L51.3336 96.2013V46.2224L61.465 41.3313C62.1936 40.9796 62.499 40.104 62.1473 39.3753C61.7955 38.647 60.9199 38.3411 60.1912 38.6931L49.8688 43.6765L45.807 41.7155C45.0783 41.3634 44.2027 41.6692 43.851 42.3978C43.4992 43.1263 43.8047 44.0021 44.5332 44.3538L48.4039 46.2224V96.2013L5.92969 75.6966V25.7177L38.2734 41.3319C38.4787 41.4312 38.6957 41.478 38.9092 41.478C39.4537 41.478 39.9768 41.173 40.2293 40.6497C40.5811 39.9212 40.2756 39.0454 39.5471 38.6936L7.83418 23.3839L22.3859 16.3589L66.3887 37.6017C66.3951 37.6106 66.4023 37.6186 66.409 37.6274V55.2054C66.409 55.7095 66.6682 56.178 67.0951 56.4462C67.3322 56.595 67.6027 56.6702 67.874 56.6702C68.0912 56.6702 68.309 56.622 68.5107 56.5245L79.4703 51.2337C79.9766 50.9894 80.2982 50.4769 80.2982 49.9146V32.2397L93.8078 25.7179V75.697Z" fill="url(#paint0_linear)"/>
<path d="M18.1496 70.0154L11.4865 66.7988C10.7576 66.4467 9.88223 66.7525 9.53047 67.481C9.17872 68.2095 9.48418 69.0853 10.2127 69.4371L16.8758 72.6537C17.0811 72.7529 17.2981 72.7998 17.5115 72.7998C18.0561 72.7998 18.5791 72.4947 18.8316 71.9715C19.1836 71.2427 18.8781 70.3674 18.1496 70.0154Z" fill="#32456E"/>
<path d="M18.1496 70.0154L11.4865 66.7988C10.7576 66.4467 9.88223 66.7525 9.53047 67.481C9.17872 68.2095 9.48418 69.0853 10.2127 69.4371L16.8758 72.6537C17.0811 72.7529 17.2981 72.7998 17.5115 72.7998C18.0561 72.7998 18.5791 72.4947 18.8316 71.9715C19.1836 71.2427 18.8781 70.3674 18.1496 70.0154Z" fill="url(#paint1_linear)"/>
<path d="M24.2818 66.0238L11.4957 59.8511C10.767 59.4994 9.89139 59.8048 9.53963 60.5335C9.18806 61.2621 9.49353 62.1378 10.222 62.4896L23.0082 68.6623C23.2135 68.7613 23.4304 68.8084 23.6439 68.8084C24.1885 68.8084 24.7115 68.5033 24.964 67.98C25.3158 67.2511 25.0103 66.3753 24.2818 66.0238Z" fill="#32456E"/>
<path d="M24.2818 66.0238L11.4957 59.8511C10.767 59.4994 9.89139 59.8048 9.53963 60.5335C9.18806 61.2621 9.49353 62.1378 10.222 62.4896L23.0082 68.6623C23.2135 68.7613 23.4304 68.8084 23.6439 68.8084C24.1885 68.8084 24.7115 68.5033 24.964 67.98C25.3158 67.2511 25.0103 66.3753 24.2818 66.0238Z" fill="url(#paint2_linear)"/>
</g>
<defs>
<linearGradient id="paint0_linear" x1="33.9041" y1="-3.42565" x2="97.9834" y2="-3.51558" gradientUnits="userSpaceOnUse">
<stop stop-opacity="0.3"/>
<stop offset="0.697917" stop-color="#0085FF" stop-opacity="0.12"/>
</linearGradient>
<linearGradient id="paint1_linear" x1="12.5472" y1="66.442" x2="19.1053" y2="66.4267" gradientUnits="userSpaceOnUse">
<stop stop-opacity="0.3"/>
<stop offset="0.697917" stop-color="#0085FF" stop-opacity="0.12"/>
</linearGradient>
<linearGradient id="paint2_linear" x1="14.5752" y1="59.3932" x2="25.3189" y2="59.3655" gradientUnits="userSpaceOnUse">
<stop stop-opacity="0.3"/>
<stop offset="0.697917" stop-color="#0085FF" stop-opacity="0.12"/>
</linearGradient>
<clipPath id="clip0">
<rect width="100" height="100" fill="white"/>
</clipPath>
</defs>
</svg>
