<svg width="27" height="27" viewBox="0 0 27 27" fill="none" xmlns="http://www.w3.org/2000/svg">
<g clip-path="url(#clip0)">
<path d="M10.1113 23.9012C10.7317 23.9012 11.2347 23.4148 11.2347 22.8148C11.2347 22.2148 10.7317 21.7284 10.1113 21.7284C9.49079 21.7284 8.98779 22.2148 8.98779 22.8148C8.98779 23.4148 9.49079 23.9012 10.1113 23.9012Z" stroke="white" stroke-width="2" stroke-linecap="round" stroke-linejoin="round"/>
<path d="M22.4694 23.9012C23.0899 23.9012 23.5929 23.4148 23.5929 22.8148C23.5929 22.2148 23.0899 21.7284 22.4694 21.7284C21.849 21.7284 21.346 22.2148 21.346 22.8148C21.346 23.4148 21.849 23.9012 22.4694 23.9012Z" stroke="white" stroke-width="2" stroke-linecap="round" stroke-linejoin="round"/>
<path d="M1.12347 1.08643H5.61736L8.62827 15.6336C8.731 16.1338 9.01239 16.5831 9.42317 16.9028C9.83396 17.2226 10.348 17.3925 10.8752 17.3827H21.7954C22.3226 17.3925 22.8366 17.2226 23.2474 16.9028C23.6582 16.5831 23.9396 16.1338 24.0423 15.6336L25.8399 6.51852H6.74083" stroke="white" stroke-width="2" stroke-linecap="round" stroke-linejoin="round"/>
</g>
<defs>
<clipPath id="clip0">
<rect width="26.9633" height="26.0741" fill="white"/>
</clipPath>
</defs>
</svg>
