<svg width="27" height="28" viewBox="0 0 27 28" fill="none" xmlns="http://www.w3.org/2000/svg">
<g clip-path="url(#clip0)">
<path d="M27 13.6006C27 21.0565 20.9559 27.1006 13.5 27.1006C6.04406 27.1006 0 21.0565 0 13.6006C0 6.14464 6.04406 0.100586 13.5 0.100586C20.9559 0.100586 27 6.14464 27 13.6006Z" fill="#4A7AFF"/>
<path d="M14.0925 27.0869C21.2734 26.7769 27 20.8579 27 13.6007C27 13.5482 26.9986 13.4958 26.998 13.4433L17.6271 4.07227L7.6076 14.545L13.1746 20.112L10.6077 23.6021L14.0925 27.0869Z" fill="#4A7AFF"/>
<path d="M17.6271 4.07199V7.12896C17.6271 7.12896 14.1173 6.61952 14.1173 8.8838V11.1481H17.2874L16.8913 14.6012H14.1173V23.6018H10.6076V14.6012L7.6073 14.5445V11.1481H10.5509V8.54414C10.5509 8.54414 10.3567 4.67041 14.174 3.9589C15.7591 3.6633 17.6271 4.07199 17.6271 4.07199Z" fill="white"/>
<path d="M17.6271 7.12896V4.07199C17.6271 4.07199 15.7591 3.6633 14.174 3.9589C13.9264 4.00504 13.6961 4.06478 13.4813 4.13544V23.6018H14.1173V14.6012H16.891L17.2874 11.1481H14.1173C14.1173 11.1481 14.1173 11.1481 14.1173 8.8838C14.1173 6.61952 17.6271 7.12896 17.6271 7.12896Z" fill="white"/>
</g>
<defs>
<clipPath id="clip0">
<rect width="27" height="27" fill="white" transform="translate(0 0.100586)"/>
</clipPath>
</defs>
</svg>
