<svg width="100" height="72" viewBox="0 0 100 72" fill="none" xmlns="http://www.w3.org/2000/svg">
<path fill-rule="evenodd" clip-rule="evenodd" d="M42.9101 64.4475H25.3621C30.6063 67.7401 36.7434 69.925 43.7255 71.3918L42.9101 64.4475ZM56.2909 64.4631L55.2447 70.9853C62.2582 69.6746 68.4409 67.6152 73.8087 64.4631H56.2909ZM54.2755 64.4319L44.6327 64.4469C45.9861 67.3025 47.7092 69.7059 49.6775 72C51.6155 69.659 52.9073 67.2406 54.2755 64.4319ZM80.2222 60.0939L18.8409 60.0622C16.7952 58.4081 15.4111 57.55 13.7654 55.3496H85.3735C83.7746 57.1291 81.9448 58.7359 80.2222 60.0939ZM89.3721 49.9507L10.0433 49.9819C8.98226 48.4839 7.76682 46.3777 7.01349 44.7079H92.403C91.6035 46.58 90.526 48.3122 89.3721 49.9507ZM32.6053 38.9963L4.90626 39.0119C2.36878 33.0661 0.769265 26.9336 0 19.3186C14.2732 21.8932 25.2852 27.839 32.6053 38.9963ZM60.9818 39.0431H38.2039C37.6962 24.1717 41.7568 9.08175 49.6005 0C57.5674 8.84815 61.6895 23.8751 60.9818 39.0431ZM94.7404 39.0119L66.5024 39.0275C74.3 27.9014 85.4966 21.6128 100 19.3811C99.0934 26.8249 97.401 33.1442 94.7404 39.0119Z" fill="white"/>
</svg>
