<svg width="27" height="28" viewBox="0 0 27 28" fill="none" xmlns="http://www.w3.org/2000/svg">
<g clip-path="url(#clip0)">
<path d="M13.5 27.1006C20.9558 27.1006 27 21.0564 27 13.6006C27 6.14475 20.9558 0.100586 13.5 0.100586C6.04417 0.100586 0 6.14475 0 13.6006C0 21.0564 6.04417 27.1006 13.5 27.1006Z" fill="#039BE5"/>
<path d="M6.17738 13.3081L19.1936 8.28946C19.7977 8.07119 20.3254 8.43682 20.1296 9.35034L20.1308 9.34921L17.9145 19.7903C17.7502 20.5306 17.3103 20.7106 16.695 20.3618L13.32 17.8745L11.6921 19.4427C11.5121 19.6227 11.3602 19.7746 11.0115 19.7746L11.2511 16.3399L17.5061 10.6891C17.7784 10.4495 17.4453 10.3145 17.0865 10.553L9.35663 15.4197L6.02434 14.3802C5.30099 14.1507 5.28524 13.6568 6.17738 13.3081Z" fill="white"/>
</g>
<defs>
<clipPath id="clip0">
<rect width="27" height="27" fill="white" transform="translate(0 0.100586)"/>
</clipPath>
</defs>
</svg>
