<svg width="27" height="28" viewBox="0 0 27 28" fill="none" xmlns="http://www.w3.org/2000/svg">
<path d="M20.4618 0.01204C20.1161 0.0485466 19.7777 0.135848 19.4576 0.271123V0.238997C19.442 0.243143 19.4089 0.266978 19.3933 0.271123C16.8709 1.15822 12.0416 3.38012 7.66927 7.75242C3.26485 12.1568 1.14037 17.0753 0.187978 19.5086V19.5407C-0.0135924 20.1505 -0.0538647 20.8021 0.0710801 21.4321C0.196025 22.0621 0.481931 22.649 0.900975 23.1357L0.933101 23.1679V23.2L4.0421 26.2769L4.17164 26.4064C5.02973 27.2645 6.51998 27.2645 7.37806 26.4064L11.6208 22.1637C12.4789 21.3056 12.4789 19.7832 11.6208 18.9251L9.58027 16.8856C9.93677 16.1446 10.8591 14.3228 12.4955 12.6107C14.1173 10.9091 15.9796 10.0427 16.7051 9.72663L18.843 11.8646L18.9394 11.9288C19.4254 12.2532 19.9799 12.4356 20.5592 12.4149C21.1012 12.3942 21.6639 12.1278 22.0805 11.6698L22.1137 11.7019L22.1779 11.6055L26.3564 7.46017C27.2145 6.60209 27.2145 5.07971 26.3564 4.22163L23.149 1.01625C22.6754 0.549116 22.0806 0.223872 21.4318 0.0773292C21.1135 0.00482709 20.7858 -0.0172049 20.4607 0.01204H20.4618ZM20.6234 2.08471C21.0172 2.05673 21.409 2.22254 21.6598 2.47333L24.8983 5.67975C25.0766 5.858 25.0766 5.79375 24.8983 5.97096L20.5602 10.3122C20.5644 10.308 20.5602 10.3401 20.4628 10.3443C20.382 10.3484 20.2607 10.279 20.1384 10.2147H20.0742L17.644 7.75242L17.159 7.26638L16.5434 7.49333C16.5434 7.49333 13.3577 8.68304 10.9731 11.1858C8.62891 13.6388 7.34593 16.6576 7.34593 16.6576L7.08685 17.3064L7.57289 17.8245L10.1637 20.4154C10.3409 20.5936 10.3409 20.5294 10.1637 20.7066L5.92097 24.9493C5.74273 25.1276 5.80698 25.1276 5.62977 24.9493L2.45548 21.8072C2.44718 21.7999 2.46377 21.7833 2.45548 21.7761L2.42335 21.7429C2.0627 21.2931 1.95389 20.8154 2.1311 20.2527C2.13525 20.2413 2.12799 20.233 2.1311 20.2216C3.05033 17.8805 5.07429 13.2947 9.15952 9.2095C13.2603 5.10873 17.9114 2.99979 20.1706 2.21425L20.2027 2.18212H20.2348C20.3602 2.12512 20.4939 2.093 20.6234 2.08471Z" fill="#333333"/>
</svg>
