<svg width="27" height="28" viewBox="0 0 27 28" fill="none" xmlns="http://www.w3.org/2000/svg">
<g clip-path="url(#clip0)">
<path d="M27 13.6006C27 21.0565 20.9559 27.1006 13.5 27.1006C6.04406 27.1006 0 21.0565 0 13.6006C0 6.14465 6.04406 0.100586 13.5 0.100586C20.9559 0.100586 27 6.14465 27 13.6006Z" fill="#9330B2"/>
<path d="M15.3033 4.72363H11.6968C8.08115 4.72363 5.13977 7.66502 5.13977 11.2806V13.7869C5.13977 15.5146 5.84015 17.1795 7.04913 18.4012V21.7123C7.04913 22.0382 7.22298 22.3392 7.50499 22.5023C7.6463 22.5839 7.80389 22.6247 7.96147 22.6247C8.11885 22.6247 8.27623 22.5841 8.41713 22.5027L12.1619 20.3439H15.3033C18.9189 20.3439 21.8603 17.4025 21.8603 13.7869V11.2806C21.8603 7.66502 18.9189 4.72363 15.3033 4.72363ZM20.4641 13.8895C20.4641 16.6404 18.2134 18.8913 15.4623 18.8913H12.5238L7.91595 21.7123V17.3284C7.06252 16.43 6.536 15.2188 6.536 13.8897V11.1778C6.536 8.42699 8.78668 6.1763 11.5375 6.1763H15.4623C18.2132 6.1763 20.4641 8.42699 20.4641 11.1778V13.8895Z" fill="white"/>
<path d="M12.5461 8.76588C12.5282 8.74816 12.5129 8.72715 12.501 8.70326C12.442 8.58481 12.4902 8.44103 12.6087 8.38191C13.8778 7.74971 15.5577 8.10155 16.6936 9.2374C17.829 10.3728 18.181 12.0519 17.5495 13.3206C17.4905 13.439 17.3468 13.4872 17.2281 13.4283C17.1097 13.3694 17.0615 13.2256 17.1204 13.1072C17.6615 12.0202 17.3466 10.5681 16.3547 9.57605C15.3624 8.58378 13.9098 8.26923 12.8223 8.81099C12.7278 8.85796 12.6169 8.83674 12.5461 8.76588Z" fill="white"/>
<path d="M13.0903 9.82078C13.0712 9.80142 13.0549 9.77876 13.0428 9.7528C12.9865 9.63292 13.0382 9.49037 13.1581 9.43434C14.0305 9.02626 15.1315 9.26687 15.8978 10.0332C16.6639 10.7995 16.9049 11.8997 16.4975 12.7714C16.4412 12.8913 16.2987 12.943 16.1788 12.887C16.0591 12.831 16.0074 12.6882 16.0632 12.5685C16.3858 11.8789 16.1831 10.9962 15.559 10.372C14.9348 9.74786 14.0517 9.54537 13.3612 9.86837C13.2673 9.91224 13.1596 9.89 13.0903 9.82078Z" fill="white"/>
<path d="M13.6286 10.8737C13.6053 10.8506 13.5866 10.8222 13.5742 10.7894C13.5272 10.6658 13.5894 10.5274 13.713 10.4804C14.1732 10.3057 14.7193 10.4415 15.1043 10.8265C15.4893 11.2115 15.6255 11.7574 15.451 12.2169C15.4042 12.3407 15.2658 12.403 15.1422 12.356C15.0184 12.309 14.9562 12.1708 15.0032 12.047C15.109 11.7677 15.0135 11.4134 14.7655 11.1653C14.5176 10.9173 14.1629 10.8222 13.8832 10.9285C13.7921 10.9629 13.6933 10.9383 13.6286 10.8737Z" fill="white"/>
<path d="M11.8991 10.4536L10.2359 8.79042C10.0246 8.57928 9.72607 8.52964 9.5724 8.6831L9.41172 8.84398C8.62813 9.62738 8.48311 10.7696 9.11963 11.5458C9.90961 12.5086 10.7886 13.4842 11.6336 14.2969C12.4462 15.1418 13.4218 16.0208 14.3846 16.8108C15.1608 17.4473 16.303 17.3023 17.0864 16.5189L17.2473 16.358C17.4008 16.2046 17.3511 15.9059 17.1398 15.6947L15.4766 14.0315C15.0819 13.6366 14.8215 13.6912 14.6679 13.8447C14.6679 13.8447 14.4582 14.0579 14.4198 14.102V14.1014C14.2703 14.2511 13.8915 14.2845 13.5493 14.0703C13.2379 13.875 12.9155 13.5915 12.6258 13.3046C12.3389 13.0149 12.0554 12.6926 11.8602 12.3811C11.6459 12.0389 11.6793 11.6601 11.8291 11.5106H11.8284C11.8725 11.4723 12.0857 11.2626 12.0857 11.2626C12.2394 11.1089 12.2938 10.8485 11.8991 10.4536Z" fill="white"/>
</g>
<defs>
<clipPath id="clip0">
<rect width="27" height="27" fill="white" transform="translate(0 0.100586)"/>
</clipPath>
</defs>
</svg>
