<svg width="105" height="105" viewBox="0 0 105 105" fill="none" xmlns="http://www.w3.org/2000/svg">
<path d="M91.7688 16.2109C91.2131 15.484 90.1668 15.0369 89.8356 14.1839L85.3908 2.73499C85.0916 1.96508 84.2252 1.58351 83.4553 1.88252L83.4548 1.8828L13.2278 29.1858C13.1057 29.2333 12.9793 29.2686 12.8504 29.2914L10.7895 29.6547C9.97618 29.7981 9.43303 30.5738 9.57644 31.3872L10.6167 37.2867C10.782 38.2242 10.244 39.1249 9.4546 39.6568C7.04877 41.2779 5.75488 44.1994 6.2823 47.1534L15.1116 97.2267C15.8331 101.291 19.7081 104.004 23.7737 103.292L103.302 89.269C104.115 89.1256 104.658 88.3499 104.515 87.5366L92.0502 16.8448C92.0059 16.6067 91.9071 16.3917 91.7688 16.2109ZM81.2771 5.93839C82.3067 5.53807 83.466 6.0484 83.866 7.07815L86.5076 13.8771C86.9643 15.0525 86.2325 16.3521 84.9907 16.5711L48.1551 23.0662C45.7747 23.4859 44.8303 20.1083 47.083 19.2325L81.2771 5.93839ZM9.95086 43.2877C9.95242 43.2854 9.95543 43.2847 9.95783 43.286C9.96022 43.2873 9.9632 43.2866 9.96477 43.2844C10.1138 43.0738 10.2799 42.8769 10.461 42.6954C10.8858 42.2698 11.5487 42.5722 11.6531 43.1644L12.8869 50.1618C12.8958 50.212 12.8527 50.2599 12.8024 50.251C12.5989 50.2089 12.3987 50.1523 12.2031 50.0819C12.1062 50.0488 12.0052 50.0272 11.9091 49.9818C11.615 49.8619 11.3342 49.7119 11.071 49.5344C9.04192 48.1149 8.54164 45.323 9.95086 43.2877ZM97.8464 66.9407C98.0382 68.0285 97.3118 69.0658 96.2241 69.2576L79.5448 72.1986C78.457 72.3904 77.4197 71.6641 77.2279 70.5763L75.845 62.7335C75.6532 61.6457 76.3796 60.6084 77.4674 60.4166L94.1466 57.4756C95.2344 57.2838 96.2717 58.0101 96.4635 59.0979L97.8464 66.9407ZM95.2495 52.2132C95.4413 53.301 94.715 54.3383 93.6272 54.5301L73.5056 58.0781C72.6923 58.2215 72.1492 58.9972 72.2926 59.8105L74.8894 74.538C75.0328 75.3513 75.8085 75.8945 76.6219 75.7511L96.7434 72.2031C97.8312 72.0113 98.8685 72.7376 99.0603 73.8254L100.963 84.6136C101.154 85.7014 100.428 86.7387 99.3403 86.9305L23.2544 100.347C20.8142 100.777 18.4873 99.1475 18.0571 96.7073L10.3099 52.7707C10.2921 52.6697 10.4042 52.5764 10.4973 52.6194C10.643 52.6879 10.7908 52.7423 10.9394 52.8012C11.214 52.9089 11.4949 53.0003 11.7803 53.075C11.9393 53.1153 12.098 53.1542 12.2551 53.1842C12.5571 53.2401 12.8623 53.2764 13.1688 53.2934C13.3117 53.3031 13.4518 53.3224 13.5947 53.323C14.0467 53.3291 14.4986 53.2942 14.9445 53.2187L91.0304 39.8027C92.1181 39.6109 93.1555 40.3372 93.3473 41.425L95.2495 52.2132ZM46.2571 44.6603C45.0579 44.8718 43.9354 43.9606 44.1624 42.7643C45.0565 38.0532 49.1203 34.4231 54.1128 34.2634C57.9759 34.1398 61.522 36.1467 63.4401 39.3659C64.0633 40.4119 63.3205 41.6516 62.1214 41.863L46.2571 44.6603ZM92.1333 34.5403C92.3251 35.6281 91.5988 36.6654 90.511 36.8572L69.113 40.6302C68.1123 40.8067 67.1529 40.1957 66.7382 39.268C64.0244 33.1972 57.1661 29.929 50.6193 31.8763C45.1996 33.4884 41.4296 38.2834 41.0318 43.8015C40.9588 44.815 40.2661 45.7167 39.2654 45.8932L17.8674 49.6662C16.7797 49.858 15.7423 49.1317 15.5505 48.0439L13.1289 34.3102C12.9371 33.2224 13.6634 32.1851 14.7512 31.9932L87.3948 19.1842C88.4826 18.9924 89.5199 19.7188 89.7117 20.8066L92.1333 34.5403Z" fill="#32456E"/>
<path d="M91.7688 16.2109C91.2131 15.484 90.1668 15.0369 89.8356 14.1839L85.3908 2.73499C85.0916 1.96508 84.2252 1.58351 83.4553 1.88252L83.4548 1.8828L13.2278 29.1858C13.1057 29.2333 12.9793 29.2686 12.8504 29.2914L10.7895 29.6547C9.97618 29.7981 9.43303 30.5738 9.57644 31.3872L10.6167 37.2867C10.782 38.2242 10.244 39.1249 9.4546 39.6568C7.04877 41.2779 5.75488 44.1994 6.2823 47.1534L15.1116 97.2267C15.8331 101.291 19.7081 104.004 23.7737 103.292L103.302 89.269C104.115 89.1256 104.658 88.3499 104.515 87.5366L92.0502 16.8448C92.0059 16.6067 91.9071 16.3917 91.7688 16.2109ZM81.2771 5.93839C82.3067 5.53807 83.466 6.0484 83.866 7.07815L86.5076 13.8771C86.9643 15.0525 86.2325 16.3521 84.9907 16.5711L48.1551 23.0662C45.7747 23.4859 44.8303 20.1083 47.083 19.2325L81.2771 5.93839ZM9.95086 43.2877C9.95242 43.2854 9.95543 43.2847 9.95783 43.286C9.96022 43.2873 9.9632 43.2866 9.96477 43.2844C10.1138 43.0738 10.2799 42.8769 10.461 42.6954C10.8858 42.2698 11.5487 42.5722 11.6531 43.1644L12.8869 50.1618C12.8958 50.212 12.8527 50.2599 12.8024 50.251C12.5989 50.2089 12.3987 50.1523 12.2031 50.0819C12.1062 50.0488 12.0052 50.0272 11.9091 49.9818C11.615 49.8619 11.3342 49.7119 11.071 49.5344C9.04192 48.1149 8.54164 45.323 9.95086 43.2877ZM97.8464 66.9407C98.0382 68.0285 97.3118 69.0658 96.2241 69.2576L79.5448 72.1986C78.457 72.3904 77.4197 71.6641 77.2279 70.5763L75.845 62.7335C75.6532 61.6457 76.3796 60.6084 77.4674 60.4166L94.1466 57.4756C95.2344 57.2838 96.2717 58.0101 96.4635 59.0979L97.8464 66.9407ZM95.2495 52.2132C95.4413 53.301 94.715 54.3383 93.6272 54.5301L73.5056 58.0781C72.6923 58.2215 72.1492 58.9972 72.2926 59.8105L74.8894 74.538C75.0328 75.3513 75.8085 75.8945 76.6219 75.7511L96.7434 72.2031C97.8312 72.0113 98.8685 72.7376 99.0603 73.8254L100.963 84.6136C101.154 85.7014 100.428 86.7387 99.3403 86.9305L23.2544 100.347C20.8142 100.777 18.4873 99.1475 18.0571 96.7073L10.3099 52.7707C10.2921 52.6697 10.4042 52.5764 10.4973 52.6194C10.643 52.6879 10.7908 52.7423 10.9394 52.8012C11.214 52.9089 11.4949 53.0003 11.7803 53.075C11.9393 53.1153 12.098 53.1542 12.2551 53.1842C12.5571 53.2401 12.8623 53.2764 13.1688 53.2934C13.3117 53.3031 13.4518 53.3224 13.5947 53.323C14.0467 53.3291 14.4986 53.2942 14.9445 53.2187L91.0304 39.8027C92.1181 39.6109 93.1555 40.3372 93.3473 41.425L95.2495 52.2132ZM46.2571 44.6603C45.0579 44.8718 43.9354 43.9606 44.1624 42.7643C45.0565 38.0532 49.1203 34.4231 54.1128 34.2634C57.9759 34.1398 61.522 36.1467 63.4401 39.3659C64.0633 40.4119 63.3205 41.6516 62.1214 41.863L46.2571 44.6603ZM92.1333 34.5403C92.3251 35.6281 91.5988 36.6654 90.511 36.8572L69.113 40.6302C68.1123 40.8067 67.1529 40.1957 66.7382 39.268C64.0244 33.1972 57.1661 29.929 50.6193 31.8763C45.1996 33.4884 41.4296 38.2834 41.0318 43.8015C40.9588 44.815 40.2661 45.7167 39.2654 45.8932L17.8674 49.6662C16.7797 49.858 15.7423 49.1317 15.5505 48.0439L13.1289 34.3102C12.9371 33.2224 13.6634 32.1851 14.7512 31.9932L87.3948 19.1842C88.4826 18.9924 89.5199 19.7188 89.7117 20.8066L92.1333 34.5403Z" fill="url(#paint0_linear)"/>
<path d="M85.1261 22.3295L76.4305 23.8628L76.9416 26.7613L84.1879 25.4836L85.4656 32.7299L88.3641 32.2188L86.8309 23.5232C86.6897 22.7227 85.9264 22.1884 85.1261 22.3295Z" fill="#333333"/>
<path d="M85.1261 22.3295L76.4305 23.8628L76.9416 26.7613L84.1879 25.4836L85.4656 32.7299L88.3641 32.2188L86.8309 23.5232C86.6897 22.7227 85.9264 22.1884 85.1261 22.3295Z" fill="url(#paint1_linear)"/>
<path d="M18.4602 34.0845C17.6599 34.2257 17.1254 34.989 17.2665 35.7893L18.7998 44.4849L21.6983 43.9738L20.4206 36.7275L27.6669 35.4498L27.1558 32.5513L18.4602 34.0845Z" fill="#333333"/>
<path d="M18.4602 34.0845C17.6599 34.2257 17.1254 34.989 17.2665 35.7893L18.7998 44.4849L21.6983 43.9738L20.4206 36.7275L27.6669 35.4498L27.1558 32.5513L18.4602 34.0845Z" fill="url(#paint2_linear)"/>
<path d="M79.238 65.2085C79.3791 66.0089 80.1424 66.5434 80.9428 66.4022C81.7432 66.2611 82.2776 65.4978 82.1365 64.6974C81.9953 63.897 81.2321 63.3626 80.4317 63.5037C79.6313 63.6449 79.0968 64.4081 79.238 65.2085Z" fill="url(#paint3_linear)"/>
<defs>
<linearGradient id="paint0_linear" x1="29.4627" y1="8.25908" x2="89.8532" y2="-2.48285" gradientUnits="userSpaceOnUse">
<stop stop-opacity="0.3"/>
<stop offset="0.697917" stop-color="#0085FF" stop-opacity="0.12"/>
</linearGradient>
<linearGradient id="paint1_linear" x1="79.7139" y1="22.9255" x2="86.6471" y2="21.6923" gradientUnits="userSpaceOnUse">
<stop stop-opacity="0.3"/>
<stop offset="0.697917" stop-color="#0085FF" stop-opacity="0.12"/>
</linearGradient>
<linearGradient id="paint2_linear" x1="20.2943" y1="33.4028" x2="27.2275" y2="32.1696" gradientUnits="userSpaceOnUse">
<stop stop-opacity="0.3"/>
<stop offset="0.697917" stop-color="#0085FF" stop-opacity="0.12"/>
</linearGradient>
<linearGradient id="paint3_linear" x1="79.9205" y1="63.4915" x2="81.9014" y2="63.1391" gradientUnits="userSpaceOnUse">
<stop stop-opacity="0.3"/>
<stop offset="0.697917" stop-color="#0085FF" stop-opacity="0.12"/>
</linearGradient>
</defs>
</svg>
