<svg width="16" height="37" viewBox="0 0 16 37" fill="none" xmlns="http://www.w3.org/2000/svg"><path d="M.794 18.79a2.954 2.954 0 00.471 1.63l10.257 15.274c.348.52.848.847 1.39.91.543.061 1.083-.146 1.502-.579.419-.432.682-1.053.732-1.726.05-.673-.117-1.343-.465-1.863L5.49 18.79l8.861-13.646c.17-.26.298-.56.375-.881.077-.322.101-.66.073-.993a3.003 3.003 0 00-.24-.951 2.497 2.497 0 00-.515-.764 2 2 0 00-.727-.519 1.678 1.678 0 00-.833-.114 1.78 1.78 0 00-.801.308c-.247.17-.463.402-.634.681L1.142 17.186a3.02 3.02 0 00-.348 1.604z" fill="#fff"/></svg>