<svg width="100" height="100" viewBox="0 0 100 100" fill="none" xmlns="http://www.w3.org/2000/svg"><g clip-path="url(#clip0)"><path d="M95.91 22.065L50.506.145a1.466 1.466 0 00-1.274 0L3.828 22.066A1.465 1.465 0 003 23.384v53.232c0 .562.322 1.075.828 1.32l45.404 21.918a1.465 1.465 0 001.274 0L95.91 77.935c.506-.244.828-.757.828-1.319V23.384c0-.562-.322-1.075-.828-1.32zM49.869 3.09l42.034 20.293-12.185 5.882a1.448 1.448 0 00-.248-.156L37.721 8.956 49.87 3.092zm-15.456 7.521l41.974 20.263-8.597 4.15L25.834 14.77l8.58-4.158zM77.37 33.654v15.34l-8.03 3.877v-15.34l8.03-3.877zm16.439 42.043L51.334 96.201V46.222l10.131-4.89a1.465 1.465 0 10-1.274-2.639L49.87 43.676l-4.062-1.96a1.464 1.464 0 10-1.274 2.638l3.87 1.868v49.98L5.93 75.696v-49.98l32.343 15.615a1.465 1.465 0 101.274-2.638L7.834 23.384l14.552-7.025 44.003 21.243.02.025v17.578a1.465 1.465 0 002.102 1.32l10.96-5.291c.506-.245.827-.757.827-1.32V32.24l13.51-6.522v49.979z" fill="#32456E"/><path d="M95.91 22.065L50.506.145a1.466 1.466 0 00-1.274 0L3.828 22.066A1.465 1.465 0 003 23.384v53.232c0 .562.322 1.075.828 1.32l45.404 21.918a1.465 1.465 0 001.274 0L95.91 77.935c.506-.244.828-.757.828-1.319V23.384c0-.562-.322-1.075-.828-1.32zM49.869 3.09l42.034 20.293-12.185 5.882a1.448 1.448 0 00-.248-.156L37.721 8.956 49.87 3.092zm-15.456 7.521l41.974 20.263-8.597 4.15L25.834 14.77l8.58-4.158zM77.37 33.654v15.34l-8.03 3.877v-15.34l8.03-3.877zm16.439 42.043L51.334 96.201V46.222l10.131-4.89a1.465 1.465 0 10-1.274-2.639L49.87 43.676l-4.062-1.96a1.464 1.464 0 10-1.274 2.638l3.87 1.868v49.98L5.93 75.696v-49.98l32.343 15.615a1.465 1.465 0 101.274-2.638L7.834 23.384l14.552-7.025 44.003 21.243.02.025v17.578a1.465 1.465 0 002.102 1.32l10.96-5.291c.506-.245.827-.757.827-1.32V32.24l13.51-6.522v49.979z" fill="url(#paint0_linear)"/><path d="M18.15 70.015L11.487 66.8a1.464 1.464 0 10-1.274 2.638l6.663 3.217a1.465 1.465 0 001.274-2.638z" fill="#32456E"/><path d="M18.15 70.015L11.487 66.8a1.464 1.464 0 10-1.274 2.638l6.663 3.217a1.465 1.465 0 001.274-2.638z" fill="url(#paint1_linear)"/><path d="M24.282 66.024L11.496 59.85a1.465 1.465 0 10-1.274 2.639l12.786 6.172a1.46 1.46 0 001.956-.682 1.465 1.465 0 00-.682-1.956z" fill="#32456E"/><path d="M24.282 66.024L11.496 59.85a1.465 1.465 0 10-1.274 2.639l12.786 6.172a1.46 1.46 0 001.956-.682 1.465 1.465 0 00-.682-1.956z" fill="url(#paint2_linear)"/></g><defs><linearGradient id="paint0_linear" x1="33.904" y1="-3.426" x2="97.983" y2="-3.516" gradientUnits="userSpaceOnUse"><stop stop-opacity=".3"/><stop offset=".698" stop-color="#0085FF" stop-opacity=".12"/></linearGradient><linearGradient id="paint1_linear" x1="12.547" y1="66.442" x2="19.105" y2="66.427" gradientUnits="userSpaceOnUse"><stop stop-opacity=".3"/><stop offset=".698" stop-color="#0085FF" stop-opacity=".12"/></linearGradient><linearGradient id="paint2_linear" x1="14.575" y1="59.393" x2="25.319" y2="59.365" gradientUnits="userSpaceOnUse"><stop stop-opacity=".3"/><stop offset=".698" stop-color="#0085FF" stop-opacity=".12"/></linearGradient><clipPath id="clip0"><path fill="#fff" d="M0 0h100v100H0z"/></clipPath></defs></svg>