<svg width="47" height="12" viewBox="0 0 47 12" fill="none" xmlns="http://www.w3.org/2000/svg"><path fill-rule="evenodd" clip-rule="evenodd" d="M44.202 6.507c-1.19-.189-2.25-.247-2.25-.886 0-.247.144-.508.377-.682.204-.16.74-.218 1.103-.218.378 0 .756.189.988.436.145.174.319.45.349.74H46.7c-.044-.71-.349-1.408-.9-1.8-.538-.392-1.235-.872-2.194-.872-.914 0-1.814.03-2.438.494-.626.45-1.075 1.205-1.075 1.859 0 .378-.029.827.116 1.103.16.276.624.843.987 1.06.509.29 1.7.407 2.353.581.537.13 1.19.16 1.336.698a.687.687 0 01-.305.798c-.276.188-.697.319-1.162.319-.48 0-.944-.145-1.176-.435-.203-.276-.32-.538-.48-.959h-1.931c.043.886.538 1.757 1.147 2.251.595.48 1.394.711 2.41.711 1.017 0 1.903-.174 2.557-.639.638-.464.986-1.335.986-2.046 0-.61-.174-1.09-.45-1.467-.565-.74-1.582-.944-2.279-1.046zm-25.18 4.967h1.961V3.341h-1.96v8.133zm0-8.684h1.976V.83h-1.976v1.96zm-2.86 1.626c-.726-.567-1.655-.958-2.672-.987h-.102c-2.25 0-4.08 1.83-4.08 4.066 0 2.25 1.83 4.095 4.08 4.095h.102a3.849 3.849 0 002.658-1.118l.014 1.003h1.859V.83h-1.86v3.586zM13.505 9.92h-.015a2.43 2.43 0 01-2.425-2.425A2.438 2.438 0 0113.49 5.07h.015a2.439 2.439 0 012.425 2.425 2.439 2.439 0 01-2.425 2.425zM28.33 4.387c-.725-.567-1.655-.959-2.672-.987h-.101c-2.25 0-4.095 1.844-4.095 4.08a4.109 4.109 0 004.095 4.095h.101c1.017-.029 1.931-.436 2.658-1.133v1.002h1.858V.815h-1.858l.014 3.572zm-2.67 5.518a2.454 2.454 0 01-2.44-2.44c0-1.321 1.104-2.41 2.44-2.41 1.336 0 2.44 1.09 2.44 2.41a2.455 2.455 0 01-2.44 2.44zM6.694 3.341v.77c-.378-.406-.552-.537-.987-.697a4.786 4.786 0 00-1.453-.29h-.087c-.624 0-1.176.1-1.67.304a3.94 3.94 0 00-1.335.959 4.5 4.5 0 00-.871 1.35A4.512 4.512 0 000 7.336C0 8.569.407 9.6 1.22 10.399c.799.812 1.815 1.234 3.035 1.234h.014c.494 0 1.031-.145 1.467-.305.435-.16.755-.29.958-.58v.74l1.888-.014-.015-8.147-1.873.014zM4.269 9.79h-.014a2.404 2.404 0 01-2.41-2.41 2.413 2.413 0 012.41-2.41h.014a2.423 2.423 0 012.41 2.41 2.413 2.413 0 01-2.41 2.41zm33.224-6.477l.014.77c-.377-.392-.565-.523-.986-.698a4.889 4.889 0 00-1.452-.275h-.087a4.61 4.61 0 00-1.67.29c-.495.204-.945.538-1.337.96a3.937 3.937 0 00-.871 1.365 4.473 4.473 0 00-.305 1.597c0 1.22.42 2.25 1.235 3.063.783.799 1.815 1.22 3.035 1.22a4 4 0 001.466-.304c.436-.16.77-.291.973-.581v.74l1.887-.014-.028-8.132h-1.873zM35.07 9.774c-1.337-.014-2.426-1.089-2.426-2.425 0-1.321 1.09-2.396 2.426-2.41a2.426 2.426 0 012.424 2.41 2.43 2.43 0 01-2.424 2.425z" fill="#333"/></svg>