<svg width="27" height="27" viewBox="0 0 27 27" fill="none" xmlns="http://www.w3.org/2000/svg"><g clip-path="url(#clip0)" stroke="#fff" stroke-width="2" stroke-linecap="round" stroke-linejoin="round"><path d="M10.111 23.901c.62 0 1.124-.486 1.124-1.086 0-.6-.503-1.087-1.124-1.087-.62 0-1.123.487-1.123 1.087S9.49 23.9 10.11 23.9zm12.359 0c.62 0 1.123-.486 1.123-1.086 0-.6-.503-1.087-1.124-1.087-.62 0-1.123.487-1.123 1.087s.503 1.086 1.123 1.086zM1.123 1.086h4.494l3.011 14.548c.103.5.384.95.795 1.269.411.32.925.49 1.452.48h10.92a2.29 2.29 0 001.452-.48c.411-.32.693-.77.795-1.27L25.84 6.52H6.74"/></g><defs><clipPath id="clip0"><path fill="#fff" d="M0 0h26.963v26.074H0z"/></clipPath></defs></svg>