<svg width="27" height="28" viewBox="0 0 27 28" fill="none" xmlns="http://www.w3.org/2000/svg"><g clip-path="url(#clip0)"><path d="M27 13.6c0 7.457-6.044 13.5-13.5 13.5S0 21.057 0 13.6C0 6.146 6.044.1 13.5.1S27 6.146 27 13.6z" fill="#4A7AFF"/><path d="M14.092 27.087C21.273 26.777 27 20.857 27 13.6l-.002-.158-9.37-9.37-10.02 10.472 5.567 5.567-2.567 3.49 3.484 3.485z" fill="#4A7AFF"/><path d="M17.627 4.072v3.057s-3.51-.51-3.51 1.755v2.264h3.17l-.396 3.453h-2.774v9h-3.51v-9l-3-.057v-3.396h2.944V8.544s-.194-3.874 3.623-4.585c1.585-.296 3.453.113 3.453.113z" fill="#fff"/><path d="M17.627 7.129V4.072s-1.868-.409-3.453-.113a5.348 5.348 0 00-.693.176v19.467h.636v-9h2.774l.396-3.454h-3.17V8.884c0-2.264 3.51-1.755 3.51-1.755z" fill="#fff"/></g><defs><clipPath id="clip0"><path fill="#fff" transform="translate(0 .1)" d="M0 0h27v27H0z"/></clipPath></defs></svg>