<svg width="100" height="72" viewBox="0 0 100 72" fill="none" xmlns="http://www.w3.org/2000/svg"><path fill-rule="evenodd" clip-rule="evenodd" d="M42.91 64.448H25.362c5.244 3.292 11.381 5.477 18.363 6.944l-.815-6.944zm13.38.015l-1.045 6.522c7.013-1.31 13.196-3.37 18.564-6.522H56.29zm-2.014-.031l-9.643.015c1.353 2.855 3.076 5.259 5.044 7.553 1.938-2.341 3.23-4.76 4.599-7.568zm25.946-4.338l-61.381-.032c-2.046-1.654-3.43-2.512-5.076-4.712h71.609c-1.6 1.78-3.43 3.386-5.152 4.744zm9.15-10.143l-79.329.03c-1.06-1.497-2.276-3.603-3.03-5.273h85.39c-.8 1.872-1.877 3.604-3.03 5.243zM32.605 38.996l-27.699.016C2.37 33.066.77 26.934 0 19.319c14.273 2.574 25.285 8.52 32.605 19.677zm28.377.047H38.204C37.696 24.172 41.757 9.082 49.6 0c7.967 8.848 12.09 23.875 11.382 39.043zm33.758-.031l-28.238.016C74.3 27.9 85.497 21.613 100 19.38c-.907 7.444-2.599 13.763-5.26 19.63z" fill="#fff"/></svg>