<svg width="25" height="25" viewBox="0 0 25 25" fill="none" xmlns="http://www.w3.org/2000/svg"><path d="M18.946.012c-.32.033-.633.114-.93.239v-.03c-.014.004-.045.026-.06.03-2.335.82-6.806 2.873-10.855 6.914-4.078 4.07-6.045 8.616-6.927 10.865v.03a3.433 3.433 0 00.66 3.323l.03.03v.029l2.879 2.843.12.12c.794.793 2.174.793 2.969 0l3.928-3.92c.795-.794.795-2.2 0-2.994l-1.89-1.885c.33-.685 1.185-2.368 2.7-3.95 1.502-1.573 3.226-2.374 3.898-2.666l1.98 1.976.088.06c.45.299.964.467 1.5.448.502-.019 1.023-.265 1.409-.688l.03.03.06-.09 3.87-3.83c.794-.794.794-2.2 0-2.994L21.434.94a3.3 3.3 0 00-1.59-.868 2.89 2.89 0 00-.9-.06h.001zm.15 1.915a1.27 1.27 0 01.96.36l2.998 2.963c.165.164.165.105 0 .269L19.037 9.53c.004-.004 0 .026-.09.03-.075.003-.187-.06-.3-.12h-.06l-2.25-2.276-.45-.449-.569.21s-2.95 1.1-5.158 3.412c-2.17 2.267-3.358 5.057-3.358 5.057l-.24.6.45.479 2.399 2.394c.164.165.164.106 0 .27l-3.929 3.92c-.165.165-.105.165-.27 0l-2.938-2.903c-.008-.007.007-.022 0-.03l-.03-.03c-.334-.415-.435-.857-.27-1.377.003-.01-.004-.018 0-.029.85-2.163 2.724-6.402 6.507-10.177 3.797-3.79 8.104-5.74 10.195-6.465l.03-.03h.03c.116-.053.24-.082.36-.09z" fill="#fff"/></svg>