<svg width="27" height="28" viewBox="0 0 27 28" fill="none" xmlns="http://www.w3.org/2000/svg"><g clip-path="url(#clip0)"><path d="M13.5 27.1c7.456 0 13.5-6.044 13.5-13.5C27 6.146 20.956.1 13.5.1S0 6.146 0 13.6c0 7.456 6.044 13.5 13.5 13.5z" fill="#039BE5"/><path d="M6.177 13.308L19.194 8.29c.604-.218 1.131.148.936 1.061l-2.215 10.44c-.165.74-.605.92-1.22.572l-3.375-2.487-1.628 1.568c-.18.18-.332.332-.68.332l.24-3.435 6.254-5.65c.272-.24-.06-.375-.42-.137l-7.73 4.867-3.332-1.04c-.723-.23-.739-.723.153-1.072z" fill="#fff"/></g><defs><clipPath id="clip0"><path fill="#fff" transform="translate(0 .1)" d="M0 0h27v27H0z"/></clipPath></defs></svg>