<svg width="27" height="28" viewBox="0 0 27 28" fill="none" xmlns="http://www.w3.org/2000/svg"><path d="M20.462.012a3.533 3.533 0 00-1.004.26V.238c-.016.004-.05.028-.065.032-2.522.887-7.351 3.11-11.724 7.481C3.265 12.157 1.14 17.075.188 19.51v.032a3.72 3.72 0 00.713 3.595l.032.032v.032l3.11 3.077.129.13c.858.858 2.348.858 3.206 0l4.243-4.243c.858-.858.858-2.38 0-3.239l-2.04-2.04c.356-.74 1.278-2.562 2.915-4.274 1.621-1.702 3.484-2.568 4.21-2.884l2.137 2.138.096.064c.486.324 1.04.507 1.62.486.542-.02 1.105-.287 1.521-.745l.034.032.064-.097 4.178-4.145c.858-.858.858-2.38 0-3.238L23.15 1.016a3.563 3.563 0 00-1.717-.939 3.116 3.116 0 00-.971-.065zm.161 2.073a1.37 1.37 0 011.037.388l3.238 3.207c.179.178.179.114 0 .291l-4.338 4.341c.004-.004 0 .028-.097.032-.081.004-.202-.065-.325-.13h-.064l-2.43-2.462-.485-.486-.616.227s-3.185 1.19-5.57 3.693c-2.344 2.453-3.627 5.472-3.627 5.472l-.26.648.487.518 2.59 2.591c.178.179.178.114 0 .292l-4.242 4.242c-.178.179-.114.179-.291 0l-3.175-3.142c-.008-.007.009-.024 0-.03l-.032-.034c-.36-.45-.47-.928-.292-1.49.004-.012-.003-.02 0-.031.92-2.341 2.943-6.927 7.029-11.013 4.1-4.1 8.751-6.21 11.01-6.995l.033-.032h.032c.125-.057.259-.089.388-.097z" fill="#333"/></svg>