<svg width="27" height="28" viewBox="0 0 27 28" fill="none" xmlns="http://www.w3.org/2000/svg"><g clip-path="url(#clip0)"><path d="M27 13.6c0 7.457-6.044 13.5-13.5 13.5S0 21.057 0 13.6C0 6.146 6.044.1 13.5.1S27 6.146 27 13.6z" fill="#9330B2"/><path d="M15.303 4.724h-3.606A6.564 6.564 0 005.14 11.28v2.506c0 1.728.7 3.393 1.91 4.614v3.311a.913.913 0 001.367.79l3.745-2.158h3.141a6.564 6.564 0 006.557-6.557V11.28a6.564 6.564 0 00-6.557-6.557zm5.161 9.165a5.016 5.016 0 01-5.002 5.002h-2.938l-4.608 2.821v-4.384a4.982 4.982 0 01-1.38-3.438v-2.712a5.016 5.016 0 015.002-5.002h3.924a5.017 5.017 0 015.002 5.002v2.711z" fill="#fff"/><path d="M12.546 8.766a.24.24 0 01.063-.384c1.269-.632 2.949-.28 4.085.855 1.135 1.136 1.487 2.815.855 4.084a.24.24 0 01-.429-.214c.541-1.087.227-2.539-.765-3.53-.993-.993-2.445-1.308-3.533-.766a.24.24 0 01-.276-.045z" fill="#fff"/><path d="M13.09 9.82a.24.24 0 01.068-.386c.873-.408 1.974-.167 2.74.6.766.765 1.007 1.866.6 2.737a.24.24 0 01-.435-.203c.323-.69.12-1.572-.504-2.196-.624-.624-1.507-.827-2.198-.504a.24.24 0 01-.27-.047z" fill="#fff"/><path d="M13.629 10.874a.24.24 0 01.084-.393c.46-.175 1.006-.04 1.391.345.385.385.522.931.347 1.39a.24.24 0 11-.448-.169c.106-.28.01-.634-.238-.882-.247-.248-.602-.343-.882-.236a.24.24 0 01-.254-.055zm-1.729-.42L10.235 8.79c-.211-.21-.51-.26-.664-.107l-.16.161c-.784.783-.929 1.926-.292 2.702.79.963 1.669 1.938 2.514 2.75a32.654 32.654 0 002.75 2.515c.777.636 1.919.491 2.702-.292l.161-.161c.154-.153.104-.452-.107-.663l-1.663-1.664c-.395-.394-.655-.34-.81-.186 0 0-.209.213-.247.257-.15.15-.528.182-.87-.032-.312-.195-.635-.479-.924-.765-.287-.29-.57-.612-.766-.924-.214-.342-.18-.72-.03-.87h-.002c.045-.039.258-.248.258-.248.153-.154.208-.415-.187-.81z" fill="#fff"/></g><defs><clipPath id="clip0"><path fill="#fff" transform="translate(0 .1)" d="M0 0h27v27H0z"/></clipPath></defs></svg>