<svg width="105" height="105" viewBox="0 0 105 105" fill="none" xmlns="http://www.w3.org/2000/svg"><path d="M91.769 16.21c-.556-.726-1.602-1.173-1.933-2.026L85.39 2.735a1.496 1.496 0 00-1.936-.852L13.228 29.186a2.003 2.003 0 01-.378.105l-2.06.364a1.496 1.496 0 00-1.214 1.732l1.04 5.9c.166.937-.372 1.838-1.161 2.37a7.461 7.461 0 00-3.173 7.496l8.83 50.074a7.486 7.486 0 008.662 6.065l79.528-14.023a1.496 1.496 0 001.213-1.732L92.05 16.845a1.489 1.489 0 00-.281-.634zM81.277 5.939a2 2 0 012.589 1.14l2.642 6.8a2 2 0 01-1.517 2.693l-36.836 6.495c-2.38.42-3.325-2.958-1.072-3.833L81.277 5.938zM9.951 43.288a.005.005 0 01.007-.002c.002.001.005 0 .007-.002.149-.21.315-.407.496-.589.425-.425 1.088-.123 1.192.47l1.234 6.997c.009.05-.034.098-.085.089a4.405 4.405 0 01-.599-.17c-.097-.032-.198-.054-.294-.1a4.615 4.615 0 01-.838-.447 4.498 4.498 0 01-1.12-6.246zM97.846 66.94a2 2 0 01-1.622 2.317l-16.68 2.94a2 2 0 01-2.316-1.622l-1.383-7.842a2 2 0 011.622-2.317l16.68-2.941a2 2 0 012.316 1.622l1.383 7.843zM95.25 52.213a2 2 0 01-1.622 2.317l-20.121 3.548a1.495 1.495 0 00-1.213 1.732l2.596 14.728c.144.813.92 1.356 1.733 1.213l20.121-3.548a2 2 0 012.317 1.622l1.903 10.789a2 2 0 01-1.623 2.316l-76.086 13.417a4.487 4.487 0 01-5.197-3.64L10.31 52.771c-.018-.101.094-.195.187-.152.146.069.294.123.442.182a7.514 7.514 0 001.316.383c.302.056.607.092.914.11.143.01.283.028.426.029a7.54 7.54 0 001.35-.104L91.03 39.803a2 2 0 012.317 1.622l1.903 10.788zM46.258 44.66c-1.2.212-2.322-.7-2.095-1.896a10.47 10.47 0 0119.278-3.398c.623 1.046-.12 2.286-1.319 2.497L46.257 44.66zm45.876-10.12a2 2 0 01-1.622 2.317L69.113 40.63c-1 .177-1.96-.434-2.375-1.362-2.714-6.07-9.572-9.339-16.119-7.392a13.461 13.461 0 00-9.587 11.925c-.073 1.014-.766 1.916-1.767 2.092l-21.398 3.773a2 2 0 01-2.317-1.622L13.13 34.31a2 2 0 011.622-2.317l72.644-12.809a2 2 0 012.317 1.623l2.421 13.733z" fill="#32456E"/><path d="M91.769 16.21c-.556-.726-1.602-1.173-1.933-2.026L85.39 2.735a1.496 1.496 0 00-1.936-.852L13.228 29.186a2.003 2.003 0 01-.378.105l-2.06.364a1.496 1.496 0 00-1.214 1.732l1.04 5.9c.166.937-.372 1.838-1.161 2.37a7.461 7.461 0 00-3.173 7.496l8.83 50.074a7.486 7.486 0 008.662 6.065l79.528-14.023a1.496 1.496 0 001.213-1.732L92.05 16.845a1.489 1.489 0 00-.281-.634zM81.277 5.939a2 2 0 012.589 1.14l2.642 6.8a2 2 0 01-1.517 2.693l-36.836 6.495c-2.38.42-3.325-2.958-1.072-3.833L81.277 5.938zM9.951 43.288a.005.005 0 01.007-.002c.002.001.005 0 .007-.002.149-.21.315-.407.496-.589.425-.425 1.088-.123 1.192.47l1.234 6.997c.009.05-.034.098-.085.089a4.405 4.405 0 01-.599-.17c-.097-.032-.198-.054-.294-.1a4.615 4.615 0 01-.838-.447 4.498 4.498 0 01-1.12-6.246zM97.846 66.94a2 2 0 01-1.622 2.317l-16.68 2.94a2 2 0 01-2.316-1.622l-1.383-7.842a2 2 0 011.622-2.317l16.68-2.941a2 2 0 012.316 1.622l1.383 7.843zM95.25 52.213a2 2 0 01-1.622 2.317l-20.121 3.548a1.495 1.495 0 00-1.213 1.732l2.596 14.728c.144.813.92 1.356 1.733 1.213l20.121-3.548a2 2 0 012.317 1.622l1.903 10.789a2 2 0 01-1.623 2.316l-76.086 13.417a4.487 4.487 0 01-5.197-3.64L10.31 52.771c-.018-.101.094-.195.187-.152.146.069.294.123.442.182a7.514 7.514 0 001.316.383c.302.056.607.092.914.11.143.01.283.028.426.029a7.54 7.54 0 001.35-.104L91.03 39.803a2 2 0 012.317 1.622l1.903 10.788zM46.258 44.66c-1.2.212-2.322-.7-2.095-1.896a10.47 10.47 0 0119.278-3.398c.623 1.046-.12 2.286-1.319 2.497L46.257 44.66zm45.876-10.12a2 2 0 01-1.622 2.317L69.113 40.63c-1 .177-1.96-.434-2.375-1.362-2.714-6.07-9.572-9.339-16.119-7.392a13.461 13.461 0 00-9.587 11.925c-.073 1.014-.766 1.916-1.767 2.092l-21.398 3.773a2 2 0 01-2.317-1.622L13.13 34.31a2 2 0 011.622-2.317l72.644-12.809a2 2 0 012.317 1.623l2.421 13.733z" fill="url(#paint0_linear)"/><path d="M85.126 22.33l-8.696 1.533.512 2.898 7.246-1.277 1.278 7.246 2.898-.511-1.533-8.696a1.472 1.472 0 00-1.705-1.194z" fill="#333"/><path d="M85.126 22.33l-8.696 1.533.512 2.898 7.246-1.277 1.278 7.246 2.898-.511-1.533-8.696a1.472 1.472 0 00-1.705-1.194z" fill="url(#paint1_linear)"/><path d="M18.46 34.084c-.8.142-1.335.905-1.194 1.705l1.534 8.696 2.898-.511-1.277-7.246 7.246-1.278-.511-2.899-8.696 1.533z" fill="#333"/><path d="M18.46 34.084c-.8.142-1.335.905-1.194 1.705l1.534 8.696 2.898-.511-1.277-7.246 7.246-1.278-.511-2.899-8.696 1.533z" fill="url(#paint2_linear)"/><path d="M79.238 65.209a1.472 1.472 0 102.898-.511 1.472 1.472 0 00-2.898.51z" fill="url(#paint3_linear)"/><defs><linearGradient id="paint0_linear" x1="29.463" y1="8.259" x2="89.853" y2="-2.483" gradientUnits="userSpaceOnUse"><stop stop-opacity=".3"/><stop offset=".698" stop-color="#0085FF" stop-opacity=".12"/></linearGradient><linearGradient id="paint1_linear" x1="79.714" y1="22.925" x2="86.647" y2="21.692" gradientUnits="userSpaceOnUse"><stop stop-opacity=".3"/><stop offset=".698" stop-color="#0085FF" stop-opacity=".12"/></linearGradient><linearGradient id="paint2_linear" x1="20.294" y1="33.403" x2="27.227" y2="32.17" gradientUnits="userSpaceOnUse"><stop stop-opacity=".3"/><stop offset=".698" stop-color="#0085FF" stop-opacity=".12"/></linearGradient><linearGradient id="paint3_linear" x1="79.921" y1="63.492" x2="81.901" y2="63.139" gradientUnits="userSpaceOnUse"><stop stop-opacity=".3"/><stop offset=".698" stop-color="#0085FF" stop-opacity=".12"/></linearGradient></defs></svg>