<svg width="100" height="100" viewBox="0 0 100 100" fill="none" xmlns="http://www.w3.org/2000/svg"><path d="M40.625 62.5h-12.5a1.563 1.563 0 00-1.563 1.563v9.374A1.563 1.563 0 0028.125 75h12.5a1.562 1.562 0 001.563-1.563v-9.374a1.563 1.563 0 00-1.563-1.563zm-1.563 9.375h-9.374v-6.25h9.375v6.25zM79.06 18.966a5.944 5.944 0 00-3.38-4.09l-1.975-.872-7.327-8.955a5.227 5.227 0 00-4.06-1.924 6.29 6.29 0 00-5.656 3.496 12.5 12.5 0 01-9.648 6.827l-5.02.627a1.562 1.562 0 00-1.257.97L31.631 37.81l-3.88 1.294a8.582 8.582 0 00-5.876 8.152v4.115l-1.516 6.064c-.002.007-.047 20.714-.047 20.714a3.52 3.52 0 00-3.125 3.493v3.328a3.515 3.515 0 00-1.562 2.922v4.296a1.563 1.563 0 001.563 1.563h34.374a1.562 1.562 0 001.563-1.563v-4.296a3.516 3.516 0 00-1.563-2.922v-3.328a3.52 3.52 0 00-3.124-3.493s-.034-20.654-.043-20.692l-.004-.022-1.563-6.25a1.561 1.561 0 00-.053-.17l30.384-26.24a5.905 5.905 0 001.9-5.808zm-16.93 2.456l-1.057-5.284 5.659-5.658.028-.031 3.594 4.393-8.224 6.58zM25 47.255a5.461 5.461 0 013.74-5.188l4.567-1.522a1.561 1.561 0 00.957-.902l1.486-3.718c.063.008.125.012.188.013h3.124a1.562 1.562 0 100-3.126h-2.067l1.25-3.124h3.943a1.562 1.562 0 100-3.125h-2.693l1.25-3.125h4.568a1.562 1.562 0 100-3.125h-3.318l1.3-3.252 4.105-.513a15.618 15.618 0 0012.057-8.53 3.18 3.18 0 012.86-1.768 2.112 2.112 0 011.641.777l.838 1.025c-.1.062-.193.135-.276.218l-6.25 6.25a1.563 1.563 0 00-.428 1.411l1.538 7.689-4.107 3.285a1.561 1.561 0 00-.364.416l-4.55 7.586L32.246 50H25v-2.745zm19.093 5.87l.78 3.125H23.877l.781-3.125h19.436zm-20.656 6.25h21.875v18.75H23.439v-18.75zm-3.125 22.266a.39.39 0 01.391-.391h27.344a.39.39 0 01.39.39v2.735H20.314v-2.734zM50 90.625H18.75v-2.734a.39.39 0 01.39-.391h30.47a.39.39 0 01.39.39v2.735zm25.117-68.216L43.168 50h-6.04l15.435-12.862a1.54 1.54 0 00.34-.397l4.543-7.571 15.245-12.197 1.727.761a2.795 2.795 0 01.699 4.674zm10.82 13.354h-12.5a1.562 1.562 0 110-3.125h12.5a1.562 1.562 0 110 3.125zm.313 11.112a1.563 1.563 0 01-1.563 1.563h-12.5a1.563 1.563 0 110-3.126h12.5a1.562 1.562 0 011.563 1.563zm0-6.25a1.563 1.563 0 01-1.563 1.563H67.5a1.563 1.563 0 110-3.126h17.188a1.562 1.562 0 011.562 1.563zM23.953 18.75a1.562 1.562 0 11-3.125 0v-3.125a1.563 1.563 0 013.125 0v3.125zm-7.547-.572l2.707 1.563a1.564 1.564 0 11-1.563 2.706l-2.706-1.563a1.564 1.564 0 111.562-2.706zm-1.562 7.813l2.706-1.563a1.562 1.562 0 111.563 2.706l-2.707 1.563a1.563 1.563 0 11-1.562-2.706zm9.11 2.134v3.125a1.562 1.562 0 11-3.126 0v-3.125a1.563 1.563 0 013.125 0zm6.556 0a1.563 1.563 0 01-2.135.572l-2.706-1.563a1.562 1.562 0 111.563-2.706l2.706 1.563a1.562 1.562 0 01.572 2.134zm-.572-7.24l-2.706 1.562a1.563 1.563 0 01-1.563-2.706l2.706-1.563a1.563 1.563 0 111.563 2.706zM83.65 4.061v-2.5a1.563 1.563 0 113.125 0v2.5a1.563 1.563 0 01-3.125 0zm-.332 2.657a1.562 1.562 0 01-2.135.572l-2.165-1.25a1.564 1.564 0 111.563-2.707l2.165 1.25a1.562 1.562 0 01.572 2.135zm0 2.187a1.562 1.562 0 01-.572 2.135l-2.165 1.25a1.562 1.562 0 01-1.563-2.707l2.165-1.25a1.562 1.562 0 012.135.572zm.332 2.656a1.563 1.563 0 013.125 0v2.5a1.563 1.563 0 01-3.125 0v-2.5zm4.029-.521a1.56 1.56 0 01-.581-2.14 1.562 1.562 0 012.143-.567l2.165 1.25a1.562 1.562 0 11-1.562 2.707l-2.165-1.25zm3.727-5l-2.165 1.25a1.563 1.563 0 01-1.562-2.707l2.165-1.25a1.563 1.563 0 111.562 2.707zM61.775 50.938a1.563 1.563 0 01-3.125 0v-2.5a1.563 1.563 0 013.125 0v2.5zm-3.457 2.656a1.562 1.562 0 01-2.135.572l-2.165-1.25a1.562 1.562 0 011.563-2.707l2.165 1.25a1.563 1.563 0 01.572 2.135zm0 2.187a1.562 1.562 0 01-.572 2.135l-2.165 1.25a1.562 1.562 0 11-1.563-2.707l2.165-1.25a1.562 1.562 0 012.135.572zm3.457 2.657v2.5a1.563 1.563 0 01-3.125 0v-2.5a1.563 1.563 0 013.125 0zm5.203.156a1.562 1.562 0 01-2.134.572l-2.165-1.25a1.562 1.562 0 011.562-2.707l2.165 1.25a1.563 1.563 0 01.572 2.135zm-.572-5.678l-2.165 1.25a1.563 1.563 0 11-1.562-2.707l2.165-1.25a1.562 1.562 0 011.562 2.707z" fill="url(#paint0_linear)"/><defs><linearGradient id="paint0_linear" x1="6.122" y1="83.331" x2="88.8" y2=".653" gradientUnits="userSpaceOnUse"><stop stop-color="#0085FF"/><stop offset=".641" stop-color="#E63B60"/></linearGradient></defs></svg>