<svg width="100" height="100" viewBox="0 0 100 100" fill="none" xmlns="http://www.w3.org/2000/svg"><g clip-path="url(#clip0)"><path d="M95.374 25H85.43c6.055-4.864 7.015-13.71 2.144-19.756A14.078 14.078 0 0076.599 0H62.88A14.083 14.083 0 0050 8.39 14.083 14.083 0 0037.12 0H23.401C15.631-.006 9.326 6.28 9.32 14.041a14.045 14.045 0 005.25 10.96H4.627c-.864 0-1.565.7-1.565 1.562V42.19c0 .862.7 1.562 1.565 1.562h3.13V92.19c0 .863.7 1.562 1.564 1.562h81.36c.864 0 1.565-.7 1.565-1.562V43.75h3.13c.863 0 1.564-.7 1.564-1.562V26.563c0-.863-.7-1.562-1.565-1.562zM73.824 3.256c.127-.019.252-.044.38-.06.395-.045.794-.068 1.193-.07h1.202c6.045.007 10.945 4.9 10.952 10.938C87.544 20.1 82.644 24.993 76.599 25h-3.676c6.05-4.868 7.001-13.712 2.127-19.752a14.053 14.053 0 00-1.836-1.883c.202-.042.406-.08.61-.111zm-4.06 1.5c5.163 3.12 6.815 9.829 3.69 14.984a10.928 10.928 0 01-9.372 5.262H58.65l6.712-15.323a10.913 10.913 0 014.401-4.923zm-11.076 23.37h10.685l7.39 14.762 5.127 10.24H76.6c-.493 0-.957.231-1.252.624l-3.11 4.141-7.44-16.344-6.109-13.422zm2.253 12.501h-3.118v-6.85l3.118 6.85zM30.236 4.755a10.912 10.912 0 014.4 4.923l6.713 15.323h-5.43c-6.035.014-10.938-4.86-10.952-10.886a10.908 10.908 0 015.269-9.36zm11.076 23.37L35.21 41.543l-7.447 16.35-3.11-4.14a1.566 1.566 0 00-1.252-.626H18.11l5.135-10.239 7.382-14.761h10.685zM12.449 14.064c.007-6.038 4.906-10.931 10.952-10.938h1.202c.399.002.798.025 1.194.07.127.016.252.041.378.06.205.031.409.069.61.11-5.915 5.03-6.629 13.895-1.594 19.803.57.668 1.201 1.282 1.886 1.833H23.4c-6.046-.007-10.945-4.9-10.952-10.938zM6.19 40.626v-12.5h20.938l-6.258 12.5H6.19zm35.987 50.001H10.884V43.751h8.421l-5.127 10.24a1.562 1.562 0 001.4 2.26h7.041l4.224 5.626a1.566 1.566 0 001.421.615 1.564 1.564 0 001.252-.906l8.123-17.835h4.538v46.876zm0-50.001h-3.118l3.118-6.85v6.85zm-4.674-32.2a13.994 13.994 0 00-4.08-5.3h3.697c4.351 0 8.29 2.571 10.034 6.552l1.137 2.599-4.55 10.388-6.238-14.238zm17.19 82.201h-9.387V28.126h9.388v62.501zm-8.56-65.626l6.713-15.323A10.953 10.953 0 0162.88 3.125h3.705a13.994 13.994 0 00-4.08 5.302L55.234 25h-9.101zm42.983 65.626H57.823V43.751h4.538l8.12 17.835a1.565 1.565 0 002.675.29l4.225-5.625h7.04a1.564 1.564 0 001.409-2.26l-5.135-10.24h8.42v46.876zm4.694-50.001H79.13l-6.258-12.5H93.81v12.5z" fill="url(#paint0_linear)"/></g><defs><linearGradient id="paint0_linear" x1="-6.468" y1="83.333" x2="74.841" y2="-14.345" gradientUnits="userSpaceOnUse"><stop stop-color="#0085FF"/><stop offset=".641" stop-color="#E63B60"/></linearGradient><clipPath id="clip0"><path fill="#fff" d="M0 0h100v100H0z"/></clipPath></defs></svg>