<svg width="100" height="100" viewBox="0 0 100 100" fill="none" xmlns="http://www.w3.org/2000/svg"><path d="M71.188 83.184a13.985 13.985 0 005.468-1.107A14.058 14.058 0 0094.625 62.69V17.954A1.955 1.955 0 0092.672 16H5.953A1.955 1.955 0 004 17.953v49.219a1.955 1.955 0 001.953 1.953h51.172a14.078 14.078 0 0014.063 14.059zm4.42-27.409a14.028 14.028 0 00-14.894 3.975H24.216a12.507 12.507 0 00-10.841-10.841V36.216a12.508 12.508 0 0010.841-10.841H74.41a12.507 12.507 0 0010.84 10.841V48.91a12.416 12.416 0 00-7.277 3.564 12.6 12.6 0 00-2.365 3.302zM60.25 69.121A10.938 10.938 0 1171.188 80.06 10.95 10.95 0 0160.25 69.121zm32.188 3.646a10.938 10.938 0 01-12.22 7.124 14.04 14.04 0 00-.003-21.541 10.94 10.94 0 0112.222 14.417zM7.124 19.125H91.5v39.518a14.068 14.068 0 00-11.856-3.367 9.321 9.321 0 017.168-3.339 1.563 1.563 0 001.563-1.562V34.75a1.563 1.563 0 00-1.563-1.563 9.372 9.372 0 01-9.374-9.374 1.563 1.563 0 00-1.563-1.563H22.75a1.563 1.563 0 00-1.563 1.563 9.375 9.375 0 01-9.375 9.375 1.563 1.563 0 00-1.562 1.562v15.625a1.563 1.563 0 001.563 1.563 9.372 9.372 0 019.374 9.374 1.563 1.563 0 001.563 1.563h35.844A13.952 13.952 0 0057.478 66H7.125V19.125zm48.438 18.603v.147h-3.126v-.147a2.981 2.981 0 00-2.977-2.978h-.295a2.977 2.977 0 00-.941 5.803l3.166 1.054a6.102 6.102 0 01-.515 11.726v1.73H47.75v-1.73a6.113 6.113 0 01-4.688-5.936v-.147h3.126v.147a2.981 2.981 0 002.977 2.978h.295a2.977 2.977 0 00.941-5.803l-3.166-1.054a6.102 6.102 0 01.515-11.726v-1.73h3.125v1.73a6.113 6.113 0 014.688 5.936zm20.312 28.04v.228H72.75v-.227a1.336 1.336 0 00-1.335-1.335h-.455a1.335 1.335 0 00-.597 2.528l3.046 1.523a4.46 4.46 0 01-.659 8.245v1.766h-3.125V76.73a4.467 4.467 0 01-3.125-4.255v-.228h3.125v.228a1.336 1.336 0 001.335 1.334h.455a1.335 1.335 0 00.597-2.528l-3.047-1.524a4.46 4.46 0 01.66-8.244v-1.767h3.125v1.767a4.468 4.468 0 013.125 4.256zM29 37.876a4.687 4.687 0 100 9.374 4.687 4.687 0 000-9.374zm0 6.25A1.563 1.563 0 1129 41a1.563 1.563 0 010 3.125zm40.625-6.25a4.687 4.687 0 100 9.374 4.687 4.687 0 000-9.374zm0 6.25a1.563 1.563 0 110-3.125 1.563 1.563 0 010 3.125zm-18.75 31.25V72.25H54v3.125h-3.125zm-6.25 0V72.25h3.125v3.125h-3.125zm-12.5 0V72.25H41.5v3.125h-9.375z" fill="url(#paint0_linear)"/><defs><linearGradient id="paint0_linear" x1="-5.357" y1="75.719" x2="47.226" y2="-10.84" gradientUnits="userSpaceOnUse"><stop stop-color="#0085FF"/><stop offset=".641" stop-color="#E63B60"/></linearGradient></defs></svg>