<svg width="100" height="100" viewBox="0 0 100 100" fill="none" xmlns="http://www.w3.org/2000/svg"><g clip-path="url(#clip0)"><path d="M95.982 62.813l-5.772-4.33-3.008-15.038a1.562 1.562 0 00-1.532-1.257h-1.663a18.74 18.74 0 00-12.4-31.184V9.107a4.688 4.688 0 10-3.125 0v1.897a18.68 18.68 0 00-10.979 4.758 1.58 1.58 0 00-.253.234 18.71 18.71 0 00-5.89 12.13H10.67a1.563 1.563 0 00-1.563 1.562v18.75H4.42a1.563 1.563 0 100 3.125h4.687v3.125H5.982a1.563 1.563 0 100 3.125h3.125v3.125H7.545a1.563 1.563 0 100 3.125h1.562v15.625a1.562 1.562 0 001.563 1.563h4.844a7.813 7.813 0 0015.311 0h45.627a7.813 7.813 0 0015.31 0h3.283a1.562 1.562 0 001.562-1.563V64.063a1.562 1.562 0 00-.625-1.25zm-9.093-5h-9.032v-6.25h7.782l1.25 6.25zM70.045 3.126a1.563 1.563 0 110 3.125 1.563 1.563 0 010-3.125zM37.232 31.25h6.25v14.062h-6.25V31.251zM23.17 84.376a4.688 4.688 0 110-9.375 4.688 4.688 0 010 9.375zm20.312-6.25h-6.25V64.063h6.25v14.063zm25 0H46.607V62.5a1.562 1.562 0 00-1.562-1.563H35.67a1.563 1.563 0 00-1.563 1.563v15.625h-3.281a7.812 7.812 0 00-15.31 0h-3.284V64.063h7.813a1.562 1.562 0 100-3.125h-7.813v-3.125h6.25a1.562 1.562 0 100-3.125h-6.25v-3.125h4.688a1.562 1.562 0 100-3.125h-4.688V31.251h21.875v15.625a1.562 1.562 0 001.563 1.562h9.375a1.562 1.562 0 001.562-1.562V31.25h4.753a18.78 18.78 0 0017.122 17.122v29.753zM54.42 29.688c0-1.487.213-2.966.633-4.393l1.707.693a1.563 1.563 0 001.175-2.896L56.23 22.4a15.694 15.694 0 012.163-3.105l1.53 1.668a1.564 1.564 0 002.58-.388 1.56 1.56 0 00-.278-1.724l-1.532-1.671a15.639 15.639 0 013.136-1.823l.684 2.14a1.563 1.563 0 002.977-.95l-.684-2.143A15.625 15.625 0 1154.42 29.688zm29.687 54.688a4.688 4.688 0 110-9.375 4.688 4.688 0 010 9.375zm9.375-6.25h-1.719a7.812 7.812 0 00-15.31 0h-4.846V48.372a18.631 18.631 0 008.901-3.133c.15.048 3.88.074 3.88.074l.626 3.125h-8.72a1.563 1.563 0 00-1.562 1.563v9.375a1.562 1.562 0 001.563 1.562h11.979l5.208 3.906v13.282zM80.728 33.614a1.563 1.563 0 01-1.527-1.899 9.394 9.394 0 00-4.452-10.136 1.563 1.563 0 111.57-2.702 12.518 12.518 0 015.933 13.51 1.562 1.562 0 01-1.524 1.227zm-.826 4.323a1.562 1.562 0 01-2.201.195l-8.659-7.246a1.561 1.561 0 01-.56-1.198v-9.375a1.563 1.563 0 113.125 0v8.645l8.099 6.778a1.563 1.563 0 01.196 2.2v.001zm2.643 27.689a1.562 1.562 0 01-1.563 1.562h-4.687a1.562 1.562 0 110-3.125h4.687a1.562 1.562 0 011.563 1.563z" fill="url(#paint0_linear)"/></g><defs><linearGradient id="paint0_linear" x1="-6.659" y1="77.779" x2="68.142" y2="-18.367" gradientUnits="userSpaceOnUse"><stop stop-color="#0085FF"/><stop offset=".641" stop-color="#E63B60"/></linearGradient><clipPath id="clip0"><path fill="#fff" d="M0 0h100v100H0z"/></clipPath></defs></svg>