<svg width="47" height="12" viewBox="0 0 47 12" fill="none" xmlns="http://www.w3.org/2000/svg">
<path fill-rule="evenodd" clip-rule="evenodd" d="M44.202 6.50707C43.0114 6.31823 41.9515 6.26012 41.9515 5.62098C41.9515 5.37403 42.0963 5.11308 42.3287 4.93929C42.5326 4.77898 43.0695 4.72088 43.4321 4.72088C43.8103 4.72088 44.188 4.90972 44.4199 5.15666C44.5647 5.33098 44.739 5.60697 44.7685 5.89749H46.7C46.6564 5.18623 46.3514 4.48898 45.7994 4.09678C45.2624 3.70457 44.5652 3.22521 43.6065 3.22521C42.6923 3.22521 41.7917 3.25478 41.1676 3.71909C40.5425 4.16888 40.0927 4.92373 40.0927 5.57792C40.0927 5.9556 40.0642 6.40538 40.2094 6.68086C40.3697 6.95686 40.8335 7.5239 41.1962 7.74127C41.7046 8.03179 42.8952 8.148 43.5489 8.32231C44.0858 8.45253 44.7395 8.4821 44.8853 9.01957C44.9714 9.33862 44.8702 9.62915 44.5802 9.81799C44.3037 10.0063 43.883 10.137 43.4181 10.137C42.9388 10.137 42.4739 9.9923 42.2415 9.70178C42.0387 9.42578 41.9225 9.16431 41.7622 8.74305H39.8307C39.8743 9.62863 40.3687 10.5002 40.9777 10.9941C41.5733 11.4734 42.3723 11.7053 43.388 11.7053C44.4054 11.7053 45.291 11.531 45.9446 11.0662C46.5828 10.6019 46.9314 9.73083 46.9314 9.01957C46.9314 8.40947 46.7571 7.93011 46.4816 7.55295C45.9156 6.81212 44.8993 6.60927 44.202 6.50707ZM19.0225 11.474H20.983V3.34142H19.0225V11.474ZM19.0225 2.78994H20.9975V0.829441H19.0225V2.78994ZM16.1619 4.41635C15.4361 3.84931 14.507 3.45762 13.4901 3.42857H13.3884C11.1374 3.42857 9.30815 5.25834 9.30815 7.49484C9.30815 9.74535 11.1374 11.5896 13.3884 11.5896H13.4901C14.5064 11.5756 15.4356 11.1684 16.1479 10.4717L16.1619 11.4745H18.0207V0.829956H16.1619V4.41635ZM13.5046 9.91967H13.4901C12.8474 9.91857 12.2312 9.66275 11.7767 9.20824C11.3222 8.75374 11.0664 8.13761 11.0653 7.49484C11.0653 6.17349 12.1542 5.07002 13.4901 5.07002H13.5046C14.826 5.07002 15.9295 6.15896 15.9295 7.49484C15.9295 8.83072 14.826 9.91967 13.5046 9.91967ZM28.3301 4.38678C27.6049 3.82026 26.6752 3.42805 25.6584 3.39952H25.5567C23.3062 3.39952 21.4619 5.24382 21.4619 7.4798C21.4619 9.73083 23.3062 11.5751 25.5567 11.5751H25.6584C26.6747 11.5461 27.5893 11.1393 28.3161 10.4421V11.4444H30.1744V0.81543H28.3161L28.3301 4.38678ZM25.6589 9.90514C24.323 9.90514 23.2195 8.80167 23.2195 7.46579C23.2195 6.14391 24.323 5.0555 25.6589 5.0555C26.9948 5.0555 28.0988 6.14443 28.0988 7.46579C28.0982 8.80167 26.9948 9.90514 25.6589 9.90514ZM6.69396 3.34142V4.1113C6.31628 3.70457 6.14249 3.57435 5.7067 3.41405C5.3145 3.2693 4.77703 3.13805 4.25409 3.12353H4.16745C3.54283 3.12353 2.99135 3.22469 2.49746 3.42806C2.0181 3.63194 1.56779 3.95099 1.16157 4.38678C0.79842 4.76497 0.508416 5.22877 0.290523 5.73771C0.0979544 6.24805 -0.000477591 6.78908 1.74224e-06 7.33454C1.74224e-06 8.56926 0.406733 9.60009 1.21968 10.3985C2.01862 11.2114 3.03493 11.6332 4.25461 11.6332H4.26913C4.76302 11.6332 5.29997 11.488 5.73575 11.3277C6.17102 11.1679 6.49111 11.0371 6.69396 10.7471V11.488L8.58184 11.474L8.56732 3.32741L6.69396 3.34142ZM4.26913 9.78893H4.25461C3.93785 9.78976 3.62405 9.72797 3.33125 9.60713C3.03845 9.4863 2.77241 9.30879 2.54843 9.08481C2.32445 8.86083 2.14694 8.59479 2.0261 8.30199C1.90527 8.00919 1.84348 7.69539 1.8443 7.37863C1.84513 6.73964 2.09933 6.12705 2.55117 5.67521C3.00301 5.22337 3.61561 4.96916 4.25461 4.96834H4.26913C5.59049 4.96834 6.67944 6.05728 6.67944 7.37863C6.67861 8.01763 6.4244 8.63023 5.97256 9.08207C5.52072 9.53391 4.90813 9.78811 4.26913 9.78893ZM37.4935 3.31236L37.5075 4.08173C37.1304 3.69004 36.9421 3.55879 36.5208 3.38448C36.0535 3.21959 35.5639 3.1267 35.0687 3.109H34.9816C34.3564 3.109 33.8049 3.21016 33.3116 3.39952C32.8172 3.6034 32.3674 3.93699 31.9752 4.35825C31.598 4.73593 31.3075 5.20024 31.1036 5.7237C30.9052 6.23286 30.8018 6.77408 30.7985 7.32053C30.7985 8.54072 31.2198 9.57104 32.0338 10.3845C32.8172 11.1829 33.8485 11.6042 35.0687 11.6042C35.5766 11.6042 36.1136 11.474 36.5348 11.2996C36.9706 11.1393 37.3047 11.0086 37.5075 10.7186V11.4594L39.3954 11.4449L39.3669 3.31289L37.4935 3.31236ZM35.0687 9.77441C33.7323 9.75988 32.6428 8.68495 32.6428 7.34907C32.6428 6.02771 33.7323 4.9533 35.0687 4.93877C36.4041 4.93877 37.4935 6.02771 37.4935 7.34907C37.4935 8.68547 36.4041 9.77441 35.0687 9.77441Z" fill="#333333"/>
</svg>
