<svg width="25" height="25" viewBox="0 0 25 25" fill="none" xmlns="http://www.w3.org/2000/svg">
<path d="M18.9461 0.0115786C18.626 0.0453179 18.3127 0.126001 18.0163 0.251023V0.221332C18.0019 0.225163 17.9712 0.247192 17.9568 0.251023C15.6212 1.07088 11.1496 3.12436 7.10118 7.16522C3.02301 11.2358 1.0559 15.7814 0.174053 18.0303V18.0599C-0.0125856 18.6235 -0.0498747 19.2257 0.0658149 19.808C0.181505 20.3902 0.446233 20.9326 0.834236 21.3825L0.863983 21.4122V21.4419L3.74269 24.2855L3.86263 24.4052C4.65716 25.1983 6.03701 25.1983 6.83154 24.4052L10.76 20.4841C11.5545 19.691 11.5545 18.2841 10.76 17.491L8.87062 15.6061C9.20071 14.9213 10.0547 13.2375 11.5699 11.6553C13.0716 10.0826 14.796 9.28191 15.4676 8.98979L17.4472 10.9657L17.5365 11.0251C17.9865 11.3248 18.4999 11.4934 19.0363 11.4743C19.5381 11.4551 20.0592 11.209 20.4449 10.7856L20.4756 10.8153L20.5351 10.7262L24.4041 6.89513C25.1986 6.10209 25.1986 4.69511 24.4041 3.90207L21.4342 0.939665C20.9958 0.507944 20.445 0.207353 19.8442 0.0719188C19.5496 0.00491246 19.2461 -0.0154495 18.9451 0.0115786H18.9461ZM19.0958 1.92713C19.4604 1.90127 19.8231 2.05452 20.0553 2.2863L23.054 5.24967C23.219 5.4144 23.219 5.35502 23.054 5.5188L19.0372 9.53093C19.0411 9.5271 19.0372 9.55679 18.947 9.56062C18.8722 9.56446 18.7599 9.50028 18.6467 9.4409H18.5872L16.337 7.16522L15.8879 6.71602L15.318 6.92578C15.318 6.92578 12.3682 8.02531 10.1603 10.3383C7.98974 12.6054 6.80179 15.3954 6.80179 15.3954L6.5619 15.995L7.01194 16.4739L9.41086 18.8683C9.57494 19.033 9.57494 18.9737 9.41086 19.1374L5.48238 23.0586C5.31734 23.2233 5.37683 23.2233 5.21275 23.0586L2.27359 20.1546C2.26591 20.1479 2.28127 20.1326 2.27359 20.1259L2.24384 20.0952C1.90991 19.6795 1.80916 19.238 1.97324 18.7179C1.97708 18.7074 1.97036 18.6997 1.97324 18.6892C2.82438 16.5256 4.69842 12.2874 8.48104 8.51186C12.278 4.72193 16.5846 2.77285 18.6764 2.04686L18.7062 2.01717H18.7359C18.852 1.96449 18.9758 1.9348 19.0958 1.92713Z" fill="white"/>
</svg>
